<mxfile host="app.diagrams.net" modified="2023-02-02T10:03:04.739Z" agent="5.0 (Macintosh; Intel Mac OS X 10_15_7) AppleWebKit/537.36 (KHTML, like Gecko) Chrome/109.0.0.0 Safari/537.36" etag="az4blWPkPceSE25zYLUv" version="20.8.15" type="github">
  <diagram name="Page-1" id="82e54ff1-d628-8f03-85c4-9753963a91cd">
    <mxGraphModel dx="1348" dy="1044" grid="1" gridSize="10" guides="1" tooltips="1" connect="1" arrows="1" fold="1" page="1" pageScale="1" pageWidth="1654" pageHeight="1169" background="none" math="0" shadow="0">
      <root>
        <mxCell id="0" />
        <mxCell id="1" parent="0" />
        <mxCell id="J_vdHsdtML-1TC-3mca8-6" style="edgeStyle=orthogonalEdgeStyle;rounded=0;orthogonalLoop=1;jettySize=auto;html=1;exitX=1;exitY=0.5;exitDx=0;exitDy=0;exitPerimeter=0;strokeColor=#CC0000;strokeWidth=2;elbow=vertical;" parent="1" source="4ec97bd9e5d20128-1" edge="1">
          <mxGeometry relative="1" as="geometry">
            <mxPoint x="427" y="410" as="targetPoint" />
            <Array as="points">
              <mxPoint x="1260" y="405" />
              <mxPoint x="1260" y="690" />
              <mxPoint x="420" y="690" />
            </Array>
          </mxGeometry>
        </mxCell>
        <mxCell id="4ec97bd9e5d20128-1" value="" style="line;strokeWidth=2;html=1;fillColor=none;fontSize=28;fontColor=#004D99;strokeColor=#CC0000;" parent="1" vertex="1">
          <mxGeometry x="40" y="400" width="1200" height="10" as="geometry" />
        </mxCell>
        <mxCell id="4ec97bd9e5d20128-5" value="Stage 1" style="shape=offPageConnector;whiteSpace=wrap;html=1;fillColor=#CC0000;fontSize=15;fontColor=#FFFFFF;size=0.5093750000000015;verticalAlign=top;strokeColor=none;" parent="1" vertex="1">
          <mxGeometry x="120" y="340" width="160" height="40" as="geometry" />
        </mxCell>
        <mxCell id="4ec97bd9e5d20128-6" value="&lt;span&gt;Stage 3&lt;/span&gt;" style="shape=offPageConnector;whiteSpace=wrap;html=1;fillColor=#CC0000;fontSize=15;fontColor=#FFFFFF;size=0.5093750000000015;verticalAlign=top;strokeColor=none;" parent="1" vertex="1">
          <mxGeometry x="573" y="340" width="160" height="40" as="geometry" />
        </mxCell>
        <mxCell id="4ec97bd9e5d20128-7" value="&lt;span&gt;Stage 2&lt;/span&gt;" style="shape=offPageConnector;whiteSpace=wrap;html=1;fillColor=#CC0000;fontSize=15;fontColor=#FFFFFF;size=0.4178571428571445;flipV=1;verticalAlign=bottom;strokeColor=none;spacingBottom=4;" parent="1" vertex="1">
          <mxGeometry x="347" y="425" width="160" height="35" as="geometry" />
        </mxCell>
        <mxCell id="4ec97bd9e5d20128-8" value="&lt;span&gt;Stage 4&lt;/span&gt;" style="shape=offPageConnector;whiteSpace=wrap;html=1;fillColor=#CC0000;fontSize=15;fontColor=#FFFFFF;size=0.4178571428571445;flipV=1;verticalAlign=bottom;strokeColor=none;spacingBottom=4;" parent="1" vertex="1">
          <mxGeometry x="800" y="425" width="160" height="35" as="geometry" />
        </mxCell>
        <mxCell id="4ec97bd9e5d20128-9" value="" style="ellipse;whiteSpace=wrap;html=1;fillColor=#FF3333;fontSize=28;fontColor=#004D99;strokeWidth=3;strokeColor=#004D99;" parent="1" vertex="1">
          <mxGeometry x="190" y="395" width="20" height="20" as="geometry" />
        </mxCell>
        <mxCell id="4ec97bd9e5d20128-10" value="" style="ellipse;whiteSpace=wrap;html=1;fillColor=#FF3333;fontSize=28;fontColor=#004D99;strokeWidth=3;strokeColor=#004D99;" parent="1" vertex="1">
          <mxGeometry x="417" y="395" width="20" height="20" as="geometry" />
        </mxCell>
        <mxCell id="4ec97bd9e5d20128-11" value="" style="ellipse;whiteSpace=wrap;html=1;fillColor=#FF3333;fontSize=28;fontColor=#004D99;strokeWidth=3;strokeColor=#004D99;" parent="1" vertex="1">
          <mxGeometry x="643" y="395" width="20" height="20" as="geometry" />
        </mxCell>
        <mxCell id="4ec97bd9e5d20128-13" value="" style="ellipse;whiteSpace=wrap;html=1;fillColor=#FF3333;fontSize=28;fontColor=#004D99;strokeWidth=3;strokeColor=#004D99;" parent="1" vertex="1">
          <mxGeometry x="870" y="395" width="20" height="20" as="geometry" />
        </mxCell>
        <mxCell id="4ec97bd9e5d20128-14" value="&lt;h1&gt;Roles &amp;amp; Responsibilities + Central Platform + Ownership&lt;/h1&gt;&lt;p&gt;&lt;br&gt;&lt;/p&gt;" style="text;html=1;spacing=5;spacingTop=-20;whiteSpace=wrap;overflow=hidden;strokeColor=none;strokeWidth=3;fillColor=#E6E6E6;fontSize=13;fontColor=#000000;align=center;rounded=1;" parent="1" vertex="1">
          <mxGeometry x="93" y="430" width="227" height="180" as="geometry" />
        </mxCell>
        <mxCell id="4ec97bd9e5d20128-16" value="&lt;h1&gt;Policies &amp;amp; Standards&lt;/h1&gt;" style="text;html=1;spacing=5;spacingTop=-20;whiteSpace=wrap;overflow=hidden;strokeColor=none;strokeWidth=3;fillColor=#E6E6E6;fontSize=13;fontColor=#000000;align=center;rounded=1;" parent="1" vertex="1">
          <mxGeometry x="319.5" y="290" width="215" height="80" as="geometry" />
        </mxCell>
        <mxCell id="4ec97bd9e5d20128-17" value="&lt;h1&gt;Cataloging + Metadata Management + Requirement Management + KPIs&lt;/h1&gt;" style="text;html=1;spacing=5;spacingTop=-20;whiteSpace=wrap;overflow=hidden;strokeColor=none;strokeWidth=3;fillColor=#E6E6E6;fontSize=13;fontColor=#000000;align=center;rounded=1;" parent="1" vertex="1">
          <mxGeometry x="550" y="430" width="215" height="210" as="geometry" />
        </mxCell>
        <mxCell id="4ec97bd9e5d20128-18" value="&lt;h1&gt;Decentralized Ownership + Data Product Management + Technical Infrastructure&lt;/h1&gt;" style="text;html=1;spacing=5;spacingTop=-20;whiteSpace=wrap;overflow=hidden;strokeColor=none;strokeWidth=3;fillColor=#E6E6E6;fontSize=13;fontColor=#000000;align=center;rounded=1;" parent="1" vertex="1">
          <mxGeometry x="772.5" y="180" width="215" height="200" as="geometry" />
        </mxCell>
        <mxCell id="J_vdHsdtML-1TC-3mca8-2" value="&lt;span&gt;Stage 5&lt;/span&gt;" style="shape=offPageConnector;whiteSpace=wrap;html=1;fillColor=#CC0000;fontSize=15;fontColor=#FFFFFF;size=0.5093750000000015;verticalAlign=top;strokeColor=none;" parent="1" vertex="1">
          <mxGeometry x="1043" y="340" width="160" height="40" as="geometry" />
        </mxCell>
        <mxCell id="J_vdHsdtML-1TC-3mca8-3" value="" style="ellipse;whiteSpace=wrap;html=1;fillColor=#FF3333;fontSize=28;fontColor=#004D99;strokeWidth=3;strokeColor=#004D99;" parent="1" vertex="1">
          <mxGeometry x="1113" y="395" width="20" height="20" as="geometry" />
        </mxCell>
        <mxCell id="J_vdHsdtML-1TC-3mca8-4" value="&lt;h1&gt;Communication and Training&lt;/h1&gt;" style="text;html=1;spacing=5;spacingTop=-20;whiteSpace=wrap;overflow=hidden;strokeColor=none;strokeWidth=3;fillColor=#E6E6E6;fontSize=13;fontColor=#000000;align=center;rounded=1;" parent="1" vertex="1">
          <mxGeometry x="1015.5" y="430" width="215" height="90" as="geometry" />
        </mxCell>
        <mxCell id="J_vdHsdtML-1TC-3mca8-8" value="&lt;h1&gt;Continuous Improvement&lt;/h1&gt;" style="text;html=1;spacing=5;spacingTop=-20;whiteSpace=wrap;overflow=hidden;strokeColor=none;strokeWidth=3;fillColor=#E6E6E6;fontSize=13;fontColor=#000000;align=center;rounded=1;" parent="1" vertex="1">
          <mxGeometry x="730" y="700" width="215" height="100" as="geometry" />
        </mxCell>
        <mxCell id="41DwftxlrVXNSMgh1K6p-1" value="" style="shape=image;verticalLabelPosition=bottom;labelBackgroundColor=default;verticalAlign=top;aspect=fixed;imageAspect=0;image=data:image/svg+xml,PHN2ZyB4bWxuczp4bGluaz0iaHR0cDovL3d3dy53My5vcmcvMTk5OS94bGluayIgeG1sbnM9Imh0dHA6Ly93d3cudzMub3JnLzIwMDAvc3ZnIiB4bWw6c3BhY2U9InByZXNlcnZlIiBzdHlsZT0iZW5hYmxlLWJhY2tncm91bmQ6bmV3IDAgMCAxMjIuODggOTQuMTIiIHZpZXdCb3g9IjAgMCAxMjIuODggOTQuMTIiIHk9IjBweCIgeD0iMHB4IiBpZD0iTGF5ZXJfMSIgdmVyc2lvbj0iMS4xIj48c3R5bGUgdHlwZT0idGV4dC9jc3MiPi5zdDB7ZmlsbC1ydWxlOmV2ZW5vZGQ7Y2xpcC1ydWxlOmV2ZW5vZGQ7fTwvc3R5bGU+PGc+PHBhdGggZD0iTTYuMzMsMGg5MS4xNmMzLjQ2LDAsNi4zMywyLjg3LDYuMzMsNi4zNHYzMy4xNmMtMS45Ni0wLjcxLTQuMDMtMS4yLTYuMTYtMS40NVYxMS45MWwwLDBsMCwwSDYuMDh2NTQuNDEgaDYxLjAzYzAuMDgsMi4wNywwLjM4LDQuMDcsMC44OSw2SDYuMzNDMi44Nyw3Mi4zMiwwLDY5LjQ1LDAsNjUuOThWNi4zNEMwLDIuODcsMi44NywwLDYuMzMsMEw2LjMzLDBMNi4zMywweiBNOTUuODYsNDUuMzYgYzUuODcsMCwxMS4xOSwyLjM5LDE1LjA1LDYuMjNjMy44NSwzLjg2LDYuMjMsOS4xNiw2LjIzLDE1LjA1YzAsNC4yOS0xLjI4LDguMy0zLjQ2LDExLjY0bDkuMjEsMTAuMDRsLTYuMzUsNS44MWwtOC44OC05Ljc3IGMtMy4zNywyLjI1LTcuNDMsMy41Ni0xMS43OCwzLjU2Yy01Ljg3LDAtMTEuMTktMi4zOS0xNS4wNC02LjIzYy0zLjg2LTMuODYtNi4yMy05LjE2LTYuMjMtMTUuMDRjMC01Ljg3LDIuMzktMTEuMTksNi4yMy0xNS4wNSBDODQuNjcsNDcuNzMsODkuOTgsNDUuMzYsOTUuODYsNDUuMzZMOTUuODYsNDUuMzZMOTUuODYsNDUuMzZ6IE0xMDcuMTcsNTUuMzJjLTIuODktMi44OS02LjktNC42OS0xMS4zMS00LjY5IGMtNC40MSwwLTguNDIsMS44LTExLjMxLDQuNjljLTIuODksMi44OS00LjY5LDYuOS00LjY5LDExLjMxYzAsNC40MSwxLjgsOC40Miw0LjY5LDExLjMxYzIuODksMi44OSw2LjksNC42OSwxMS4zMSw0LjY5IGM0LjQxLDAsOC40Mi0xLjgsMTEuMzEtNC42OWMyLjg5LTIuODksNC42OS02LjksNC42OS0xMS4zMUMxMTEuODYsNjIuMjIsMTEwLjA3LDU4LjIyLDEwNy4xNyw1NS4zMkwxMDcuMTcsNTUuMzJMMTA3LjE3LDU1LjMyIEwxMDcuMTcsNTUuMzJ6IE01OS4wNSw1My40OGgxMC42OWMtMC41MiwxLjA5LTAuOTcsMi4yMi0xLjM0LDMuMzhoLTkuMzRWNTMuNDhMNTkuMDUsNTMuNDhMNTkuMDUsNTMuNDh6IE01OS4wNSw0NC44NmgxNy4xNCBjLTEuMTUsMS4wMy0yLjIyLDIuMTctMy4xOCwzLjM4SDU5LjA1VjQ0Ljg2TDU5LjA1LDQ0Ljg2TDU5LjA1LDQ0Ljg2eiBNNzcuODEsMjkuNTdoNC43M2MwLjI1LDAsMC40MiwwLjE3LDAuNDIsMC40MnY5LjI5IGMwLDAuMjUtMC4xNywwLjQyLTAuNDIsMC40MmgtNC43M2MtMC4yNSwwLTAuNDItMC4xNy0wLjQyLTAuNDJ2LTkuMjlDNzcuMzgsMjkuODIsNzcuNTUsMjkuNTcsNzcuODEsMjkuNTdMNzcuODEsMjkuNTcgTDc3LjgxLDI5LjU3TDc3LjgxLDI5LjU3eiBNNTkuNTYsMjMuOTFoNC43M2MwLjI1LDAsMC40MiwwLjE3LDAuNDIsMC40M3YxNS4wNGMwLDAuMjUtMC4xNywwLjQyLTAuNDIsMC40MmgtNC43MyBjLTAuMjUsMC0wLjQyLTAuMTctMC40Mi0wLjQyVjI0LjMzQzU5LjA1LDI0LjA4LDU5LjMxLDIzLjkxLDU5LjU2LDIzLjkxTDU5LjU2LDIzLjkxTDU5LjU2LDIzLjkxTDU5LjU2LDIzLjkxTDU5LjU2LDIzLjkxeiBNNjguNjgsMjAuN2g0LjczYzAuMjUsMCwwLjQyLDAuMTcsMC40MiwwLjQydjE4LjI1YzAsMC4yNS0wLjE3LDAuNDItMC40MiwwLjQyaC00LjczYy0wLjI1LDAtMC40Mi0wLjE3LTAuNDItMC40MlYyMS4xMiBDNjguMjYsMjAuODcsNjguNDMsMjAuNyw2OC42OCwyMC43TDY4LjY4LDIwLjdMNjguNjgsMjAuN0w2OC42OCwyMC43eiBNMzMuMiw0MC43MmwxNC4zNiwwLjI1YzAsNS4xNS0yLjUzLDkuODgtNi43NiwxMi43NiBMMzMuMiw0MC43MkwzMy4yLDQwLjcyTDMzLjIsNDAuNzJMMzMuMiw0MC43MnogTTMxLjc2LDM4LjI3bC0wLjE3LTE2Ljczdi0xLjFsMS4xLDAuMDhsMCwwbDAsMGMxLjM1LDAuMDgsMi43LDAuMzQsMy45NywwLjY4IGMxLjI3LDAuMzQsMi40NSwwLjg0LDMuNjMsMS40NGM1LjgzLDMuMDQsOS44OCw5LjEyLDEwLjIyLDE2LjA1bDAuMDgsMS4xaC0xLjFsLTE2LjY0LTAuNTFoLTAuOTNMMzEuNzYsMzguMjdMMzEuNzYsMzguMjcgTDMxLjc2LDM4LjI3TDMxLjc2LDM4LjI3eiBNMzMuNjIsMjIuNTZsMC4xNywxNC43bDE0LjYyLDAuNDJjLTAuNTktNS43NS00LjE0LTEwLjczLTkuMDQtMTMuMzVjLTEuMDEtMC41MS0yLjExLTAuOTMtMy4yMS0xLjI3IEMzNS4yMywyMi45LDM0LjQ3LDIyLjczLDMzLjYyLDIyLjU2TDMzLjYyLDIyLjU2TDMzLjYyLDIyLjU2TDMzLjYyLDIyLjU2eiBNMzAuMzMsMzkuODhsOC4xOSwxNC4xOWMtMi41MywxLjQ0LTUuMzIsMi4yLTguMTksMi4yIGMtOS4wNCwwLTE2LjM5LTcuMzUtMTYuMzktMTYuMzljMC04Ljc5LDYuOTMtMTYuMDUsMTUuNzEtMTYuMzlMMzAuMzMsMzkuODhMMzAuMzMsMzkuODhMMzAuMzMsMzkuODhMMzAuMzMsMzkuODh6IiBjbGFzcz0ic3QwIi8+PC9nPjwvc3ZnPg==;" vertex="1" parent="1">
          <mxGeometry x="110" y="70" width="65.43" height="50" as="geometry" />
        </mxCell>
        <mxCell id="41DwftxlrVXNSMgh1K6p-2" value="" style="shape=image;verticalLabelPosition=bottom;labelBackgroundColor=default;verticalAlign=top;aspect=fixed;imageAspect=0;image=data:image/svg+xml,PHN2ZyB4bWxuczp4bGluaz0iaHR0cDovL3d3dy53My5vcmcvMTk5OS94bGluayIgeG1sbnM9Imh0dHA6Ly93d3cudzMub3JnLzIwMDAvc3ZnIiB4bWw6c3BhY2U9InByZXNlcnZlIiB2aWV3Qm94PSIwIDAgNDk2IDQ5NiIgaWQ9IkxheWVyXzEiIHZlcnNpb249IjEuMSIgZmlsbD0iIzAwMDAwMCI+JiN4YTs8Zz4mI3hhOwk8Zz4mI3hhOwkJPGc+JiN4YTsJCQk8cGF0aCBkPSJNMTEyLjY4LDI2MGMtOC4xNiwwLTE1LjgyNCw0LjM0NC0yMCwxMS4zMmwtMTIuMDQsMjAuMDcybC0wLjY0LTEuMjh2LTI0LjY5NmwyNi4wMDgtMTAuNDA4JiMxMDsmIzk7JiM5OyYjOTsmIzk7QzExNC41MDQsMjUxLjYxNiwxMjAsMjQzLjUxMiwxMjAsMjM0LjM2YzAtNy4xNTItMy40NzItMTMuODk2LTkuMjY0LTE4LjA3MmMtNS44MDgtNC4xNjgtMTMuMzEyLTUuMjg4LTIwLjA4LTMuMDA4bC0yLjgzMiwwLjk1MiYjMTA7JiM5OyYjOTsmIzk7JiM5O2wzLjIzMi02LjQ2NEM5NC4yODgsMjAxLjI5Niw5NiwxOTQuMDU2LDk2LDE4Ni44MzJDOTYsMTc0LjI0LDg1Ljc2LDE2NCw3My4xNjgsMTY0Yy04LjcwNCwwLTE2LjUyLDQuODMyLTIwLjQyNCwxMi42MjQmIzEwOyYjOTsmIzk7JiM5OyYjOTtsLTE5Ljg5NiwzOS44TDE2LjE2LDI5OC40MzJMMTYsNDA0bDYuMjgsMzJIMHY1NmgxMjB2LTU2SDk2di01My41NzZsMTQuNjU2LTIxLjk4NGwyMS43OTItNTcuNTA0JiMxMDsmIzk7JiM5OyYjOTsmIzk7YzIuMzYtNi4yOTYsMy41NTItMTIuODk2LDMuNTUyLTE5LjYxNkMxMzYsMjcwLjQ2NCwxMjUuNTM2LDI2MCwxMTIuNjgsMjYweiBNOTUuNzY4LDIyOC40NGMxLjkyLTAuNjQsMy45NzYtMC4zMzYsNS42MzIsMC44NDgmIzEwOyYjOTsmIzk7JiM5OyYjOTtjMS42NTYsMS4xODQsMi42LDMuMDMyLDIuNiw1LjA3MmMwLDIuNTY4LTEuNTM2LDQuODMyLTMuOTIsNS43OTJMODAsMjQ4LjE4NHYtMTQuNDRMOTUuNzY4LDIyOC40NHogTTEwNCw0NTJ2MjRIMTZ2LTI0SDEwNHomIzEwOyYjOTsmIzk7JiM5OyYjOTsgTTExNy40NjQsMjk3LjMxMkw5Ni44NCwzNTIuMzI4TDgwLDM3Ny41NzZWNDM2SDM4LjU2TDMyLDQwMy4yMDhWMzAwLjc5MmwxNS42MzItNzguMTY4bDE5LjQyNC0zOC44MzImIzEwOyYjOTsmIzk7JiM5OyYjOTtjMS4xNi0yLjM0NCwzLjUwNC0zLjc5Miw2LjExMi0zLjc5MmMzLjc2LDAsNi44MzIsMy4wNzIsNi44MzIsNi44MzJjMCw0Ljc1Mi0xLjEyOCw5LjUyLTMuMjU2LDEzLjc5Mkw2NCwyMjYuMTEydjY3Ljc4NCYjMTA7JiM5OyYjOTsmIzk7JiM5O2wxNS4zNiwzMC43MmwyNy4wNC00NS4wNjRjMS4zMTItMi4xOTIsMy43Mi0zLjU1Miw2LjI4LTMuNTUyYzQuMDQsMCw3LjMyLDMuMjgsNy4zMiw3LjMyJiMxMDsmIzk7JiM5OyYjOTsmIzk7QzEyMCwyODguMTIsMTE5LjE1MiwyOTIuODMyLDExNy40NjQsMjk3LjMxMnoiLz4mI3hhOwkJCTxwYXRoIGQ9Ik00NzMuNzYsNDM2bDYuMDg4LTMwLjQzMkw0ODAsMzAwbC0xNi4xNi04MS41NjhsLTIwLjU4NC00MS44MDhDNDM5LjM2LDE2OC44MzIsNDMxLjUzNiwxNjQsNDIyLjgzMiwxNjQmIzEwOyYjOTsmIzk7JiM5OyYjOTtDNDEwLjI0LDE2NCw0MDAsMTc0LjI0LDQwMCwxODYuODMyYzAsNy4yMTYsMS43MTIsMTQuNDY0LDQuOTQ0LDIwLjk0NGwzLjIyNCw2LjQ0OGwtMi44MjQtMC45NTImIzEwOyYjOTsmIzk7JiM5OyYjOTtjLTYuNzYtMi4yODgtMTQuMjcyLTEuMTYtMjAuMDgsMy4wMDhjLTUuNzkyLDQuMTg0LTkuMjY0LDEwLjkyOC05LjI2NCwxOC4wOGMwLDkuMTYsNS40OTYsMTcuMjU2LDEzLjk4NCwyMC42NDhMNDE2LDI2NS40MTYmIzEwOyYjOTsmIzk7JiM5OyYjOTt2MjQuNjk2bC0wLjY0LDEuMjhsLTEyLjA0LTIwLjA2NGMtNC4xNzYtNi45ODQtMTEuODQtMTEuMzI4LTIwLTExLjMyOGMtMTIuODU2LDAtMjMuMzIsMTAuNDY0LTIzLjMyLDIzLjMyJiMxMDsmIzk7JiM5OyYjOTsmIzk7YzAsNi43MiwxLjE5MiwxMy4zMiwzLjU1MiwxOS42MTZsMjAuOTUyLDU1Ljg3Mkw0MDAsMzgyLjQyNFY0MzZoLTI0djU2aDEyMHYtNTZINDczLjc2eiBNMzk1LjkxMiwyNDAuMTUyJiMxMDsmIzk7JiM5OyYjOTsmIzk7Yy0yLjM3Ni0wLjk2LTMuOTEyLTMuMjI0LTMuOTEyLTUuNzkyYzAtMi4wNCwwLjk0NC0zLjg4LDIuNi01LjA3MmMxLjY1Ni0xLjE5MiwzLjY5Ni0xLjQ5Niw1LjYzMi0wLjg0OEw0MTYsMjMzLjc0NHYxNC40NCYjMTA7JiM5OyYjOTsmIzk7JiM5O0wzOTUuOTEyLDI0MC4xNTJ6IE0zOTkuMTY4LDM1Mi4zMjhsLTIwLjYyNC01NS4wMTZjLTEuNjk2LTQuNDgtMi41NDQtOS4xOTItMi41NDQtMTMuOTkyYzAtNC4wNCwzLjI4LTcuMzIsNy4zMi03LjMyJiMxMDsmIzk7JiM5OyYjOTsmIzk7YzIuNTYsMCw0Ljk2OCwxLjM2LDYuMjgsMy41NTJsMjcuMDQsNDUuMDU2bDE1LjM2LTMwLjcydi02Ny43ODRsLTEyLjc0NC0yNS40OGMtMi4xMjgtNC4yNjQtMy4yNTYtOS4wNC0zLjI1Ni0xMy43OTImIzEwOyYjOTsmIzk7JiM5OyYjOTtjMC0zLjc2LDMuMDcyLTYuODMyLDYuODMyLTYuODMyYzIuNiwwLDQuOTQ0LDEuNDQ4LDYuMTEyLDMuNzg0bDE5LjQyNCwzOC44MzJMNDY0LDMwMC43OTJ2MTAyLjQyNEw0NTcuNDQsNDM2SDQxNnYtNTguNDI0JiMxMDsmIzk7JiM5OyYjOTsmIzk7TDM5OS4xNjgsMzUyLjMyOHogTTQ4MCw0NzZoLTg4di0yNGg4OFY0NzZ6Ii8+JiN4YTsJCQk8cGF0aCBkPSJNMzQ5LjExMiwxNDhIMzY4di00OGgtMTguODg4Yy0yLjU1Mi0xMC44NDgtNi43ODQtMjEuMDgtMTIuNjMyLTMwLjUyOGwxMy4zNDQtMTMuMzUybC0zMy45MzYtMzMuOTM2bC0xMy4zNiwxMy4zMzYmIzEwOyYjOTsmIzk7JiM5OyYjOTtjLTkuNDU2LTUuODQ4LTE5LjY4LTEwLjA4LTMwLjUyOC0xMi42MzJWNGgtNDh2MTguODg4Yy0xMC44NDgsMi41NTItMjEuMDgsNi43ODQtMzAuNTI4LDEyLjYzMkwxODAuMTIsMjIuMTc2bC0zMy45MzYsMzMuOTM2JiMxMDsmIzk7JiM5OyYjOTsmIzk7bDEzLjM0NCwxMy4zNTJjLTUuODQ4LDkuNDU2LTEwLjA4LDE5LjY4LTEyLjYzMiwzMC41MjhIMTI4djQ4aDE4Ljg4OGMyLjU1MiwxMC44NDgsNi43ODQsMjEuMDgsMTIuNjMyLDMwLjUyOGwtMTMuMzQ0LDEzLjM1MiYjMTA7JiM5OyYjOTsmIzk7JiM5O2wzMy45MzYsMzMuOTM2bDEyLjI1Ni0xMi4yNTZjLTAuMDk2LDAuODA4LTAuMjQ4LDEuNi0wLjI0OCwyLjQzMmMwLDcuMTIsMy43NiwxMy4zMjgsOS4zNjgsMTYuODgmIzEwOyYjOTsmIzk7JiM5OyYjOTtjLTAuODQ4LDIuMjI0LTEuMzY4LDQuNjA4LTEuMzY4LDcuMTJjMCwxMS4wMzIsOC45NjgsMjAsMjAsMjBoNTZjMTEuMDMyLDAsMjAtOC45NjgsMjAtMjBjMC0yLjUyLTAuNTItNC45MDQtMS4zNjgtNy4xMiYjMTA7JiM5OyYjOTsmIzk7JiM5O2M1LjYwOC0zLjU0NCw5LjM2OC05Ljc2LDkuMzY4LTE2Ljg4YzAtMC43MzYtMC4xMzYtMS40NC0wLjIxNi0yLjE1MmwxMS45NzYsMTEuOTc2bDMzLjkzNi0zMy45MzZsLTEzLjM0NC0xMy4zNTImIzEwOyYjOTsmIzk7JiM5OyYjOTtDMzQyLjMyOCwxNjkuMDgsMzQ2LjU1MiwxNTguODQ4LDM0OS4xMTIsMTQ4eiBNMjc2LjEyOCwyNDRoLTU2Yy0yLjIsMC00LTEuOC00LTRzMS44LTQsNC00aDU2YzIuMiwwLDQsMS44LDQsNCYjMTA7JiM5OyYjOTsmIzk7JiM5O1MyNzguMzI4LDI0NCwyNzYuMTI4LDI0NHogTTI4NC4xMjgsMjIwaC04aC01NmgtOGMtMi4yLDAtNC0xLjgtNC00czEuOC00LDQtNGg3MmMyLjIsMCw0LDEuOCw0LDRTMjg2LjMyOCwyMjAsMjg0LjEyOCwyMjB6JiMxMDsmIzk7JiM5OyYjOTsmIzk7IE0yNTYuMTI4LDE0Ni41MjhjOS4yODgtMy4zMTIsMTYtMTIuMTEyLDE2LTIyLjUyOGMwLTEzLjIzMi0xMC43NjgtMjQtMjQtMjRzLTI0LDEwLjc2OC0yNCwyNGMwLDEwLjQxNiw2LjcxMiwxOS4yMTYsMTYsMjIuNTI4JiMxMDsmIzk7JiM5OyYjOTsmIzk7VjE5NmgtMTZ2LTIxLjI0bC0zLjk5Mi0yLjMxMkMyMDIuODY0LDE2Mi40NCwxOTIuMTI4LDE0My44OCwxOTIuMTI4LDEyNGMwLTMwLjg3MiwyNS4xMjgtNTYsNTYtNTZzNTYsMjUuMTI4LDU2LDU2JiMxMDsmIzk7JiM5OyYjOTsmIzk7YzAsMTkuODcyLTEwLjczNiwzOC40NC0yOC4wMDgsNDguNDQ4bC0zLjk5MiwyLjMxMlYxOTZoLTE2VjE0Ni41Mjh6IE0yNDguMTI4LDEzMmMtNC40MTYsMC04LTMuNTg0LTgtOHMzLjU4NC04LDgtOCYjMTA7JiM5OyYjOTsmIzk7JiM5O2M0LjQxNiwwLDgsMy41ODQsOCw4UzI1Mi41NDQsMTMyLDI0OC4xMjgsMTMyeiBNMzM0LjY3MiwxMzguNjcyYy0yLjIxNiwxMy4yLTcuMjY0LDI1LjQtMTQuOTkyLDM2LjI0OGwtMy45Miw1LjUwNGwxMS40NCwxMS40NTYmIzEwOyYjOTsmIzk7JiM5OyYjOTtsLTExLjMxMiwxMS4zMTJsLTExLjQ1Ni0xMS40NTZsLTUuNTEyLDMuOTI4Yy0xLjQ2NCwxLjA0LTMuMDY0LDIuMDgtNC43NzYsMy4xMTJjLTEuODQ4LTEuMDgtMy44NDgtMS45NDQtNi4wMTYtMi4zODR2LTEyLjYmIzEwOyYjOTsmIzk7JiM5OyYjOTtjMTkuODQ4LTEzLjMwNCwzMi0zNS44MDgsMzItNTkuODA4YzAtMzkuNzA0LTMyLjI5Ni03Mi03Mi03MmMtMzkuNzA0LDAtNzIsMzIuMjk2LTcyLDcyYzAsMjMuOTkyLDEyLjE1Miw0Ni40OTYsMzIsNTkuOHYxMi42MDgmIzEwOyYjOTsmIzk7JiM5OyYjOTtjLTIuMjE2LDAuNDQ4LTQuMjU2LDEuMzM2LTYuMTQ0LDIuNDU2Yy0xLjc0NC0xLjA1Ni0zLjM5Mi0yLjExMi00Ljg5Ni0zLjE4NGwtNS41MTItMy45MjhsLTExLjQ1NiwxMS40NTZsLTExLjMxMi0xMS4zMTImIzEwOyYjOTsmIzk7JiM5OyYjOTtsMTEuNDQtMTEuNDU2bC0zLjkyLTUuNTA0Yy03LjcyOC0xMC44NDgtMTIuNzc2LTIzLjA0OC0xNC45OTItMzYuMjQ4TDE2MC4yLDEzMkgxNDR2LTE2aDE2LjJsMS4xMjgtNi42NzImIzEwOyYjOTsmIzk7JiM5OyYjOTtjMi4yMTYtMTMuMiw3LjI2NC0yNS40LDE0Ljk5Mi0zNi4yNDhsMy45Mi01LjUwNEwxNjguOCw1Ni4xMmwxMS4zMTItMTEuMzEybDExLjQ1NiwxMS40NGw1LjUwNC0zLjkyJiMxMDsmIzk7JiM5OyYjOTsmIzk7QzIwNy45Miw0NC42LDIyMC4xMiwzOS41NTIsMjMzLjMyLDM3LjMzNkwyNDAsMzYuMlYyMGgxNnYxNi4ybDYuNjcyLDEuMTI4YzEzLjIsMi4yMTYsMjUuNCw3LjI2NCwzNi4yNDgsMTQuOTkybDUuNTA0LDMuOTImIzEwOyYjOTsmIzk7JiM5OyYjOTtMMzE1Ljg4LDQ0LjhsMTEuMzEyLDExLjMxMmwtMTEuNDQsMTEuNDU2bDMuOTIsNS41MDRjNy43MjgsMTAuODQ4LDEyLjc3NiwyMy4wNDgsMTQuOTkyLDM2LjI0OEwzMzUuOCwxMTZIMzUydjE2aC0xNi4yJiMxMDsmIzk7JiM5OyYjOTsmIzk7TDMzNC42NzIsMTM4LjY3MnoiLz4mI3hhOwkJCTxyZWN0IGhlaWdodD0iMTYiIHdpZHRoPSIxNiIgeT0iMjc2IiB4PSIyNDAiLz4mI3hhOwkJCTxyZWN0IGhlaWdodD0iMTYiIHdpZHRoPSIxNiIgeT0iMzA4IiB4PSIyNDAiLz4mI3hhOwkJCTxyZWN0IGhlaWdodD0iMTYiIHdpZHRoPSIxNiIgeT0iMzQwIiB4PSIyNDAiLz4mI3hhOwkJCTxyZWN0IGhlaWdodD0iMTYiIHdpZHRoPSIxNiIgeT0iMzcyIiB4PSIyNDAiLz4mI3hhOwkJPC9nPiYjeGE7CTwvZz4mI3hhOzwvZz4mI3hhOzwvc3ZnPg==;" vertex="1" parent="1">
          <mxGeometry x="200" y="70" width="46" height="46" as="geometry" />
        </mxCell>
        <mxCell id="41DwftxlrVXNSMgh1K6p-5" value="" style="shape=image;verticalLabelPosition=bottom;labelBackgroundColor=default;verticalAlign=top;aspect=fixed;imageAspect=0;image=https://engineering.linkedin.com/content/dam/engineering/site-assets/images/blog/posts/2019/08/datahublogo.png;" vertex="1" parent="1">
          <mxGeometry x="110" y="870" width="55.09" height="50" as="geometry" />
        </mxCell>
        <mxCell id="41DwftxlrVXNSMgh1K6p-6" value="" style="shape=image;verticalLabelPosition=bottom;labelBackgroundColor=default;verticalAlign=top;aspect=fixed;imageAspect=0;image=data:image/png,iVBORw0KGgoAAAANSUhEUgAAAgAAAAIACAYAAAD0eNT6AAAABHNCSVQICAgIfAhkiAAAAAlwSFlzAAAOxAAADsQBlSsOGwAAABl0RVh0U29mdHdhcmUAd3d3Lmlua3NjYXBlLm9yZ5vuPBoAACAASURBVHic7d178G5Vfd/x949zOEePXATUcJGoNGI1U2u4GRFQ8B6jXLRjvIGKMY1a02nTTprOhI5T22nT5qJVxxjRAJpQYrioeEdAYlDxWulYjIAIyjXcjsIhcH79Y/+e4ceP32U/z7PX/q7L+zWz5pAJnr322ov1+e797Gc9C9RhL+DpwJOBJwFPBPYD9llq24CtS39KkvJ2+9Kf9wL3APcB/7DUblv68zrgx0t/XgfcNH43y7YQ3YEZPRU4DjgWOAI4MLY7kqRgdwJXLmvfAa4Atkd2KmelFACPAY7nwdDfL7Y7kqQCPEBXDFwO/B3wBeD60B5lJOcCYCvwUuAU4CXArrHdkSRV4PvA54HPAV+k+4ihSTkWAIcAbwZeBewd3BdJUr22A58GPg5cCNwd251x5VQAHA38R+BF0R2RJDXnXuB84CN0TwgeCO3NCHIoAF4E/D5wTHRHJEkCbgDOAP4MuDa2K+lEFgCHA+8BnhnYB0mS1vIAcAHwbuDi2K4ML6IA2At4F/BbwC4Bx5ckaVrfAf4bcDawM7gvgxizAFgAXg/8IfC4EY8rSdJQrqYrBE4H7g/uy1zGKgAOAM6k+w6/JEmlu4ruxfWPA4vBfZnJGAXA84CzgH1HOJYkSWP6GvC7wJejOzKtlJ/Bbwb+C93XKQx/SVKNjgAuoXs34IDgvkxlU6K/d3/gk8BryeOrhpIkpbIA/DLdJnY/p/sNguw/FkgRzgcDn6X7RT5JklpzBfAW4FvRHVnP0E8ADqXbW7moxyCSJA1of+BU4FF0Hw9k+bXBIZ8AHAucB+wx4N8pSVLJvkb3Ffirojuy0lAvAZ5E94MKhr8kSQ86AvgG8IbgfjzMEE8AjqUL/60D/F2SJNXqTLpdcLP4CeJ5C4DDgIuA3QfoiyRJtfsW8Eq6HQVDzVMAHAxcBjx2oL5IktSC24BX0L0gGGbWbwHsD3wJ3/aXJGla24DXANfR/chQiFkKgM10m/w8feC+SJLUik3AicDewOcI2DholgLgXXSViyRJms8zgV+ku7EetQiY9h2AFwOfIu1vCEiS1JrzgVcBO8Y64DQFwL50by/6wz6SJA3vQrpvCIzyNcG+d/ILwMcw/CVJSuXXgAuAR4xxsL4FwCl0G/5IkqR0nk/3cUDyzfX6fASwF/B94HGJ+yJJkjp/Q/dOwP2pDtDnWwB/BDw3VQckSdLDPBU4kO4jgSQ2egJwOHA5Zb31/zO6HQq/Cfw/uqcXtwC3L/3/oPuJxr3onmo8ZakdChxFt0FDKRbpfmjiiuiOSJrZNuATwHHRHUlsB/BD4AdL7e+BH9Gtyz+nW6PvWfpn6MZlG/DopT8fBTwBePKydhD1/w7NO4HTIg58OV3I5N5upHtScRSw6xznuwU4GvgT4KYMzqtP+8Ic5ysp1jbgi8SvIynaVcCHgJOBf0KaG8lNwC/Rvad2Ol1hEX3eQ7eddD8nPKoXDdDx1O0S4GV0uxMObVfg5cCXMzjPjdoLE5y/pLRqC/87gY/QfW6933DDNLX9gVcDZwB3ET8uQ7QdwHOGHKSNXJLgJIZqX6K7Ux/Lc8h7PL6e7tQlJVBL+N8DfJzuh21G+eralB4J/Au6F+ruJX685mm3Ak8cdHTWcPTIJ9a3/YS4bYgX6B7D3LhBH6Na7Z8fSrWoIfz/D3AqsOfAY5PSo4E3A98jfvxmbV9nhHcePpPBia5s59BdwGh70VWT0eOxsn065UlLGkTp4X8x3WY18/yUfLQF4NeBS4kfz1naB4YfkgcdksEJLm/3Am9NecIzWADeQfe5TPT4TNpO/IVGKWelhv9OupueZw4/JOGeBZxHd47R4zxNOznFYAC8L4OTm7S7yfsFt+PoXnyJHqdJe2/a05U0o21039iJXiOmbV8BjkwwHrk5jO7pRvR4923b6b4GOaitwG0ZnNwicDPdd/NzdzjdPgPR47VI9z3aR6Y9XUlTKvHO/0fACSkGI3OvAH5M/Pj3aX9Lv838pjr56JNapPvqRgnhP3E43dOK6HFbpPv6i6Q8lBb+9wN/DOyWYjAKsTvwp3RjEX09Nmq/P+SJn5fBCd1LmW+0v5A83gn4TOoTldRLaeH/Q+DZSUaiTEcBVxN/XdZr9wHPGOJkH7v0l0WfUG4v/E3jd4gfv/vI49sSUstKC//Tafuufy27021uFH191mtfZYBdFk/N4ETOmfckgi0A5xI/jlF7JUgqK/zvAd6UZhiq8ma6sYq+Xmu1t897gh8NPoGfUMed617E/47A2cnPUtJqSgr/64BfSTMMVTqUfF8QvJNuC+SZLNAFcOQJ1HTXejKxY3kHA78dKmlDJYX/FcwRGA07gO6XZqOv32rtY7Oe1FODO/6lWTueqQXid5ka5MUQSb2UFP6fovtpXc1mN7qdV6Ov48q2kxk3a3pbcMfH/GGfsRxL7JjO/ZmQpF5K2uTnAkbYS74BW+jeWYu+nivbV5hhm+a/DuzwJdN2tiCXETeuvgcgpVfSnf9ZpPnp9FZtJv7dudXaK6Y9kesCO/uyaTtbkOOJG9erRzg/qWUlhf+Z+F5QCpvpfg45+voub99nimu9V2BHb6TuinRXui2NI8b2Afxer5SK4a+JLeT3C7q9X6p/TmAn/6hvJwv2buLG9/ARzk9qjeGvlXYjr28HXEnPzYHeHNjJo/p0sHDPJW5835j+9KSmGP5aywHA9cRf90l7VZ9Ovyuoc9vpHp3Ubivwc2LG+J0jnJ/UCsNfGzmMfHYM/GafDke9xdjSj9Z8npgx/vMxTk5qgOGvvn6T+Dkwaces19FdgP2GOOMZfCPouBGuCDquO31J89sGfIIyfqX0LOANdC8BK8YHgTOiO7HkHRv9C98hpjI5eZjzK8IbiBnjb49wblLNvPPXLPYAriF+TtwPPGG9jka9tPCrPQeyBkcSM8bXjnBuUq0Mf83jaLonMdFz413rdfKOoE49oe8oVuAgYsb4pjFOTqpQSdv7/hV176dSsvcTPz+uZ53iMOoN9b2nGcXCPYaYMb5rjJOTKmP4ayh7A7cQP09esFYH7w/qUAtfAZzYSswY/+MYJydVxPDX0H6b+Lly1lqdi+pQaxxnKW8lfeZ/Bn7mX4pNwLeInS8/Y42fgDaYxuE4S/nyzl8pHQnsJHbevHK1jhlM43CcpTx5568xnE/s3PnYap0ymMbhOEv58c5fY3kmsfPnLuARKztlMI3DcZby4p2/xnYZsfPoxSs7ZDCNw3GW8uGdvyK8nNi59D9XdshgGofjLOXB8FeUBeB7xM2n767skME0DsdZiudjf0V7C3FzaicrfgDQYBqH4yzFMvyVg72AHcTNrdct74zBNA7HWYrjY3/lJPIrge9d3hGDaRyOsxTD8FdufoO4OfaN5R0xmMbhOEvjM/yVo23A3cTMs39k2bbABtM4HGdpXH7mr5x9lLj5dgzALslPUZLGtw24ADguuiM9nA28CXgguiMa1WcCj/30yT94ZzoOx1kah4/9VYIDiZt37590wmAah+MspWf4qyTXEDP3Lp10wGAah+MspWX4qzQfIWb+/cOkAwbTOBxnKR1f+FOJ3kTcPNyHwIO3xnGW0jD8VaqDiZuLhxB48NY4ztLwfOyvkm0iblvgE/waoKRSbQM+ATwvuiM9nAm8Frg/uiMBtgB7RHciUw/QvQgY4QkWAJJKNAn/Er7nfybwRtr8nv8W4Bzgc8CewX3J1Q+Cjvt48NH0WBxnaRg+9i/DFuBcHhyLK+h+CU8P9cfEzM3TCTpwi8HkOEvzM/zLsDL8J80i4OHeSsz8PJ+gA7cYTI6zNB/f9i/DFtb/udvL8eOA5X6dmDl6GUEHbjGYHGdpdoZ/GTYK/0mzCHjQc4iZp1cSdOAWg8lxlmbjY/8yrPXYf63mxwGdQ4mZq1cTdOAWg8lxlqZn+Jdh2vCfNIsAeAox8/V6gg7cYjA5ztJ0DP8yzBr+k9Z6EXAAMXP2ZoIO3GIwOc5Sf4Z/GeYN/0lruQjYg5h5eydBB24xmBxnqR/DvwxDhf+ktVoE7EnM3L2DoAO3GEyOs7Qxw78MQ4f/pLVYBPgRQAMcZ2l9hn8ZUoX/pLVWBPgSYAMcZ2lthn8ZUof/pLVUBBxGzDz2a4Ajcpyl1bnJTxn6bvIzVGtls6DnEDOX3QhoRI6z9HCGfxnGDv9Ja6EIiNoK+MsEHbjFYHKcpYfysX8Zxnrsv1ar/eOAtxEzrucRdODFQYatLI6z9CDDvwzR4T9pNRcBf0LMmH6IoAMvDjJsZXGcpY6P/csQ9dh/rVbrxwGfJGY8/5CgAy8OMmxlcZwl7/xLkcud/8pW45OAq4gZy3cQdODFQYatLI6zWmf4lyHX8J+0moqAzcAOYsbxeIIOvDjEyBXGcVbLfOxfhtwe+6/VLqfbQ790UZsALQK/QuDBW+M4q1WGfxlKCf/FpX5uSTMMozqVuDHch8CDt8ZxVot87F+G3B/7L2+fAramGYbRnUHMGN466UDURWyN46zWGP5lMPzjXEvMOF4y6UDUhWyN46yWGP5lMPzjHEjcWL5v0omoDrTGcVYrDP8yGP6xTiZuPN8+6URUB1rjOKsFvvBXBl/4i/eXxI3p0ZNORHWgNY6zauedfxm884/3KGA7MWN6H91/qxDUgcU5B69EjrNqZviXwfDPw2uIG9crlnck+iLb0jYptZLC/y8x/KOvQZ9Wc/gDfIK4sX3P8o5EX2hb2ial5Gf+ZfAz/3zsTdz2v4vAa5d3Jvpi29I2KRXDvwyGf15+i7jx3Qnsu7wz0RfclrZJKfjYvww+9s/LAnAlcWP8nZUdir7otrRNGprhXwbDPz8nEDvO/2Nlh6IvvC1tk4bkY/8y+Ng/T18hdqxftLJD0RfflrZJQ/HOvwze+efpGGLH+g5WKbSiJ4AtbZOG4J1/Gbzzz9cniR3vs1brVPQksKVt0ry88y+Dd/75OoruDfzIMT9xtY5FTwRb2ibNwzv/Mnjnn69NdG/fR475dpZt/7tc9GSwpW3SrLzzL4N3/nl7O/HjfsZanYvumC1tk2Zh+JfB8M/b3sCtxI/989bqYHTHbGmbNC3DvwyGf/4+QPzY/5h1PhqL7pwtbZOm4Wf+ZfAz//w9B3iA+PH/z+t1MrpztrRN6ss7/zJ455+/PYFriR//+4EnrdfR6A7a0japD+/8y+CdfxnOIn78F4FzNupodAdtaZu0Ee/8y+CdfxneSvz4T9qzN+psdAdtaZu0Hu/8y+CdfxkOB+4l/hosAlf06XB0J21pm7QW7/zL4J1/Gfane+M++hpM2iv7dDq6k7a0TVqN4V8Gw78MuwPfIv4aTNqVwC59Oh7dUVvaJq3kY/8y+Ni/DFuBzxJ/DZa33+jb+eiO2tI2aTnDvwyGfxk2A39D/DVY3v4vPe/+yaCztrRNmjD8y2D4l2ET+Xzdb3lb9Vf/1hLdWVvaJoGf+ZfCz/zLsAn4C+Kvwcp2ybQnEt1hW9omGf5lMPzLkGv476T7GuJUojttS9vUNh/7l8HH/mXYBJxJ/DVYrZ01ywlFd9qWtqld3vmXwTv/MuR6578I3AkcMMtJRXfclrapTYZ/GQz/MuQc/ovAb896YtEdt6Vtao/hXwbDvwy5h//XmOOjs+jO29I2tcXP/MvgZ/5lyPkz/0VgB/DPk529BhM1QdQO7/zL4J1/GXK/818Efi/Z2WtQURNEbTD8y2D4l6GE8L+Mdp+gFSdqkqh+hn8ZDP8ylBD+dwO/lGoANLyoiaK6+Zl/GfzMvwy5f+Y/aa9LNQBKI2qiqF7e+ZfBO/8ylHDnvwi8N9UAKJ2oyaI6Gf5lMPzLUEr4f5V2r1HRoiaM6uNj/zL42L8Mm+jmafQ12KjdAvxiojFQYlGTRnXxzr8M3vmXoZQ7/x3AsYnGQCOImjiqh+FfBsO/DKWE/07g9YnGQCOJmjyqg+FfBsO/DKWE/yLwB4nGQCOKmjwqn5/5l8HP/MtQymf+i8CfAwtphkFjippAKpt3/mXwzr8MJd35f5x2/3uqTtQkUrkM/zIY/mUoKfw/S7vXqUpRE0ll8rF/GXzsX4aSHvt/AXhEmmFQlKjJpPJ4518G7/zLUNKd/6XAbmmGQZGiJpTKYviXwfAvQ0nhfwmGf7WiJpXKYfiXwfAvg+GvbERNLJXBz/zL4Gf+ZSjpM/9Fuv/+VbGoiaX8eedfBu/8y1DSnb/rdCOcWFqN4V8Gw78MJYa/63QDnFhayfAvg+FfhlLD33W6AU4sLWf4l8HwL0PJ4e863QAnlpZ7IfGLTp/mC3/x16BP84W/+GswT1PlnFha7qnELzobNe/8469Bn+adf/w1mLepck4sLbc78YvOes3wj78GfZrhH38NhmiqnBNLK91B/MKzWjP8469Bn2b4x18D12n14sTSSt8jfuFZ2Qz/+GvQpxn+8dfAdVq9ObG00qeJX3iWN8M//hr0aYZ//DVwndZUnFha6YPELzyTZvjHX4M+zfCPvwau05qaE0srnUb8wrOI4W/456/m8F8ccJyUKSeWVnoT8QuP4R9/Dfo0wz/+GrhOa2ZOLK0UvRmQ4R+/8Pdphn/8NXCd1lycWFopcjMgwz9+0e/TDP/4a+A6rbk5sbRS5GZAB41wfjlye98y1LC97zRNlXNiaTVRmwEdM8bJZcY7/zK0dOc/aaqcE0uridoM6DVjnFxGDP8ytBj+i4OM3Ax2iTqwJAB+HHTcA4OOG2ELcDZwQnRHergQOAnYEd2RAJuA04GTozvSCgsAKdb1Qcc9IOi4YzP8y2D4B7AAkGJFFQAtPAEw/Mtg+Kt6TX22pN6iNgP6+hgnF8jP/MvQ6mf+K5sq58TSaqI2A7pxjJMLYviXwfB/sKlyTiyt5mnEzIud1Bk8hn8ZDP+HNlXOiaXVRG4G9KQRzm9Mhn8ZDP+HN1XOiaW1uBnQ/Az/Mhj+qzdVzomltbgZ0HwM/zIY/mu3EH4NUIrnZkCz86t+ZfCrfhmyAJDiuRnQbAz/Mhj+mbIAkOK5GdD0tgDnUEb4XwCcSLvh/2HKCP+LojugejX12ZKm4mZA0/Ez/zKU9Jn/JcBugcdX5ZxYWoubAfVn+JehxPAnsA+qnBNLa3EzoH4M/zKUGv4E9kOVc2JpLW4GtDHDvwwlhz+BfVHlnFhaj5sBrc3wL0Pp4U9gf1Q5J5bW42ZAqzP8y1BD+BPYJ1XOiaX1fJqY+fHvxzi5GRn+Zagl/AnslyrnxNJ6PkjM/Hj3GCc3A8O/DDWFP4F9U+WcWFrPacTMj3PHOLkpGf5lqC38CeyfKufE0nrcDKhj+JehxvAnsI+qnBNL63EzIMO/FLWGP4H9VOWcWFpP65sBGf5lqDn8CeyrKufE0npa3gzI8C9D7eFPYH9VOSeWNtLiZkCGfxlaCH8C+6zKObG0kdY2AzL8y9BK+BPYb1XOiaWNtLQZkOFfhpbCn8C+q3JOLG2klc2ADP8ytBb+BPZflXNiaSOnETNHxtwMyPAvQ4vhT+A5qHJOLG2k9s2ADP8ytBr+BJ6HKufE0kZq3gzI8C9Dy+FP4Lmock4sbaTWzYAM/zK0Hv4Eno8q58TSRmrcDMjwL4Ph34k6J1XOiaU+atoMyPAvg+H/oKjzUuWcWOqjls2ADP8yGP4PFXVuqpwTS33UsBmQ4V8Gw//hos5PlXNiqY/SNwMy/Mtg+K8u6hxVOSeW+jiNmHkyxGZAhn8ZDP+1RZ2nKufEUh+nEjNP5t0MyPAvg+G/vqhzVeWcWOqjxM2ADP8yGP4bizpfVc6JpT5K2wzI8C+D4d9P1Dmrck4s9VHSZkCGfxkM//6izluVc2Kpr6jNgI6eoo+GfxkM/+lEnbsq58RSX7lvBmT4l8Hwn17U+atyTiz1lfNmQIZ/GQz/2USNgSrnxFJfuW4GZPiXwfCfXdQ4qHJOLPV1GjFzZb3NgAz/Mhj+84kaC1XOiaW+ctsMyPAvg+E/v6jxUOWcWOorp82ADP8yGP7DiBoTVc6Jpb5y2QzI8C+D4T+cqHFR5ZxY6iuHzYAM/zIY/sOKGhtVzomlaURuBmT4l8HwH17U+KhyTixNI2ozoFMw/Etg+KcRNUaqnBNL04jaDOj2oONO286ne1LRok3AGcRfgz7ti8C2NMOQRNQ4qXJOLE0jajOgEpp3/vHXoE8r6c5/ImqsQuwSdWBJ67o+ugOZuhA4CdgR3ZEAm4DTgZOjO9LDpcBLge3RHZFy0FRlqblFbQaUc/POP/4a9Gkl3vlPRI2ZKufE0jSiNgPKtRn+8degTys5/CFu3FQ5J5amEbUZUI7N8I+/Bn1a6eEPcWOnyjmxNI3IzYByaoZ//DXo02oIf4gbP1XOiaVpRW0GlEsz/OOvQZ9WS/hD3Biqck4sTStqM6AcmuEffw36tJrCH+LGUZVzYmlaUZsBRTfDP/4a9Gm1hT/EjaUq58TStFrcDMjwj78GfVqN4Q9x4xnCjYCkfLW2GZCb/LjJj1SlpipLDaKlzYC884+/Bn1arXf+E1Hjqso5sTStVjYDMvzjr0GfVnv4g+u0EnFiaVotbAZk+Mdfgz6thfAH12kl4sTStGrfDMjwj78GfVor4Q+u00rEiaVZ1LoZkOEffw36tJbCH1ynlYgTS7OocTMgwz/+GvRprYU/uE4rESeWZlHbZkCGf/w16NNaDH9wnVYiTizNoqbNgAz/+GvQp7Ua/uA6rUScWJrFacQHwhDN8I+/Bn1ay+EPja3T7gQo5e3H0R0YwO3AOcARwJOALbHdGdUm4MOUscPfRcBLcIe/ZmyO7oCkddWwHfBedCG43O3AT4GfAFev8s/XAj8br4tJTLb3fX10R3q4FDge+Hl0RzSehegONCTqMY/XuGxPA66M7kSQkosE9/YvU1PrtOEwnqYmlgazO3BXdCcylmORYPiXq6l12nAYT1MTS4O6A9gzuhMFG7NIMPzL1tQ6bTiMp6mJpUF9D/jl6E5UbogiwfAvX1PrtC8BSnlr6Y35SHsttaet8+/cSPdS5g3AdSv++QbgP1HGC38XAS/DF/6a593heJqqLDWIXYH/DZwQ3RFVwzv/9TW1TrsPgJQnw19DM/z1EBYAUn4Mfw3N8NfDWABIeTH8NTTDX6uyAJDyYfhraIa/1mQBIOXB8NfQDH+tywJAimf4a2iGvzZkASDFMvw1NMNfvVgASHEMfw3N8FdvFgBSDMNfQzP8NRULAGl8hr+GZvhrahYA0rgMfw3N8NdMLACk8Rj+Gprhr5lZAEjjMPw1NMNfc7EAkNIz/DU0w19zswCQ0jL8NTTDX4OwAJDSMfw1NMNfg7EAkNIw/DU0w1+DsgCQhmf4a2iGvwZnASANy/DX0Ax/JbE5ugNSRbbQhf/x0R3p4cqlPw8E9ojsiNZ1EfAy4OfRHVF9LACkYewKnE0Z4X8hcBKwY+n/fgSw/1LbDzhojX/WuC6lm0+Gv5JYiO5AQxaDjus1Tq+kx/4rw78vi4Rx+dg/RlPrtOEwnqYmVkNaCP++LBKGYfjHaWqdNhzG09TEaoThPz2LhPUZ/rGaWqcNh/E0NbEaYPin02qRYPjHa2qdNhzG09TEqpzhH6+2IsHwz0NT67ThMJ6mJlbFDP9ylFIkGP75aGqdNhzG09TEqpThX5/oIsHwz0tT67ThMJ6mJlaFDP92pSoSDP/8NLVOGw7jaWpiVcbw10amLRIM/zy5TiuJxaCm+WwBziPu+k3Tzlvqr/K0G/A04IXAtuC+aHWu00rCiVWeXYFziQ/2Pu1TwNY0wyA1w3VaSTixymL4S+1xnVYSTqxyGP5Sm1ynlYQTqwyGv9Qu12kl4cTKn+Evtc11Wkk4sfJm+EtynVYSTqx8Gf6SwHVaiTix8rQFw19Sx3VaSTix8mP4S1rOdVpJOLHyYvhLWsl1Wkk4sfJh+Etajeu0knBi5cHwl7QW12kl4cSKZ/hLWo/rtJJwYsUy/CVtxHVaSTix4hj+kvpwnVYSTqwYhr+kvlynlYQTa3yGv6RpuE4rCSfWuAx/SdNynVYSTqzxGP6SZuE6rSScWOMw/CXNynVaSTix0jP8Jc3DdVpJOLHSMvwlzct1Wkk4sdIx/CUNwXVaSTix0jD8JQ3FdVpJOLGGZ/hLGpLrtJJwYg3L8Jc0NNdpJeHEGo7hLykF12kl4cQahuEvKRXXaSXhxJqf4S8pJddpJeHEmo/hLyk112kl4cSaneEvaQyu00rCiTUbw1/SWFynlYQTa3qGv6QxuU4rCSfWdAx/SWNznVYSTqz+DH9JEVynlYQTqx/DX1IU12kl4cTamOEvKZLrtJJwYq3P8JcUzXVaSTix1mb4S8qB67SScGKtzvCXlAvXaSXhxHo4w19STppapzdHHVjN2wKcDZwQ3ZEeLgROAnZEd6SnPwMOiu6EBnML8OqgY38EeHzAcU8Bbgg4rpREU5XlBrzzT+u7xI+bbbh2PXGuWqdfKdvBY5zcKqKucYhdog6sZnnnL0kZsADQmAx/ScqEBYDGYvhLUkYsADQGw1+SMmMBoDG8mzLC/3zgRAx/SQ2wANAY/itwbXQnNnAh8CrgvuiOSNIYLAA0hh8BzyXfIsDH/pKaYwGgseRaBBj+kppkAaAx5VYEGP6SmmUBoLHlUgQY/pKaZgGgCNFFgOEvqXkWAIoSVQQY/pKEBYBijV0EGP6StMQCQNHGKgIMf0laxgJAOUhdBBj+krSCBYBykaoIMPwlaRUWAMrJ0EWA4S9Ja7AAUG6GKgIMf0lahwWAcjRvEWD4S9IGLACUq1mLAMNfknqwAFDOpi0CDH9J6skCQLnrWwQY/pI0BQsAlWCjIsDwl6QpWQCoFGsVAYa/JM3AAkAlWVkEGP6SNCMLAJXmR8DzgQ8AJ2L4S9JMNkd3QJrBD4F/Gd0JSSqZTwAkSWqQTwCk+vwmsHt0JzSYewOPfQrwqIDjXh9wzOYsRHegIYtBx/UaS1I/Ta3TfgQgSVKD1lIswwAACMxJREFULAAkSWqQBYAkSQ2yAJAkqUEWAJIkNcgCQJKkBlkASJLUIAsASZIaZAEgSVKDLAAkSWqQBYAkSQ2yAJAkqUEWAJIkNcgCQJKkBlkASJLUIAsASZIaZAEgSVKDLAAkSWqQBYAkSQ2yAJAkqUEWAJIkNcgCQJKkBlkASJLUIAsASZIaZAEgSVKDLAAkSWqQBYAkSQ2yAJAkqUEWAJIkNWhzdAekgS1Gd0CSphSybvkEQJKkBlkASJLUIAsASZIaZAEgSVKDLAAkSWqQBYAkSQ2yAJAkqUEWAJIkNcgCQJKkBlkASJLUIAsASZIaZAEgSVKDLAAkSWqQBYAkSQ2yAJAkqUEWAJIkNcgCQJKkBlkASJLUIAsASZIaZAEgSVKDLAAkSWqQBYAkSQ2yAJAkqUEWAJIkNcgCQJKkBlkASJLUIAsASZIaZAEgSVKDLAAkSWrQ5ugOSJVYiO6ApGItRhzUJwCSJDXIAkCSpAZZAEiS1CALAEmSGmQBIElSgywAJElqkAWAJEkNsgCQJKlBFgCSJDXIAkCSpAZZAEiS1CALAEmSGmQBIElSgywAJElqkAWAJEkNsgCQJKlBFgCSJDXIAkCSpAZZAEiS1CALAEmSGmQBIElSgywAJElqkAWAJEkNsgCQJKlBFgCSJDXIAkCSpAZZAEiS1CALAEmSGmQBIElSgywAxvNA0HG3BB03wtag494fdFxJ5Ytatx6wABjPfUHH3S3ouBF2DzruPUHHlVS+qHVrhwXAeKIKgKjJFWGPoONaAEiaVdS6ZQEwou1Bx90v6LgR9g06rgWApFlFrVvbLQDGc1vQcZ8SdNwIUed6R9BxJZUvat26zQJgPLcGHffgoONGiPoP6Yag40oqX9S6dYsFwHhuDDruYUHHjXBo0HGjrq2k8kWtWzdZAIzn2qDjHkXc10zGtBV4dtCxfQIgaRaR69bVFgDjuSbouNuAI4KOPaYjgUcGHfvaoONKKlvoumUBMJ6rAo/9isBjj+WkwGNfGXhsSeWKXLciM6k5jwZ2AosB7SZg1/SnGGZX4BZixnYnbe21IGkY0evWHj4BGM8dwPVBx34c8JKgY4/hpcBjgo79I+DuoGNLKlf0unWXBcC4vhp47H8XeOzUIs/tisBjSypX5Lr1NfDHgMZ2ceCxjwKOCTx+Ks+je5EmypcDjy2pTNHr1kWBx27WPyXm855JuwRYSH6W41kA/pbYMT0k+VlKqkkO69aTk5+lVnUDsRf+9elPcTRvJHYs7wQ2JT9LSTWJXreuS3+KWstZxF78G4G9kp9levsANxM7luckP0tJNclh3fqLSWd8B2B80Z+9/ALwIcr+KGAB+DDw2OB+nB98fEnlyGXd+mLw8Zu2N3AvsRXgIvCO1Cea0O8SP373UceTFEnjyGHd2kH3FEKBziWPifCC1CeawEvowjd6/D6X+kQlVSOXdeuvU5+oNnYS8RNhEfgZ8KzE5zqkw+k23Yket0XgtYnPVVIdclq3Xp74XNXDVuA24ifDIt1WlIenPd1BHAHcSvx4LdLt6hj1Ax6SypHTunULsCXt6aqv9xE/ISZtO/DitKc7l+cDdxE/TpP2/rSnK6kCua1b70l7uprGIcRPiOVtB/A75PXtgAXg35LHZ2fL2zNSnrSkouW4bu3EdSs7nyZ+Yqxs55LH2+37ABcQPx4rmy//SVpLruvWp1KetGbzLOInxmrtNuAtxDwNWABOpvsJ4+hxWK09P92pSypU7uvWs9OduuZxMfGTY612KfDcVCe+iuOI3yN7vfaNdKcuqVC5r1tu/JOxFxA/QTZqlwHHA7smOP8twAnk/R/QpL0kwflLKk9J69ZxicZAA/kK8ZOkT7sZeDfdU4Gtc5zvI4Bj6d5KvSWD8+rTLp7jfCWVr8R1a92fK8/pje+WHQp8lbJ+We4euur3CuAq4Pt0n3/dQfe1QoDdgT2Bfel+CvlgunN9NmV9j36R7re7L4/uiKSktlDPuvUA3R4v31rrX7AAyMf/At4W3QlJUhX+FPjX6/0LFgD52IPuLnq/6I5Ikop2E93TizvW+5f8OeB83AX8XnQnJEnF+zdsEP7gE4DcLACfB54X3RFJUpE+D7yI7t2ldVkA5OcXgG/TvYAiSVJfN9Nt+fvTPv+yHwHk5ybgNXRvcEqS1MdO4HX0DH8o62tnLbmW7usoxwT3Q5JUhncCp0/zP/AjgHztQvdZjrs4SZLWcwndu2NTPTm2AMjbvnSb7RwU3RFJUpb+nm6Topun/R/6DkDebgReuPSnJEnL3QK8lBnCHywASvBDuq90bPidTklSM+4CXky3FftMLADK8F3gRGBHdEckSeHuA14JfHOev8QCoBwXA6/GIkCSWrYDeBXdS+Jz8SXA8jwXOJ/utwMkSe3YDrwC+NwQf5kFQJn+GfAZYP/ojkiSRnET8GvM+dh/OQuAcj0J+Czw5OiOSJKSuobuZfAfDPmX+g5Aua6h2ynwkuiOSJKS+RLwqwwc/uBWwKXbDpxJ96tPR2NBJ0m1WAT+O/AGurV+cH4EUI9jgY8C+0V3RJI0l1uA19N9zJuMd4z1+BJwKPCF6I5Ikmb2eeDpJA5/sACozU+BFwAvB64P7oskqb8bgVPoXvYbZft33wGo01V0Pwu5DTgMCz1JytVO4IPA8cDXxjyw7wDU7xDgPcCR0R2RJD3EZcC/Ar4dcXDvDOv3Tbqfijwa+GRwXyRJ3c+8v5xuXQ4Jf/AJQIuOBP4D3U9Iev0laTxfAP4A+LvojoAB0LJnAKfS/cDQPsF9kaRa3Qr8FfAhAu/2V2MBoE10ewicTPcjE9tiuyNJxdtB93W+M+h+vO2+2O6szgJAy+0NvAw4bqk9PrY7klSM64GLgC8CnwBuj+3OxiwAtJ6DebAYOBx4YmhvJCkf19J9be+ipTb4Xv2pWQBoGnvS/RTxk+l+jfCJdD9J/Bi69wgeBWwGdg/qnyTN627gfrr9929baj+hC/xr6PZZ+R5wZ1D/BvP/AeRTvIAwps51AAAAAElFTkSuQmCC;" vertex="1" parent="1">
          <mxGeometry x="365" y="868" width="52" height="52" as="geometry" />
        </mxCell>
        <mxCell id="41DwftxlrVXNSMgh1K6p-7" value="" style="shape=image;verticalLabelPosition=bottom;labelBackgroundColor=default;verticalAlign=top;aspect=fixed;imageAspect=0;image=data:image/png,iVBORw0KGgoAAAANSUhEUgAAAVYAAAFJCAMAAAD38fX/AAAAJ1BMVEVHcEwYRlIUQVQUQVUVQlUVQlUUQVQWQ1cUQlUUQVQUQlUUQVQUQVRVVbOMAAAADHRSTlMAB+2tKnfHF1jZR5Eq2EgYAAAOxElEQVR42u2d2XbjIAxAw77l/7934qSdGhvMYnDAEumZt2maG1kSWh8PPHi+eZTNPgRpZVNlNPcYjriyqT6zD0WsHagi1i5UEWsXqog17/Ayqoi1C1XE2oUqYu1CFbF2oYpYi6lSEzsUsVZTNYJzG3xxQRFrrazqaBCFaMRaK6v6IDRlEWsHqg+U1uYaAKW1k6yitPahitLahSpKaw5VWUoVpbWGavr/oLR2kFWU1j5UUVpLqdqs/4bS2oMqSuvRIbVUUVp7yCpKaxdZRWntIqsorV1kFaU1DuYMVZTWLlRRWrtQRWnNoiqjVJUWocMQ6xmqO3fhByWWX5yiGsGKVS3nqCLWamvFH4j1WllFrLlUTRFVxFpHNcUEsfagili7UEWsXahmYH1ypFpK1cNqZPAoyFBJFVUPq3iQ0EFZLaa6wYqnDVXEenh0JVUPq0aOjaiitBZQZfk+EWLtIKuItYusom7tQxWltQtV0FiJWg5//+tfekg+VcV54Gft78LBSrjVQjjH2Pt6zhhzQmv+H24+VeKCF/51L7YGglQ75n3u//3qkjnNSZEGIOlRAgLAY29diOiaLROiQK8i1oXpIdLIYUchvAyst1YCxApZwTTlA8CWVmKZeT7bUwWNVVlGn5VUE0F8uEqA1ENNUoUrrdxVQ01ThYpVCfPsSBUm1tfzn57zdYaqjzU8V/h2upUciOr7TuWEEEvdtAvdu1xOynmNVerAEfpuBQE8ZqqodNpyL7xCFLfarT1blpXIX2NlDwBZa2LDhebG/cRUNp+ZvNkK9iO1Lq88wscKIKKiQwrgdeNXJBWJWW4OmVShYSUioACMyJr2T7gQuaU8sLCqgLNqBG+v60BhVS4AVfUwIJCw7qlS18nNAYR1R5XKbhtU4GAlO6qiXy0pGKw7H0Dqjl45GKyansrwx+9swebg9fX4zlg3FanUtVIAIh3wui/VTS8EFc0UAGSsGyegIVXIWDfmirY0VoCx+oq1paxCxuqvrGpLFTBWXwW4tpcAsFi5Kc1EnfGHoWD1vYDmCz+Jg4nVeoN72uc7k8sGb4nVz9i7DnEA388wbHtuWb7i6T7ZJbzqmUSmdufuwtqp5MFTA+9BeGT1un/gynX6kJ4acAB61z03oN/a72veZVCfVZBr3ub2VIm4Roy897n/XBAlLxHWTTz39h1X66tAV53niSu7u9FamxLX9ws0cIzWWgdQ2/e92Dr0CEcHyM5P5tpBvrkWcBe6Pcr0viMPowPYhbP71gFCemtfYO2ks+7OpIVyI1irO3GzL/GLR1znB2zCD3dWruTiz3nttziE13qFy6NhTAxZKzt38fuJ+3qu/OJ7z9qfu/GFwF7tSDIIwUGirw5+rEykuS9WcbXwrF2B+2J118VZdq7Afefce1ivUeYUgON6fbMJYu2N9YlY2znKiLUz1vtGXFEJdMeKnsA9/NYnR6x4Hai8Sx5f0ZfZzXoZ1XT2DSmAy+sjM9RCrJM/5en6HAwQoZbMwKByJn/z5fEBERj0vPNoGJv7fSrmRDvs1Umeb2HNSLrwbffPCT/e29VwX6wZSZBAr5qp1gMWRopwzSxis0KdldU9sUAS2t7n1KmL2Gkk64fj1hWu66cyqOxscI5rpV4EUyy0tiHBDxpuWq90juzz2rKEIYItwdtkGGulKw+mENPDJo5JnF5jreA0D3hF7ioba5W0AipyT7VkNFQCnlNx9z5Cd9ziGx4IUmPGydoPoHfvevXa3eyhT3RO1rzr2u3b3bzmzL24BuesVNkb7wu6/zq8RCtxSFyrhPWiluURo1ghcd1r16oLEgc2p8F7zAPOgNoNy+Ud3uWGRssc25IN17phud5MKAZgqEh6BM56G5mpm5atLhizM7KPFX7El22k0kjJRKWtEeCENXO8mOKcV6918OwVCM36/tR5w/CqhcwfhgdEWLc+v7Fz/fqBxVX2GIwf9nwdAYN1E1FpOxbXz9tIDofqdhRoQ67Ev/0Cca7CV/+Gw7E36wwgqYC9AmzGdUMVlArYm+tWu4c2VAF5Af8JsPYrXex2ockD3tlWWpxe67ZbwQlMsYZiA4v/eu6R3UUUmYJIdb+G7Ewp636zMThzFeVarwiI3m42Bkt1k3D62ZtX9eTy3bZYgE7AH9Z9opWy8t2Zar8vHjLVoB54Gle2k1jpfU2shE31Ja+BFdrG5UvsCypFqslr7H+wWTqWiwDU1pHGSblaGSoSlKn95ERZZ0IlW04h1MA99s96CRtBSxTXTgbL4HpuNp5MXpWLbA6j0olN6+uLqNWOmcjOpq6bjedTsDK63IoumW3mnBDCOceYNPHtbd32xc/Klbvkqrv0MSiqJQKbdxZRRawBb8mcocpQVNtrAqnRAYgf62ok9uXkItSUxJbqWMpQUnPAhq758ac/856L56G4kDlk6TLMBQ1VkcwKdoj2dUtwyLSKrBUuyNZI5jTHZ/9EuIBzq8VyaWXLHZa97rBLkEB9wfFfKpnrzpAPFXmQ5aj3i3zrL1QvpWTqXi91ZcfUVl//qzg7d7EWaAVCssrOBiw0Qgzc/k7H1yRa2L0OcqeDlhQjwXus7HwwGLPBXbCickWsiBWx4oljpSUHseZiZTb/rMvuNak+ELCKd5Qi6+UN/FkCRdVnKZOwXN2M8AZr/p1XPpudl0ox0gl+oxjzCFj/6qf0XdJMA2H9LA4QnCDWLmRvkG4eD+uiDTRHrD2OFByxdpHYqct5RsVa13CFWDPrTxFrDxU7awlqC6xLlX7tWar7DaXxvK4Ci/VEBOtTJ7EU+cQaJ+ZsRfsy1vef8PmFVoSbfMyMlmsArH9/S7hQdcZ2lJGw/vRP3qFwZiysb5Hdg53PcA2H9REaTTGdvA6IlbzMl5yc64jS+ggMU6Jz2a1Bse6HBsxVmDgq1kXDTjykZlysj+3QgJmGqg2MdTdFaKIRgCNj3c5WnGhg5dBYt1OE5lkMNDbWrR4YaAYQIUrFa3EGx7rhOoiX9W5XdO9eukhv4uhYX/7AaGMriV6P0zIsFLAYHutmfPXXlwXvh+mFksTjY/WHNxtd1ULayDUjSoc6lanchtonwOpvXTLFZ+kofunABmS5kJm9lDNgbVGIT0+Xdh1PL9kMlp8B626G+xcKZULR9Q1XMhtWIr5cd6BsejKUpwemwLpdZnGmUKZCYFXeiJ21Uz0H1oegrbgW1x2o7LlFK6d6EqwNa5OKbhQkc2TRNsQ2CdbIZvfOXMmBR7UMgXGbSbt/oaBZsLYspcuMhx8Y/9+5b8v1ICius2B9iHZYaU48nMSnFxq2asjxZrL8fxCmwcolpabqZ1+PmA6EKRu1U9s1B97eOT0bVsJt5dF6VzSXUK8Hxn8/L94Ltf8+B9NgPaeZtxN0jz6qihv/pVNkp0DWQ4R+vy8YWB+E+HOpjCr3qKiMjCgU+7k1QLAuRpuls40kPhf6YOjrWrtaYFg3E79Ci7IPjD89GvpK9iwAYfWkap/EJUfG/7gifM8QEFbiBcJ0tvFPL45ioKXVE1eX71Elvy/YSoB4E1T+wiJHHlVGUzOBbbJ8V+g3MJAw/qTst4JzsD5xsK3jfmT8c7dorGPsv2MsgWGlHtajcEr2vF9v+CWsy2sQK7EnjP/qqktnDrU0VwKCRS+p+fNiNltl5gsMNjmr55XG0975WRm1yR78JwgKazrFULTuhWwXxs6XdGlyUgOrKSuYwxVQzX8AIWFNTFcvWcK7OBH0IEcGCethsUER1Ecoe7jucAKEVR8UUZmiYXEqdDHz+vPhhLHjVJeatxKowd2SfvcoFKzxrYWUFRUShvbFv2XV/xKHxEraHqWdbOFRxWPd25ldI2IlgjU98bXERR7VcqcKQzU7eR8Rq2pQfZ01e7NsfVJs/Slle3MHF6spnBQbicuGZ/ZBxSoLoapw7SCNbOEFiTVaSHHgU9FwTiaimgFiLd6eG6tzM3HPDBxW6gqhkkg7hjma1wkMKy3dnRg1/8f5A1BYC3IpNeYfJtbyedsR8/9M52RhYKWmous1HFI5MP+jX1710kXS7kfrih5tUm7+J4hgLZuF2/x8yqdJI6iZ47phZV7zzb8550cg1nyoBRP7EesWiBKnoSLWlua/NdbbrA8jkfLh4gEPLbDeZslV1Kcq/niNtmRQpmcnWxVS6Yx1fpk97VN1wvqZ3jMp2SbmvxPWj8xOSDZi/qmsnvHUYQORcXORjRRUPE/Nd+qy2Ek6PcvS1gPzf+a3dtqX9Z6SNj7ZyuD/17C+yY6uDUoKKobB+qsNxvWpGpv/67B+VjgPqQ1iGRXZQhCaXF4NTWkDOxrZ4oKK67FqHlnM5mmDkbaOx8x/s+WyjQKDiovUJD46DNmD23+rZ6pdvDWX7Le1QTyj0tBtaRrGJmltQKX4LtmO5j+ClensY9cNDtp7wNIyy8TXtEGsnpI1DsWvsdKSczD2xCaHc5qXzH5BZBtlVAqx1p59Lkulx54uLbvXyuy5gooRsC69KtbJkbTB2YKKMbDmaoOrUgrRkEofZdQT63sdrsiQ2e5kGxRUXI/1cEngsmg4TVb31LNKXAx1M8ClssoxqZyWLr6vaYPrzP/62NOzvGXGn0e4dunAdwey8YKKviuiTtfo5q4Ge68dT4W6GicYGxZUFKvzc1xL1jCTHG3QLqUQC/4bd4X3oQST1ae8cySpDd5kZzT/+0tR7amJmixkTVLPnk0pfMH8fz/iqTRLpxROaIP2BRVzcF1kNiOlUEe2R0HFRGzTZGlF6rZPQcVUR73IUtoypdCroGI2kSWZCcbMYaqxggoLCeqvhGUka3ISjNHgP0Co7160FgnG2ODwm5v/pJ7NSSnEyEb/N2yo+dpgT3ZZFR6RdSPAQ32rA5WRupVMaPu64qnX9dBq4VhMyg0s85+4gmXsVaT0d5dz3D+jCHXjdGUkGNOTbixCDdigc2SZRqhRsqKSLJr/hJ6tkVk0/x20AXUcoeXJbDqlgJaq7qKQTDB+HFWLz3+FzNKrM+IgDo+RXW5eyPSUNtBiPZeZGsnc6y6LTM+rg0804PWy79jAYEj/AQ3zXuq4PFkHAAAAAElFTkSuQmCC;" vertex="1" parent="1">
          <mxGeometry x="175.43" y="868" width="50.94" height="49" as="geometry" />
        </mxCell>
        <mxCell id="41DwftxlrVXNSMgh1K6p-8" value="" style="shape=image;verticalLabelPosition=bottom;labelBackgroundColor=default;verticalAlign=top;aspect=fixed;imageAspect=0;image=data:image/png,iVBORw0KGgoAAAANSUhEUgAAAgAAAAIACAYAAAD0eNT6AAAABHNCSVQICAgIfAhkiAAAAAlwSFlzAAAOxAAADsQBlSsOGwAAABl0RVh0U29mdHdhcmUAd3d3Lmlua3NjYXBlLm9yZ5vuPBoAACAASURBVHic7d13mF1VufjxbyaThCChBAgdgnSkCag0UUCkqShSBKSISFHs/i6Klwt2sCF49QcKgoiISFEUkY40qRJ6k5bQCQRICOlz/1hnZBgnkzkzZ593772+n+dZjw8qed+1zsk+71577bVAkiRJkiRJkiRJkiRJkiRJkiRJkiRJkiRJkiRJkiRJkiRJkiRJkiRJkiRJkiRJkiRJkiRJkiRJkiRJkiRJkiRJkiRJkiRJkiRJkiRJkiRJkiRJkiRJkiRJkiRJkiRJkiRJkiRJkiRJkpSpYdEJqCU2AnYIiDsBuDQgriRJAg4FugLaye3onCSp9TqiE5AkSe1nASBJUoYsACRJypAFgCRJGbIAkCQpQxYAkiRlyAJAkqQMWQBIkpQhCwBJkjJkASBJUoYsACRJypAFgCRJGbIAkCQpQxYAkiRlyAJAkqQMWQBIkpQhCwBJkjJkASBJUoYsACRJypAFgCRJGbIAkCQpQxYAkiRlyAJAkqQMWQBIkpQhCwBJkjJkASBJUoYsACRJypAFgCRJGbIAkCQpQxYAkiRlyAJAkqQMWQBIkpShYcHx9wW2Ds6hDtYB3h0Q937guoC4dfMYcFx0EpLyEl0AnAwcGpyDFO1mYLPoJCTlxUcAkiRlyAJAkqQMWQBIkpQhCwBJkjJkASBJUoYsACRJypAFgCRJGbIAkCQpQxYAkiRlyAJAkqQMWQBIkpQhCwBJkjJkASBJUoYsACRJypAFgCRJGbIAkCQpQxYAkiRlyAJAkqQMWQBIkpQhCwBJkjJkASBJUoYsACRJypAFgCRJGbIAkCQpQxYAkiRlyAJAkqQMWQBIkpQhCwBJkjLUGZ1AkN8C10Yn0UJbA/sGxL2WNJZ1sSrw1egkJKkdci0ArgN+EZ1EC3UQUwDcT73G8V1YAEjKhI8AJEnKkAWAJEkZsgCQJClDFgCSJGXIAkCSpAzl+haAJFVRJzCm0bqv3x3APGAu8CowDZgdkp0qxQJAkspjMWADYG1gfKOtAiwDLN343wfiVeAF4HngCeDxRnsQuBOY0rKMVVkWAJIUYyFgU2CLRtuQ9IPfCos22mrA5n38708CE4B/ADcAtwLTWxRbFWEBIEntsx6wE7ADsBUwKiiPFRvtA41/nk0qBv7WaBOArpjU1C4WAJJUrE2BPYE9aN0dfquNIG0pvjXwXdIMwXnAucBNWAzUkgWAJLXecsCBwEHA6rGpDMqKwBca7QngdOBXwKTIpNRavgYoSa2zDXABMJF0J13FH//eVgGOBR4DLgZ2BIZFJqTWsACQpKHpJB3GdTtwFfAR6jm7OhzYGbgEuIs0uzEyNCMNiQWAJA1OB+m5/n3AWcDGsem01XrAacC/gM8Tt5hRQ2ABIEnN+whwL2mR3BrBuURaCfgJaSz2xkcDlWIBIEkDtw5pCvwC0mY9SlYDzgZuBrYMzkUDZAEgSQs2BvgpcDdpEZz69g7gOuBUYIngXLQAFgCS1L+dSD/8R5AWwql/w4BPAvcD+wfnon5YAEhS3xYGTgT+SnoVTs1ZBvg1aUOhscG5qA8WAJL0n95J2g73c9GJ1MBHSWO5TXQiejMLAEl6s0OA68l7dX+rrQRcCRyHvzul4QchSckiwDnAKaS98dVaw4AjgT/jAsFSsACQpHSHegOwV3QiGdiZdMBQHbZJrjQLAEm524D0479BdCIZWZO0Z8DW0YnkzAJAUs7eT/rxXyk6kQyNBS4FdotOJFcWAJJy9QHgT6Rn/4qxEGk75YOiE8mRBYCkHO0NXEj6AVKs4cAvgcOjE8mNBYCk3OwGnEk9j+ytqg7gZ8Ch0YnkxAJAUk52JB1a449/+QwDfg7sG51ILiwAJOVia9K0v2fXl1cHcAawS3AeWegE9giMv1pQ3I1pf7//0OZ4kt6wNj7zr4pO0sLAbYBbgnOpte6Bzs0hjdZOw9ocT1IyjnSgjwfSVMfCwB+BzYCJwbnUls/BVEabAJcHxI36+7AJ8FJA3NuB7QPitlP3Tc6q0YmoacsBFwFbANODc6klCwCVUSd57RUe1d8xATHb7YfAe6KT0KBtSDqbYb/oROrIRYCS6upjwOejk9CQfRxfDyyEMwCS6mg8cHJ0EgWYA0wFXgZea7Qu4C2NtgRpZ8O6nWZ4AnAdcF90InViASCpboYDvwEWi05kiCYCfwfuAR4CHgAeBWYt4N/rJK15WBtYC1iX9BjkrYVlWrzRpP0b3gXMDM6lNiwAJNXNkcBW0UkMwgzgz8BlwNXAI4P8c+YADzfan3v89yuTXq17P7AracagSjYEvgX8V3QiddJla0sr0mFBfSpqivVdQf3Jrd000A+kQtYCXid+bJtpt5HWKixVwHjMz2jSXih/Bma3qB/taHOATQsYjyy5CFBSXXQAp1KNzX7mkTYHexvpB+1EYHIb47/eiP9BYA3gJNIMRNkNB06jfmscQlgASKqLgyn/1P9s0szZ6sCelGNR2+OkGYjVgZ9Q/kJgA+AL0UnUgQWApDpYFPhGdBILcC1p06fDgceCc+nLU8AXgfVIOyeW2dGkjYI0BBYAkurgGGDZ6CTm4znSRjbvBe6OTWVAHiEdxrMb5d2Gdwzw7egkqs4CQFLVrQocEZ3EfFxOWr1+FmkRW5VcCGzU+M8yOpD0OECDZAEgqeqOAUZGJ9HLXNIjiR1JMwBVNYU0E3AAaeFgmXRQ/sc+pWYBIKnK1iJtFVsmr5DetT+WtNq/Ds4k7SHwQnQiveyKrwUOmgWApCr7OunVsLJ4hrTr3lXRiRTgZtJbFmVawDiMNAOkQbAAkFRVK5EO/CmLh4EtgTujEynQQ5Svj7uQtjtWkywAJFXV5ynPhjBPAttTrrvjojwDbAfcH51IwzDgS9FJVJEFgKQqWoS08U8ZTCb9+D8RnUgbvUha4DgpOpGGjwPjopOoGgsASVW0N+U47W8asDPppL7cTCQVAS9FJwKMIr2poCZYAEiqokOiE2g4HLg1OolA95HuvsvwtsOhpMcBGiALAElVsxHlePXrFNIGP7m7BPh+dBLAaqQ3MDRAFgCSqmbf6ARIW/p+MTqJEvlvyvHq4z7RCVSJBYCkKhkG7B6cwxzS3v5l2xkv0lzgE8BrwXnsTvl2hSwtCwBJVbIZMD44hxMo13vwZTER+E5wDksA2wbnUBkWAJKq5MPB8ScB3wzOocx+RPz+ALsGx68MCwBJVbJjcPyvkF79U99mAZ8LzmGn4PiVYQEgqSpWBNYPjH8/cF5g/Kq4Arg+MP4quDXwgFgASKqK7Yl9z/s7lON99yqIXguwQ3D8SugMjP2HoLh7BMWVNDTvDoz9CPD7wPhV8zfSBknvCIq/FWmxpvoRWQDsGRS3KyiupKHZIjD2/5Je/9PAnQT8Jij2VqTZIq/3/YgsAKSyuZ00zdxumwCXB8StkqWANYNizwbODopdZRcCU4ExAbHHAauTjmjWfFgASG+YA0wJiDs1IGbVbELc8/9LgOeDYlfZa8D5wIFB8TfGAqBfLgKUVAWRq//PDIxddZFjF/mdqQQLAElVsEFQ3DnAZUGx6+Ba4OWg2FHfmcqwAJBUBVHvdd+Mj2iGYi6pCIjwtqC4lWEBIKkK3hoU98qguHVydVDclXGdW78sACSV3WKkQ14iRP141UlUEdVJ2j1S82EBIKnsxgfGnhAYuy7uA2YGxV41KG4lWABIKrvlg+I+S9wCtjqZS9pJMcJyQXErwQJAUtktFRT3waC4dRQ1llHfnUqwAJBUdmOD4loAtM4DQXGXDIpbCRYAksouqgB4JihuHUWNZdR3pxIsACSV3UJBcX3/v3WixjLqu1MJHcSdlhSxr3fUXuKeSCUN3siguBYArRM1lqOC4lZCBzAjKHZEZbZwQEyA6UFxpTqIKgCmBcWto6gCIOq7UwkdwKtBsZfOJCZ4J9GsWUFxoy4WUXGjxrlZUbu5Rd0c1dHrQXFHBMWthA7ifpzWziQmWAA0K2q8FguKu3hQXL+XUsY6iJvm2j4g5vsDYkLcLEtVRf0wrUTMHcNqATHB76WUtQ5gclDsXQNifiggJsCLQXGrKqooHQFsGhB384CY4AyAlLUO4KGg2GsAb29jvE2Iu9OKGuOqmg7MDord7sJ0FLBjm2N2cwZAylgHsbtdfbOmsXpzR7HmdAGPBcX+cJvjbQss2uaY3R4NiiupBCJnAAA+QLoAFu29wM5tiDM/FgDNi/pergV8sI3xvtzGWL1Fbc8qqQQ6iL8I/JxiV0EvAfyiwD9/ICwAmhc5ZscBw9sQZydguzbEmR8fTUkZ6wAeB54OzGEt4ByKueB2Ar8nrTeI8iQwMTB+VUUWAOsCny04xluAHxYcoz/TgKcC40sK1n0WwFWhWcAOwK9o7YYooxp/ZsTrhj1Fj21V/TM4/vcp7vHUMOAMUqERZQJuUS1lrSwFAMD+wJXAuBb8WcuQ+rRfC/6soSrD2FbRBGBKYPwRwLnAOgX82d8Gdi/gz22G30spc90FwNWhWbxhK+AO4JMM7pFAJ/Ap0o/HFi3Mayi80A7OXODvwTksCdxI617TG0W68z+qRX/eUPi9lDLXXQA8DtwVmEdPywOnkvI5CFhqAP/O0qSi4U7Sgr9lC8uuOXcAk6KTqLAy/EgtDvwF+B9g9BD+nPWBa4ADWpDTUE0HbopOQlKsnodsnEnsoqTe1gVOI90J3kC6E3sEeKXxvy9O2thni0Zrx6rtZv0mOoGKuyw6gYbhwDdIs0vHAGcx8IN0xjf+nf15o+COdg0wMzoJSbF6FgBnA8dTvh/S4cDWjVYlc0hjqsF7ELgVeEd0Ig0rkorSE4BLgIuA20gzaN0FwVjSmy3bkjYV2oS06K9MfhudgKR4PQuAZ4DLiduWtG4uA56LTqIGzqQ8BUC3RYG9Gq3bLKpx9vhU4I/RSUiK13tK8uSQLOrplOgEauIcqnFufRV+/AHOJ60BkJS53gXARcA9EYnUzF3An6OTqInJpEV4ao3ToxOQVA69C4Au4HsRidTMd3GTlVY6PjqBmrgJuDY6CUnl0Neq5N/jHuFD8S/gvOgkauYW4IroJGrgW9EJSCqPvgqAucDR7U6kRr5KGkO11rejE6i4O0hvLkgSMP/3ks8lvRGg5lxKWmSl1vs76f11Dc6x+FhKUg/9bUzyGWBGuxKpgZnA56OTqLkjgNnRSVTQZaQFvpL0b/0VAA9Trp0By+54Yo+wzcG9wInRSVTMDFIxL0lvsqCtSb8J/KMdiVTcrcB3opPIxDHAE9FJVMhxpIWpkvQmCyoAZgP7Ai+3IZeqmgLsSTU2q6mD6cCn8Xn2QNyJr1BKmo+BHE7yGLAfXnD70kU6hfDx4Dxy81fgB9FJlNw04GO4jkfSfAz0dLK/kKYS9WbfBS6MTiJTXyedEqm+HQI8EJ2EpPJq5njSrwNnFJRHFZ2O+yVEmgPsDTwfnUgJnQz8LjoJSeXWTAHQBRwMXFBQLlXyF9Idlo9FYk0CtgdeiU6kRC4GPhudhKTya6YAgLTD3X7kvSHL1aRjYOdEJyIgHby0Oy7CBLiRtCDV76akBWq2AIC0Cnsn8pwJOB/YGY9TLZsrgP3Jewvme4EP4ndT0gANpgCAtLJ4T9Kzxlycjquqy+z3pJmAHD+f24BtgJeiE5FUHYMtACDdbR1OWhxY5zuvucDXgINwarXs/gjsArwanUgbXUr68X8hOhFJ1TKUAqDbd4H3AU+34M8qm6eB7fAVyCq5Cngv8ExwHu3wG9K0/7ToRCRVTysKAEiLAjeiXseNXgVsQjqFTtVyB7Ah6e64jmYCXyCte/BwJEmD0qoCANIU5C7AAVR7OnIK6eK6PfBscC4avBdIi1W/QL1+JJ8A3oOHIkkaolYWAJDeiz8TWAc4FZjX4j+/SPOAXwJrkC6uVcpdfesifZbbUf1d8eYBvwA2AG4OzkVSDbS6AOj2IvApYHPSxiRl3jCni7Sxz7tIm/u8GJuOCnAd6ZHAUVTzNbl/AlsAh5LXAkdJBSqqAOh2C/AB0rP08ynXXfU84DxgY9JCqtti01HBZgHfA9YFzqVc38X5eQ44Angn3vVLarGiC4Bud5De0V6H9NbAxDbF7ctE4DuNXPYAJgTmovZ7grST43rAWZTz1c5JwOeAVYGfUe/XbCUFaVcB0O0h0r4BqwLbAqcBT7Uh7pOkNQnbNGL/dyMX5et+0rbWawE/pRyPfm4mnbexOimn12PTkVRnnUFx55H21L+68c9rkX6ctyU9LlgFGD7IP3su6S7vdtKrfFfhj73m71HS3fZXSG8N7E96m2VUm+I/QXqf/yzgwTbFlKSwAqC3Bxute2vhUaTV+GsB44GxwCLAmMZ/Qtr8ZGrjP18CHm/8GQ+T3pOWmjEL+FOjjQG2JhWk25AWELZqtuwV4FrgSlJxeg/lXiQrqabKUgD0NpN0YbwnOhFlaSrp7ZWLG/+8BOn1uzUbbW1gJVKhsASpKB3R49+d1miTgX+RXkF8iFSg3ofP9CWVQFkLAKlMppB2hOxvV8iReCRxUaJmSNq9RqrOosbS2bV++AWXWsMf/+JE7eS4yIL/LxqgRYPi+veyHxYAksou6iIe9aNVR1Fj6XqwflgASCo7C4DqcwaghCwAJJXd1KC4FgCts1hQXLfO7ocFgKSyi9qkacWguHUUNZZl2OCrtCwAJJXdS0Fx3xYUt46ixjLqu1MJFgCSyu6FoLhr4avSrbJuUNzJQXErwQJAUtlFHR42ClgtKHadLAWMC4r9RFDcSrAAkFR2k4jbPXHDoLh1slFgbAuAflgASCq72cDTQbG3D4pbJ1Fj+Bo+AuiXBYCkKog6KXFHYFhQ7LrYMSjuA0FxK8MCQFIV3B0Ud0V8G2AolgPWD4rtYXILYAEgqQoiL+Y7Bcauup2Jm0G5NyhuZVgASKqCCYGx9wuMXXWRYxf5nakECwBJVXAXaVFXhPWBLYNiV9nawNZBsecBtwTFrgwLAElVMAe4PTD+oYGxq+owYqf/XwmKXRkWAJKq4sbA2HsASwbGr5rRwP6B8SO/K5VhASCpKq4MjL0Q8KXA+FXzaWCJwPhXBMaW2uowoCugndyOzkkNC5HWAUR817uA6XhC4EAsTtqAJ+pzmgOMLbyXNeAMgKSqmAFcGxh/NHB0YPyqOJLYxyW34SmAA2IBIKlKLgqOfxBpdbv6tgLw+eAcor8jlWEBIKlKLiDuYCBIxwOfCgwPzKHMTiLNlEQ6Pzh+ZVgASKqS54Drg3PYEhcE9uVgYLfgHO4k7tyIyrEAkFQ150QnAHyLuD3uy2g88KPoJIDfRydQJRYAkqrmHOD14BxGAWcSP91dBp3Ar4FFg/OYS/pMNEAWAJKq5mXSWoBoG5F+cHK/jp5I3Ja/PV0GPBWdRJXk/sWVVE2nRifQsDtwXHQSgY4kbfpTBmX5Tkht5UZAytEdxG0207t9puC+ltEepGn36LHvAh7HNzOa5gyApKo6KTqBHk4EDoxOoo0+DPyG8vyGnETs66FSGGcAlKOFgGeIv/vsbvOALxba43I4EJhN/Hh3t5eBxYrscF2VpXqTpGbNAH4QnUQPw4AfU+81AUcAp5FW/pfFiXj0rzLmDIBytTDwLPF3ob3bGdTrFcERwE+IH9e+7v4jTx2sNGcAJFXZdOD46CT6cADwD2CN6ERaYEXgGuL3+O/LicCU6CSkSM4AKGejgEeIvxvtq70CHEJ6PFBFewMvED+OfbVngDHFdb3+nAGQVHUzga9GJzEfiwKnAFcAqwXn0owVSKfqnQ0sFZzL/BwDTI1OQormDIByNwy4jvi70v5a96LFMj+zHgN8E5hG/Hj11+7E9/4lwAJAAlgPmEX8j9OC2ovAUZSrEBhDOuGwjAsqe7e5wBbFDINUPRYAUvI94n+gBtqmAicQu1BwZdKYTSF+PAbaTilkJKSKsgCQkoWBh4n/kWq23UD6e7x064fkP4wFPgFcTXm28h1oe5pyzZxI4SwApDdsDswh/sdqMG0ucCvwLWBbWrPD3RjSaX1HAzdWeGzmATu1YDzUUKbdnCSpFf5B2o3v69GJDEIHsGmj/Tfph+9h0qK3xxvtCdKCwpeB10k/jG8hvXEwGlgJWBUYD6wPrE093vg6GbgkOgmpbJwBkN5sBHAT8Xettta0e0hFjlqoDlWhJPU2m3Rc7eToRDRk04A9gdeiE6kbCwBJdTUJ+BgeE1t1hwP3RSdRR1XdnjLKJsDl0Un0YRRp9XO7zSTtxV4mtwPbRyehUvkq6VU3Vc/3gSOjk6grFwE2pxNfQelpVKOViXuDq7fjSIviDolORE25mLRhkgriIwBJOfgs6UQ7VcPtwF74+KZQFgCScjAL2BW4LToRLdDDwC646K9wFgCScvEqaSMZF5SV15OkNTzPRSeSAwsASTmZDHw5OgnN19dIGx2pDSwAJOVmdnQCmi8/mzayAJAkKUMWAJIkZcgCQJKkDFkASJKUIQsASZIyZAEgSVKGLAAkScqQBYAkSRmyAJAkKUMWAJIkZcgCQJKkDFkASJKUIQsASZIyZAEgSVKGLAAkScqQBYAkSRmyAJCk9ngIuBqYGZ1IP+YANwB3RSei4lkASFJ73AFsC4wFdgZ+DNwNzItMCrgf+CmwKym3rYBrQzNSW3RGJyBJmZkOXNJoAGOADYG3Axs12tuAUS2OOwt4AJhAKkYmNNrLLY6jirAAkKRYU4HrG62nZYAVgRWAVYBlSXfoncBiwEjgLY3/7+vADOBV0jT+S8CzwETgKeDJxj93FdgPVYwFgCSV03ONdnt0Iqon1wBIkpQhCwBJkjLkI4Dm3E56BqfymhOdgCRVgQVAc+YAU6KTkCRpqHwEIElShiwAJEnKkAWAJEkZsgCQJClDFgCSJGXIAkCSpAxZAEiSlCELAEmSMmQBIElShiwAJEnKkAWAJEkZsgCQJClDFgCSJGXIAkCSpAxZAEiSlCELAEmSMmQBIElShiwAJEnKkAWAJEkZsgCQJClDFgCSJGXIAkCSpAxZAEiSlCELAEmSMmQBIElShiwAJEnKkAWAJEkZsgCQJClDFgCSJGVoWHQCklSAUcAqwFuB5YBxjbYUsCawWUBO04DnA+IOxlLAogFx/wncC0xutOeAZ4DHGm1GQE61ZQEgqcrGAOsBGwAbAuuSfvRXwBnOuukiFQOPAPcDdwJ3A3cBrwTmVVkWAJKqYhiwNrAFsFXjP9fA65jgUeDGRrueNIswLzSjCvAvjqQyWx7YAdgR2JY0NS0tyCvA1cDfgEuBx0OzKSkLAEllsxGwJ7AzaVpfGqoHgIuB84CbSY8TsmcBIKkMNgD2AvYgTetLRZkI/KHRbg7ORZKytBhwCHAb6Y7MZmt3ewA4ElgGSVLhNgPOAl4n/gfAZusCZgHnA9shSWqpDuCDwOXEX+xttv7anaSZqdFIkgZtIeAI0iYu0Rd2m62Z9gzwVWARJEkDNpJ0FzWJ+Au5zTaUNhk4lrRmRZI0H53AYcBTxF+4bbZWtsnA/yNtMy1J6uF9pOen0Rdqm63INhHYH1+jlyTWBS4j/sJss7Wz3Qi8A0nK0GjSs9EZxF+MbbaINhc4hZiTEyUpxHtJm6hEX4BttjK0p0mPBSSptsaQ7niiL7g2WxnbeVTowCoXMUgaqM2BM4HVoxORSuw50iuwF0UnsiAd0QlIKr0RwPdJ56z74y/1bxngj6SZsoWDc+mXMwCS+rMicA6wZXQiUgXdTzrh8t7oRPriDICk+dmOdFKfP/7S4KwD3ATsHZ1IX4ZHJyCpdIYB3wBOxX3QpaEaCXwUGAtcAcyLTecNPgKQ1NNCwGnAPtGJSDV0ObAn8HJ0ImABIOkNy5MWL7m7mVSch0lHYz8YnYgFgCSA9YC/AStEJyJl4EXgA6T1AWFcBCjpncDV+OMvtcuSpPUAO0Um4SJAKW/vA/4KLB6diJSZkcBewCRgQkQCFgBSvvYEzicd6iOp/TqADwHPAre3O7gFgJSnjwJnk3b5kxRnGGk9wAvAre0MbAEg5Wc30u5+/vhL5TAM2Jk2FwG+BSDlZVfgD/jj39PuwFXRSZBOWuyMTqKXTlJe7bArcHSbYpVVF/BJ4PToRCTVy+bAa8QfmVq29vuhDKpa5hLivwtlaHNIs3SS1BLrAy8Rf3ErY5sFLDf4oVULrEz64Yv+LpSlTQfePaQRHQD3AZDqb1XgUmCJ6ERKagRwQHQSmTsU16T1NBr4E2mDLkkalDHAXcTf0ZS9PYo3RFE6gaeI/w6UsT0OjBv0yErKVgdwEfEXsaq09w9umDVEuxP/2Ze5XQ+MGvToSsrS94m/eFWpnT+4YdYQXU78Z1/2dvqgR1dSdvYm/qLVbIt+Q8HFgO23GjCX+O9eFdpnBjnGkjKyBvAK8ResgbZ5wLnAKsANwbl8fRDjrcE7nvjvX1XaDGCTwQ2zpBwsTLUW/V0HbNoj//2D83kMFwO2y0jgOWI/7y8DlwXn0Ex7BA/ukjQfvyL+IjWQNgU4iP/cjXQ06az0yNxCj2jNyJ7Efs5P8cbOi/uQDuSJ/nsxkOZaFUn/YTfiL04DaX8BVuinHz8Jzu+P/Q+zWuRKYj/nb/XKZ3HgjOCcBtoOGvAoS6q9ccDzxF+Y+muvkqb4F2Td4Dxn03+BoqFbk7T2I+oznkNac9KXvUgzVNF/X/prr/STv6TMXEj8Ram/dhewVhP9+Xtwvv/TRK5q3g+I/XwvXkB+KwPXBue4oHYlHugnZW8/4i9G/bXTSYsTm7FvcM4TcWvaoowiHXsb+fl+aAB5dgInBue5oHbEAPohqaaWpLxT/7OBwwfZr4WAycH5f3CQuat/0XtUTKK54u4g0it40X+f+mqvAMs30RdJNXIa8RehvtpUYJch9u2HwX348xDzV9+uIfZzPXYQOW9BeQvtcwfRH0kVtxWxC6nm156hNRuWrBXcv7m40KrV1iZ+8d/Kg8x9LeCJwNz7a0MtlO4aCwAAC0dJREFUtiVVSCdwD/EXnt7tMdLxw61yVXB/vtHCvgh+TOzn+ach5r8ScH9wH/pq/8IDg6RsHEr8Rad3e5TW3zF/LLhPT/LGZjEamoWI3+SpFXfKSwN3BPejr/alFvRNUsktQppmj77g9GyP09o7/25l2C521wL6laPot1Va+WbHUsC9wf3p3V4iLQqWVGPfIv5i07NNYvDPVQci+sCYvxbYt5xcR+zneHSL+7MCadYr+u9fz/bjFvdRUoksS/yxuT3by8D6hfYYVid+MeD4gvtYd28j9ns6m2Jel3sr8HRw33q2mbhwVaqtHxF/kelus4Dti+3uv13Rpj7Nr327+C7W2knEfn4XFNi3jSlXUf7/C+yrpCDLUK4LzX7FdvdNdi+wHwNpTwMjCu9lPS1M/N76Oxbcx70ozyu5M0hvK0iqkeiNcXq2Ewrua28jiJ9q3a3wXtbTgcR+bo8CHUV3krTBUPTfy+72v8V2VVI7LQlMI/7C0gXcQMzd8HcHmW+r2qXFd7GWbiT2c/ta8V0E0sE8f21TnxbUZgDLFdtdSe1yFPEXlS7SK3krFtzX+VmVtCAvqu/zSAsSNXAbEPt9LWrx3/wsDTxVQD8G09zESqqBEaRX7aIvKPMo/lnqgvyN2DE4rvgu1srPiP28/lB8F//DdsQWqt3tOdLmS5IqLPr0tO52atEdHYCPEDsGz5I2J9KCvYX0mmjk5/W+wnvZt+OayLHIdlDRHZVUrH8QfyGZCCxWdEcHoJP4KdY9C+9lPXyS2M/pYdJz+QgLAQ8OIMei24SiOyqpOOsRfxHpIn7qv6fonRCvKL6LtXALsZ/TfxXfxX69h3K8Grhp0R2VVIwTiL+AnF14L5uzEulY16jxmAesWXgvq21DYr+zM4FxhfdywU4l/u/vzwrvpaSWGwm8QOzF4zXKuanIxcSOyw+K72KlnUzs53NO8V0ckLGkQ3oix2IKMLrojkpqrejd77qAYwrv5eB8iNhxeQHPX5+fRYBXif18tim8lwP3ZeL/Hu9deC8ltdR5xF40niBt41pGw4l/NdKLat8OIfZzeZC4xX99GQU8RuyYXFR4LyW1zFuI3/f/U4X3cmiOJXZ8rim6gxV1O7Gfy5eL72LT9iF2TF4HFi28l5JaYi9iLxgTKf/77isSuxiwC1i38F5Wy6bEfh4zSLvxlc0w4F5ix2af3km144AESc37aHD840jH/ZbZk6S91yMdHBy/bA4Njn8eaX1G2XSRjvKOtHtwfEkDMBKYStydwlNUZwvRXYi9q5pMdcaqaIsS+73tArYuvJeDN5JUtEaNzWv4XZVKbxtiL6JHFd/FlhlOWqwYOV4fL7yX1XA4sZ/DfcV3ccii3wjYvmcyPgKQymeHwNizgTMC4zdrLvFnFERPe5dF9KLRU4LjD8SpwPTA+Nsv+P8iKdIdxN0hlGUDlWYsR1qvEHlntV7hvSy3zYgd/+mkTXeq4CzixsmzAaQSW4bY/cPLtIFKMy4g9gfoxOK7WGq/Inb8f118F1vmvcSN0zxg2cJ7KGlQIo+7fYRybaDSjB2J/QF6iXy3W12c+D0rtiy8l60zjHRSYdRY/fsNI9cASOWyRWDs7p0Hq+hSUgETZQnyPSZ4P2J3jLwfuCEwfrO6gN8Fxt88MLakftxA3J3BO9vQvyIdRexd6I3Fd7GU7iZ23I8ovosttzF+TyX1MIq0ZWfERWEi1Z3+77Ys8YsBNyq8l+WyJbHjPZ00+1JFjxIzZjNo7AfgIwCpPNYnbqOO7kV0VfYs8KfgHHLbGfCQ4PjnkI67raKoA3pGka41FgBSiawfGPvKwNitFP0u+MdJBznlYCywR3AOvwiOPxSR21ivBxYAUplsEBR3LnBdUOxWu5K0wjrKYqSDnHKwP7FvPtwF3BQYf6huJB1mFeFtYAEglUnUDMDtwMtBsVutCzgtOIdcdgaMftxxcnD8oZpG2vQrQuRso6Q+PEPMoqDj29G5NhoHzCR2cdrbC+9lrK2JHd+p1ON8+x8SM35PgTMAUlksQtwOXVWeRu3L88CFwTlEL44rWnT/zgFeDc6hFa4PirscsXs3SOphfeLupt7ahv61W/SJilOBMYX3MsaSxL2u2t02LbyX7bEacWO4jjMAUjmMD4o7FXgsKHaRrgEeCoy/CPCxwPhFOpDYc+UnALcFxm+lx0jbKEdYxQJAKofxQXG7d3Grmy7iXxH7dHD8onwyOP7Pg+O30jzgvqDY4y0ApHJYKSjuPUFx2+HXpMWAUTaiPlPV3bYB1gmMP5XYffSLcHdQ3JUtAKRyGBcU94mguO0wGTg/OIfoxXKtFv2K429Jr8/VSdQjuKUsAKRyWDIo7pNBcdslemfAvanH62oASwEfDs7hl8Hxi/B0UNwlLQCkclgqKG7dC4BrgXsD4y8C7BMYv5UOIu0jH+UW4J+B8YvyVFBcCwCpJJwBKM6pwfEPD47fCsOI3/kvejanKGEzAEFxJfXyHDHvAi/ejs4FG0s6NjbyvfV3Fd7LYr2P2PF7mfoesjSOmDGd6AyAVA5RU6tR7yC300vAecE5VH0xYPTiv7Oo73c1ql8jg+JK6iViZ7XZbelZOWxJ7B3sdGCJwntZjGWAWcSO30aF9zLOcGLGdIozAFI5RFTjrwfEjHIDsXsejKa6iwEPAkYExv8Hafe/uppLKrDabaQFgBSvk5iDuXIqAMCdAQdjGKkAiFTXxX89zQiI6SMAqQRGETMFmMMbAD0tTnreGjmVvUXhvWytHYgdr5dIsyd19wIB4+sMgKRcvAycG5xD1RYDRi/++w35zVRJyogzAO2zGbF3tNNJryVWwbLEL/5br/BeloMzAJJUsJuAOwLjjwY+Hhi/GQcTu/jveup9WFU4CwBJuYneGfAw0uK6Musg/tjfHBb/ScqcjwDaawzwKrFT2+8uvJdDswux4zMFWLjwXpaHjwAkqQ2mEr8YMHpx3YJE53c6ab2EJNWaMwDt9w5i73BnAEsX3svBWRGYQ+z4rFt4L8vFGQBJapNbiT1adhSwX2D8/hxM2p42yt+B+wLjZ8MCQFKuoncGPITyLQYcDnwiOAcX/0nKho8AYiwCvELsVPd7i+5kkz5E7Hi8QNzJmJF8BCBJbTQN+F1wDtGL7XqLzud0YGZwDpLUNs4AxNmQ2DvemcC4wns5MCsRu/hvHrBm4b0sJ2cAJKnN7iQtCIwyEjggMH5PhxC7+O8q4KHA+NmxAJCUu+hFZ4cSfy3uxMV/ktR2PgKItTBp57nIRwHbFd7L/n2E2P4/T56L/7r5CECSAkwHzg7OIXrxXXT803Dxn6QMOQMQbwNi74BnAcsV3su+rUz84r/VC+9luTkDIElB7iIdFRxlBHGLAQ8jdvHf5cC/AuNnywJAkpLoRWiH0P5rcifxbyFEj3u2OqMTkBRmDHBkdBIlEn387KrAj4Fn2hhzPLB8G+P1Npd08M8agTmUweiIoGXbh1rK0SjS6XCS1DY+ApAkKUMWAJIkZcgCQJKkDFkASJKUIQsASZIyZAEgSVKGLAAkScqQBYAkSRmyAJAkKUMWAJIkZcgCQJKkDFkASJKUIQsASZIyZAEgSVKGLAAkScqQBYAkSRmyAJAkKUMWAJIkZcgCQJKkDFkASJKUIQsASZIyZAEgSVKGLAAkScqQBYAkSRmyAJAkKUMWAJIkZcgCQJKkDFkASJKUoWHRCUhiOPCV6CQkSZIkSZIkSZIkSZIkSZIkSZIkSZIkSZIkSZIkSZIkSZIkSZIkSZIkSZIkSZIkSZIkSZIkSZIkSZIkSZIkSZIkSZIkSZIkSZIkSZIkSZIkSZIkSZIkSZIkSZIkSZIkSZIkSZIkSZIkSZKUhf8DQ30bhMXfGBAAAAAASUVORK5CYII=;" vertex="1" parent="1">
          <mxGeometry x="340" y="70" width="50" height="50" as="geometry" />
        </mxCell>
        <mxCell id="41DwftxlrVXNSMgh1K6p-9" value="" style="shape=image;verticalLabelPosition=bottom;labelBackgroundColor=default;verticalAlign=top;aspect=fixed;imageAspect=0;image=data:image/png,iVBORw0KGgoAAAANSUhEUgAAAgAAAAIACAYAAAD0eNT6AAAABHNCSVQICAgIfAhkiAAAAAlwSFlzAAAOxAAADsQBlSsOGwAAABl0RVh0U29mdHdhcmUAd3d3Lmlua3NjYXBlLm9yZ5vuPBoAACAASURBVHic7d13uB1Xeej/7zmSJRdJlmXJXbYs9967jcEWoZoAwQSSi9PAJCSE1EvNDwgJMaTc6wRufkC43JgkEEgoNqHJNhjcMC64d8u9W1bv0r5/vHvuPhLSqTOz1uz5fp7nfbZ1JO+z1po1M+/MrFlrAEltMAc4DzgDOAaYC+wMdIBlwKPArcDVwLeA59MUU5IkleEs4FJgA3GyH01sAL4BnJmgvJIkaQJOAq5g9Cf9bcXVmAhIkpS9Q4CvAJuY+Ml/aCwEjqqxHpIkaRT2Bj4DrKfcE//Q2AhcAuxVU50kSdI27AJcBKyiuhP/lrGy+zt3qaF+kiRpiCnAhcCz1Hfi3zIWA+8Fdqi4rpIktd4gcD6wiHQn/i3jcSIZmVxhvSVJaq0FwG2kP+FvK+4mkpOBqhpAkqQ2OR34EelP8KONnwAvq6QlJElqgSOIV/pSn9DHGwuB40pvFUmS+tS+xCt9Y5m9L9fYRCQxB5baQpIk9ZHZxOt1a0h/4i471hFJzR6ltZYkSQ23E/E63VLSn6irjhVEkrNzKS0nSVIDbUe8Pvc06U/MdcfzRNKz/YRbUZKkhije5X+A9Cfi1PEIkQRNmlCLSpKUuQXALaQ/8eYWdxJJkSRJfSW3d/nvJU6453f/O3V5ivghcOr4mliSpHwcSjXL8443niWevU8ZUsbJxG34JzIoXxELgaPH1NKSJGVgH6pfnncssZwYfT99mDLvSCQHL2ZQ3g6x/PBXgP2HbWlJkjIwi/qX5x0u1hKJyG4tq4MkSbXox6vnJt7FkCSpFsW7/P38/LwJ4xgkSarFADGC/j7SnxCLuBZ4SYV1PgW4MoN6FrEIuACXH5Yk1WQB8FPSnwCLqPsd+gXAzRXUY7zxU+DcSmssSWq1I4HLSH/CKyLlLHo5zma4EDihykpLktplP2Iw3EbSn+Q65DWPfm7rGRTLDx9UZaUlSf1tDnktz5vzSnq5rWhYLD+8Z5WVliT1l2nEyWwZ6U9kQ09me1RZ6ZLMJq+kaWW3PDOrrLQkqdmmELeznyH9iatD73b2AVVWuiL7EknLBtK3Ywd4gXwem0iSMlEMaHuI9CeqIhYCx1VZ6ZocQSQxqduziMdw+WFJEvFK289If2Iq4ifAyyqtcRq5rYZ4F5H0OYeAJLXMqcBVpD8RFXE37TghLQBuI317F3E98NIqKyxJysPh5HlLenKVlc5M8chlEenbv4iFwLFVVlqSlMZc8hyUtkOVlc7cFOA9wGLSb48OvQWU5ldZaUlSPXYlXgNbTfoTTAdfS9uaXchz+eHdq6y0JKkaxcQ0S0h/QukQS+p+Btiryko33N7kufzwjCorLUkqRzE17VOkP4EUsZBYR0Cjcwh5LT/8HJFMTq2y0pKk8SmW572f9CeMIq4Gzqyy0n3uZOAK0m/HIh7GOQQkKSsLgJtIf4Io4nbqXZ633+W2fe/A7StJSZ1EnleIgxXWua1yvMNzDd7hkaRa+Yy4vXId43FUlZWWpLZzlLgKub3lUcwhMK/COktS6/ieuLYl13kedqmy0pLU75wpTqOV2/LDi3GmR0kas1znij+mykqrFLmt9fA47VvrQZLGJbfV4q4Dzq60xqrCaeS12uM9tGO1R0kas1zXi1ezLQBuJX1/KuInwDmV1liSGuII8rpl+yjO9tZvikdKD5G+fxWxEDi+ykpLUq5yG7T1PDFoa/sqK62kphDJ3TOk728dYh6LrwAHVllpScrFbOI1qTWkPwB3gBXd8uxcZaWVlelEsreM9P2vA6wjkuE9qqy0JKUyjTjoLiX9AXfoQXfPKiutrOU2sZTJqKS+Ukzd+jTpD7AderddD6qy0mqU3KaW9nGUpEYrBl49QPoDahEOvNJwcltcygGpkhpnAXAL6Q+gRdwAnFtpjdVPclt++E58JVVS5k4BfkD6A2YRTr6i8cpx+eFrgZdUWWlJGqvDyOsZqtOvqizFGJYnSd+vi3BaaknJ7UNe7/IvI0ZRT6+y0mqlXJcf3r/KSkvSlmaR5/K8c6qstER+yw8XfX+3KistSTsSV0Evkv7AN/QqaF6FdZa2Zi553f1ajne/JFUg1+egR1dZaWkUclt++FkiSZ9aZaUl9b9iJPR9pD+wFXENcFaVlZbG4VTyWn54EZG0D1ZZaUn9aQFwI+kPZEXcge9CK38LgJ+Rfn8p4nbgtZXWWFLfOBG4nPQHriIewdnQ1Cy5Lj98QpWVltRc84hBTRtJf7DqAM/hs0w1W67LD7sOhiQgXp3LcXneGVVWWqpRsRJmbssP71VlpSXlK9eDkmuiq1/llmyv7JZnZpWVlpSP3G5LFu/yH1BlpaWMzCOvx20vEBcDO1RYZ0kJ5Tow6bgqKy1lLLcBt4/hGhpS31kA3Er6A0wR1wMvq7TGUnPk9srt3biKptR4p5HX5CQeWKSty3HSreuBl1ZYZ0kVyG16Um8tSqOT67Tbx1ZZaUkTl9sCJQ4uksYn14W3HKwrZSa3JUp9vUgqR7H0di77dvG67u5VVlrSyHYirhKWkP7A0AHW4wQjUhVyu7vnhF1SIsVzwqdIfyDo0Jti9OAqKy2Jw4h9bRPp9/sOTtkt1aYYKXw/6Xf8IhYS7zNLqs+pwA9Jv/8X4aJdUoUWADeRfkcv4nZcnldKbQFwC+mPB0W4bLdUopOBK0i/YxfxMJHpD1ZYZ0mjV8zy+SDpjw9FXAOcVWWlpX52CHk963sWn/VJOSvW+Xia9MeLIhYCR1VZaamf7E2M9l1P+p23AywnRvtOr7LSkkpTrPS5lPTHjw69OQTmVVhnqdF2IU60q0i/w3aAtUQisluVlZZUmdnktfxwcUyZU2WlpSYpZvxaTPoddGi2vn+VlZZUm/3Ia/nhxThDqFquGLiziPQ7ZBELgWOqrLSkZI4krzVCHsc1QtRCC4DbSL8DFnEd8JJKaywpF2cAV5P+uFPEPbhKqFrgdODHpN/hirgT39mV2uo84F7SH4eKuAE4p9IaSwkcQV633h7FWbskxe33C4EnSH9cKmIhcHyVlZbqsB95LeDxPDH4ZvsqKy2pcXJbfrhYX+TAKistVSG312+Klbt2rrLSkhqvWH44l9eRi+WH96yy0lIZcpuAw51H0njsQ14TknkRo2zlNgWnt88kleFQ8pqS3MeYykaOi3A4gEZS2U4BfkD641sRDmRWUrktw+krNJKqtgC4mfTHuyJ8lVm1yi0TdhINSXUq7nw+QPrjXxHXAWdXWWm122Hk9SzMaTQlpbQdeY196uB05ipZMRo2l3f5XUhDUk52Iq+3n4oFzeZXWWn1t+J92NWk79AdYinNi4llgyUpN7nNf+KS5hqz3GbEKrLZeRXWWZLKsi953TVdTiQm06ustJqteJ71JOk7bBELgaOqrLQkVSS3NVCeJS7uplZZaTXLADGi9T7Sd9AirgHOqrLSklST3FZBfZi42BussM5qgAXAjaTvkEXcge+0SupPC4DbSH+cLeJ2PN620onA5aTvgEU8grNaSep/xRwCi0h/3C3iauCMKiutPMwjBqdsJH2n6wDP4TMpSe1TDLZeTPrjcIfe+ikHV1lppTGHGAW6lvQdrUNvVOqMKistSZnbhbyWH15PXCTuVWWlVY9ied5lpO9YHXrvpe5eZaUlqWH2Jq/lh1cSicnMKiutahTL8z5D+o7UwZmpJGk0DiGvKddfwJlXG6MYYPIQ6TtOEQuBY6ustCT1mZOBK0l//C7iMVx7JWsLgFtJ31GKuB54aZUVlqQ+l9vyw3fj6qtZOQ24ivQdo4i7sINIUlmKydpyWn74euBlVVZawzucvKaZLG4R+S6/JJWvmK79KdIf74tYCBxXZaW1udwWmnCQiCTVp1h+eAnpj/8deoO8D6iy0m23K3ktz+trIpKUTm7nhHXExekeVVa6bXLL9oqNvGeVlZYkjUpud4VX4ERvE5bb855iqsiDqqy0JGlcchsX5lTv41CM+Lyf9BuwiIXACVVWWpJUitOAH5H+vFGEi72N0gLgJtJvsCJ+CpxbaY0lSVXIbW4Yl3vfhpOBK0i/gYpYBFyA7/JLUpPluPzwNcBZVVa6KXKb9/lZ4pnNlCorLUmqVbE+zLOkP88UsRA4uspK5yq3lZ+K5XmnV1lpSVJS08lrhdhiDoF5FdY5G7mt/Vwsz7tblZWWJGUlt4vQ4lw0p8pKp7IjkXUtJn1DD8269q+y0pKkrOX2GHoZfXQ3OscBGK197iJJ2qqTyGsg+uM0fPnhBcBtpG/IIq4FXlJpjSVJTZbbq+j30LDVZc8Afkz6hiviTnz3UpI0OjlORncDmc9JcwR5TcPo7EuSpPEqpqN/kvTnsyIWAsdXWemx2o+8FmJ4nhhwuH2VlZYktUJuC9IV69IcWGWlRzKbGK24hvQN0qG3AtPOVVZaktRKuS4/XOvKtNOIbGhpSZUoqxFcg1mSVLW55HXXu5aL32IqxaczqHCHTG6DSJJaKbflhyt5/D1ILIzzcAYVLOLbwDFlVlKSpHF4CfGaeerzYhEPE+fswYlW7EDgygwqVMRPgJdNtFKSJJVsAfAz0p8ni7gGOGy8lXkP+Qzwuwt4Aw2aDEGS1DqTgN8EHiX9ebNDDFh891gqMAB8JIOCd+iD6RAlSa1TjJl7hvTn0Q5wMaO8gP6fGRT2BeBPgR1GU2BJkjI0E/g4sJL059W/G6mwv5q4gCuJ1xl2GamgkiQ1xBzi3LaWtOfYX99WAQ8HViUq1Hrivcq9RtuakiQ1zMGkXX54JdsYGPidRAVaCBw11laUJKmhTgQuJ80597ItC3N2gkJcDZw5zsaTJKnpFgA3Uv/595yhhfhWjb/4JuAXJtZmkiT1hQHgLdS7/PD/uwswm5hPv+pf+DDxWsSEZyeSJKnP1Ln88DpicSMurPgXPQW8q1s5SZK0bTsBH6L6Bfd+C+DzFX35cuK1hxnlto0kSX1vFtUuP/wZgBtK/tK13S/evfz2kCSpVapafvhagMUlfdlG4P8A+1XSBJIktdeRwKWUlwA8PwCsIJ45TMTVwAeAOyb4PWquFcSETpKk6pxJPBo4Y4Lfs3yAmP3POfclqb+tJEZ/qz9MdMr8lZOJAQYmAJLU33Zi4nd71T9WDQL3pC6FJEmq1b2DwF2pSyFJkmp19yBwTepSSJKkWl07AMwEngamJi6MJEmq3lpgj0FgCfD9xIWRJEn1+C6wZKD7h1OJWYEGtv3vJUlSHzgTuKZYme96hiwPKEmS+tLX6Y79G3rFfwhwIzAtRYkkSVKlVgDHA/cDDA75i3uBt6cokSRJqtxv0T35A0za4i/vJO4AnF5niSRJUqUuAv5+6A+2TAAAFgJrgAV1lEiSJFXqE8D7t/zh1hIAiAECzwDnANtVWChJklSNVcC7iQTg54z02t984HNEIiBJkprhGuKZ/73b+geD2/qLroeAc4GzgG8BndKKJkmSynYN8DrivL3Nkz+MfeKfQ4FXEEnBicBubPsxgiRJqs4G4DniFf4rgO8xhhV+Jzrz3wAwB+cOkCSpTiuIk7935iVJkiRJkiRJkiRJkiRJkiRJkiRJkiRJkiRJkiRJkiRJkiRJkiRJkiRJkiRJkiRJkiRJkiRJkiRJkiRJkiRJkiRJkiRJkiRJfWkgdQFabhowGxgEpgI7dn8+A5gErANWdn+2DNgIrAeeB1bXWlI11SDRx6Z1/zwdmNyN6d2fLQc2dGN592criH62qbaSqsl2IPrZdsSxa0b35zsBU4hj17Luz1YBa4m+9TzR15SACUB19gYOBA7ofu4DzAF268ZsYPsJfP8K4Dng2e7n88Ai4AHgwe7nCxP4fuVvKjCfXj+bD+xF9LPZ3ZjD+PfzDr2+9Xz3v58EHiL61wNEn1s77hqoCWbTO44dAOxPr2/t1v2cts3/e2RriL419Hj2GL3j2IPAExP4fm2DCcDETQOOBU4ETgCOBg4iMuLUlgD3AzcDN3XjduIugpplLr0+diJwGJFUDqYsFHEV9xhwN70+dmP3Z2qW7YCj6PWz44mT/syUhepaRSQDtxH96ybgFnp3SDUOJgBjtztwbjdOBQ4hbnk1xVpiJ7oWuBz4Id6Cy80gcAywAHgpcUDeLWWBxuFZ4kD9Q6Kf3YqPE3Iznehf5wKnExcvU1MWaIw2AvcAPwGu6MYzSUvUMCYAI5sCnAP8AnFAPpL+arcNwPXEzvMd4Abi1q/qtSfwWqKPnUPcYu0nzwFXEsnAfwFPpS1OKw0ApwCvJPrZKcRYkH7RIe5wXg58n+hv3u3UmE0CzgQuJjLKTovi0W69z6S/Ep0czQIuAC4jDlSpt31dsRG4GngPsMeEW1EjOQL4CHELPfW2rzMWA5cA5xGPN6RhHQl8mrhaSd15c4gHgA8TV6cqx3bAm4krlA2k38apYz3wPeB8PEiXaS/go8QAutTbOId4FvgH4PCJNKr6zyCRIS4knlGm7qg5xgbiKnXBONtYMXbkvcAjpN+eucZTwEXE4EaNzwnEVe860m/PXONqIuHsp8cfGqPtgT8gRiun7pBNiluAN+HjgdE6CPgiMfgy9bZrSqwF/pkYga6RDRB3lW4l/bZrUjwK/D7NGvioCdqOeO76EOk7YJPjdiKLNhHYurnAZ2jXs/2yYx1xNTt/jG3fJguIV+JSb6smx2PEeBQTgT53Pu0bCFN1XAOcPJaN0Od2Bv4HMblJ6m3TL7Gm26bF7HKKV5CvJf226ae4H/ilsWwENcPewH+SvoP1a2wirnbbfoA+j7itmHp79Gs8Rdy9a7MZxFs6DiCtLr4F7DfaDaJ8TQL+iJjoJnWnakM8BvziqLZMf5kLXEr69m9LfIN2DhR8I/A46du/DbGceCzQpEneNMRs4vWi1B2pjfEZYgKlNng1seZC6jZvWzxPTGjTBlOJq/7Ubd7GuJJ4g0cNciLwMOk7T5vjRmDe8Jup0QaI1/o2kr6t2xqbiNcGU6+HUKW5wHWkb+s2x2PAaSNtKOXhQnzlKpd4DnjJ8Jurkabj3aWc4jtMbDW6XL2UuNORun2NOKf85rBbS8n9CU7mk1usJNZR6BczcfR1jvFTYmrlfvFKYgW81O1q9GIT8IfDbbSm6ad3uP8M+PPUhRiHTcBSYtDJhu7PXux+TiauNiGeA04jXjNrmrXEK5iXpS7IBM0hrvyPS12QcVhDDIZd1v3zOnpLqe5Eb8zGDKKfbV9r6cpxE/AKYkxGk70B+DLNHEezlOhna7t/Hnpc26X7WRzXZtLMc9AHgL9KXYgyNLHxt+YDwF+mLsRWrCeWq3yQmAL24e7nk8RCFS90P8diErArcbWzK/GMcL8hcQiwP/k9F11PvCHwndQFGacZxBSiR6UuyFYsBu4CFhH96xHidcRn6PWzVWP8zh3p9bPdgX3p9bH5xJzqu2zz/07nVuAs4sTTRK8Fvk5+09RuIiZPu49eH3uYeCuhOI69QIyJGYuhx7I9if41rxsHEMezHNeIeB/widSFmKh+SABeT7zjn/qEt4a4ArmWmC73DuLkn2I5yp2IA/QxxNXqmcSKYKlfaVlCTGByb+JyjNUg8erZeakLQrwLfx2xhPNtRD97IlFZ9iYSoqOJ7Xoaeazu903ilblNqQsyRocR2zX1fBobiX51DXAz0c/uonfHqE7bAYcSC7UdT/SxE0k/a98m4tzT9LuajXYkcUszxfOgDcQV4QeITpn77boZxLP4TxI7d6rnaPcSt/6a5C9J114vAP9GTIDThClxDwB+jbiFnfL1yI9VXdGS7UJcXadqr9uIK9qX03vsmKupwOnAB4kkJdWkSEuJCyslsAMxdWOdG3wNcSX4Vpo/4Ghf4HeJJKbugZNfr6F+ZXkN9bfP48DfEge51HdtJmIScffp74i7FHW24SZijoam+Cb1t8+PgHcRjxGbbFfgV4nJuOp+A+xe4lykmtV5VXYD8HbyfOZZhv2A9xPPkOtq0ybMGLgT9c0nsRr4P8SrX6kfZ1VhEHgZscpfXeskLCLGMuTujdS33z1IzF+xby01q98s4lXwG6mvTZs4+LzRDqP6TG89sYzrKTXVKQeDwOuAhVS/0zxCnGBz9gmqb4fHiQFFs2uqUw7mEHWuY1rb3EdrT6eeJcm/Twww7MfkcltOBf6F6lfkXEMMVlRNvk91G3Md8Hma8by1SqcRI/ar3HH+orbajN3BRF+oqu6PEo9gUg9mSmkq0QZVngDXAgfWVaFxuIhq97FvEyfCNjsA+ALVJgLfrq02LXck1T2TvYIYPa+es4kBQlW092LyvQvwKaqp8yrgIzTzPfuqTCEWXllONW1+cX1VGZMdqW6g5D301wRcZTiIOFFXlQQcXV9V2utzlL/hnsV1oIezHfHcsIrHLhfWWI/R2plq3i75Hi4zOpx5VPP4aSnpX63bmt+m/LquIWZEzW0egZy8mWqmWP7/66xEG82i/Okxv08e7y43wXHElUWZ7X9brTUYnd+n3DquJaYQ7Yd5N6o2SJzAyn788u46KzFKZb+Oexcx94dGthdwOeW2/0r6d6B4Ft5CuRvsnzBTHquZwA8odzvkNt7iSsqr2zLas2xtmc4hJo4qazssrLf4IzqIcvehK2jmNOEpTQI+Tbnb4fxaa9Ay/0h5G+rjNZe9n0wB/ovytkVOq2xNpby7TEuAY+stfl85jvKSgJXkNeDy7ZS3/1xG/hOR5azMgZifrrnsrXI35WykL+Dt2InaiZgfoYzt8cWayz6csymnTuu636WJeSnlPQ44q96iD+tfKadO19OMuQ5yNkDMT1HG9riz5rK3xnTK2UAPku/I86Y5hHKulu+ru+DD+BPK6WcfrbvgfexjlLNN/rTugg/jXiZen1XEowRN3DRisaOJbpNN+CimEgdQzkHgLXUXvM/9LRPfJmvJZ4KSTzLx+jxDXrebm2574Dkmvl3+V90FH0YZjzb+uvZS97dfoZxzTGMGYuZy0B2NOSV8x1LgayV8j3r+dwnfMYV8Rs+W0c/+jd566Jq4NUSbTtRuJXxHGaZQzmuJZex76vlPYtDuRO1ewnfUom0JwL3E80SV5x7KadNcHsuUMSXv7SV8hzZXxuuiOfWxiY5BWkdej876wVrKWao8l342oiYlAGXMnObsa+WbQjmvUubyOmYZfcTVwcpXxkC3fupjk4kJulSuMvbdXPrZiJqUAJThENq16EodTqN9/WgkZ6QuQB+yTTc3iHP8l20OsQZIa7TtwD2VPKeebbIcZ1hL7Y3ETGMqxz7AG1IXIkPue+V6Jy2bT6FtCQDAB8l7dbAmeS3w+tSFyNBU4DOpC9FH/oGWHZhH6Y3AL6YuRJ/Yn1iiulXamADsSLwJMDN1QRruQGLZZG3da2nhAaUCH8Qkczj/hGvRT9QM4pzQmMF7ZWljAgBwFPB1YnIhjd18Ym71XF6rytXHiduKGp/fISYB0rbNBr5DXMFq7GYQUyk7ZXfmzqecSRqGxi3A3nVWog+cSkx0U/a2yGVBoCqWo/0YTj09FgNE8lT2dshlQaD5lF+3p4GT6qxEH5gL3Er528IFgSpQRQLQAZ4FXldjPZpqAHgPMSlLFduhnxOA4uTjwMCR7U65C021JQHoEPvme2nvnd2xeD3lzC5pAlCTqhKADjF/8+fwFcFtOZRYbrSq9u/Q/wlAh0g234Z3A7ZmALiA6g7KHfo/ARhaz1a9zjYGc4gZFKtsfxOAClSZABTxAvAunGCjMJOYG38t1bd9GxKAIn4MnFhXhRrgJOAaqm/3tiQAHWKf/StcmKYwhXhtcjHVt70JQAXqSACKeIS43d3WBV2mE7cS69hZimhTAjD0hNTm57ZHA18h7sDV1d45qCMBKGIZsd59Lmtt1G074s7SA9TX5iYAFagzASjiKWLnmVtD/XJwMFHfOk/8RbQxASjiRuIg1YY7T5OA84h2ruvEX0QbE4AilhFzUxxVQ/1ysAdxEfMI9be1CUAFUiQARawjVop6I/23nsAsYnbEH5GufTu0OwEo4nHgEzRoOdExOJZ4nPQE6dq3zQlAEZuAHwLvoP/uCuwAvIl4xXsd6drYBKACKROAobEE+GfgzTR3B5pLnPQvo57n+6MJE4DN4w7i9cHTiKvmppkEnA78BXAX6duzgwnAlrEWuJRIBvaptMbVmQX8MvBFYrn31G3aoUEJQGNWLcrIzsTt2guADcB1wA+Aa7v/XcZ60mXbg1hM5QxgAe25DdhkR3TjQ8Tg1IXE4MGrgTuBjemKtlWTgCOBM4GzgJcTB2flawrxOOa87p9vI972uZo4nj2dqFzDmUEklqcD5xDzkjQxQc6CCcDETCYOdmd1/7yRuHK7pft5e/fzyZrKM0jMCHYUcTA+CjgBOKCm369q7Aq8pRsQSeYNxAG76Gd3AytrKs9OwOFs3s9OJg7Oaq6ju/GH3T8/ANxM9LM7u58PE48R6rA3kQQfTfSz47p/9oRfEhOAck0int9u+Qx3NbCIGJDyCJEQvEAMtis+VxMTeUA8ZugQg8KmdX+2E7GOwSzihDCrG/sC+3VjLi6a0gYziDs5C7b4+TP0+tij3T8P7Wer6PWtdfQShmlEXxsgXv3ckV4f25W4gzSX6GPzcArotjiwG28e8rN1wGNs3s+GHsdeII5lRd9aAayn17cgxlHtwOZ9bBYxUVbRx+Z1/40qZAJQjx2IK6bDUxdEfW33bpycuiDqW1OIO4reVewDThkpSVILmQBIktRCJgCSJLWQCYAkSS1kAiBJUguZAEiS1EJtSwBuAT5FvKeqiXuOmKlueeqCZObTxPK2Ksc1RJuqZzmx7z2XuiB9YjVxbrgldUHq1LYE4AViTej9gI8Sk6Jo7J4B3kdM1vGXxJTI6rmK3pS43yIm3tHYXQO8jmjLqxKXJTcbiH1vLvBOYnIejd0K4O+JCY/eTZwjWqNtCUDhOeAjxKIcf0asUKaR3QG8nZh98BPEzHLatquJedZPBr5KqBK8AwAAIABJREFUzIim4a0DvgKcSJz4L0tbnOytBT5LnMDeQUzZq5E9QdxBmQu8h/qma89KWxOAwovEamX7EouXfJX8FllJbS3RLi8n5uT+PHGQ1ujdSEynOpe4c/JQ2uJk6QkiqTyAWN3tprTFaZx1wD8Rc+afSCQFJuib2wRcTuyL+xN3UFp9F7jtCUBhaMc4GLiImOO6zW4F/oiYn/vNRPt4K3tiniFOcgcBrwa+Rm/9hzZaQ7TBq4gk/H3A40lL1B9uIh4L7Av8MbGIT5s9AnycuEtSXOh5N65hzqf+9cCPIB4V3FfC725C3Nmt76FjbKfFJfzu+WP8nVVZSL3rge9APCa4hBjYlboPVB2ridv6FzC21QNT7P9Vmc/E67J4jL9zf+JW99XEBU/qflB1PAJcTDxGGhhDO9W9/yflYkDDu7MbHwVOIg7UC4hbbP3QdquINeYvB75BLP+pehUnxMuIVfleA7yC6GdzE5arTI8S68x/F/gv6lu2WD2LiBPixcQdqNcTfexMYvXHptsA/JQ4ll1KPHbTCPrhJFaHDrH++g3EoMGdgbOJHehlwGE0Y43qNcRrLlcSO8p1xDN+5WEF8O/dgHgcdS7Rz84gVvprgmeIK80riH52f9riaAv3A3/djanA6UQ/Owc4vvuz3G0E7iaOZVcAPwSWpSxQE5kAjM9SIsu8tPvnHYFjiJ3neOA44jZ6yvWslxB3L27uxi3dP/vKXnPc141/7P55b3p97Hiiz80l3VieTcTV/a1s3s98q6Y51gI/6AbAdsSy5UP72eHAzCSlC6uJk/0t9PrZbTjIccJMAMqxiriavm6Ln+9JPHub3/2cC+wK7ALM6n7uAkwfw+9aQjz/e3HI53PEgfgh4lbfQ92fq7880Y2hr8ZNIeZjGNrP9mDz/lX895RR/p519PrW0H72NJv3sUfwjZB+s55I6G4FvjDk57PYvI/tC8xh8/41i7ElCsvZvH+9SLyH/yjRx4p+9vS4a6NhmQBU66luXJu6IOpb6+jdKZCqsrgbvp7ZR3wNUJKkFjIBkCSphUwAJElqIRMASZJayARAkqQWMgGQJKmFTAAkSWqhtiUAzntQDdt1c7ZH+WzTzdke1WhVu7YtAdgvdQH60GzGNpNhG9jPyjcvdQEyM52YeU/l2j91AerUtgRgf2KefpXn9akLkKFfTF2APvSG1AXIkP2sXMfQsuS9bQkAwPtSF6CPTAX+OHUhMnQqsbKayrGAWI5bm/sTRr++g0b2odQFqFsbE4A3A7+UuhB94qPEqof6ef8EzEhdiD6wM/C51IXI1OHAR1IXok+8GXhT6kJo284HOiXFSuC0eovfd/4bsRxsWdtkfr3F36aFlFenH9CMtdVzNQX4PuVtj4X1Fn+b5lNenTYBv1Fv8fvOScAKytsm59db/PFr4x0AgB2JJVVPT12QhvpNYqnQgdQFydxLga8B0xKXo4mmAd8AXp66IJkbAD4D/FrqgjTUmcB3gZ1SF0TDK/MOQBGrgV+psxINNwn4OOVvh369A1DEjcT66RqdecDNlL8d+vEOwNA7AX9O7KManbcBayh/WzTmDkCTVJEAFPEVYGZ9VWmk/YAfUd026OcEoAMsJR6baHjnE+vOV7EN+jkBKOI64ID6qtJIM4i7JlVtAxOAClSZAHSAJ4AL8Lb2lrYD3kOcwKps/35PAIq4jHzqmpMDiES8yrZvQwLQIZ5nfwTHn2zNecAjVNv+JgAVqDoBKOIHODYAYnzIm4F7qKfdczkpVp0AdIhHTxcRkyi13WzgE0SbVN3ubUkAiribeOPJi5p41n8V9bS7CUAF6koAivgecHYtNcvLZOCXgdupt73blAAUsRz4K2DPWmqWlz2Jui+nvvZuWwJQxG1EMt+qaW67Xkq9+3QHE4BK1J0ADN15fpv+n+52L+DDxKOQFO3cxgSgiHXAl4GX0N9XawNEUv3vRJ3rbue2JgBFPA78Gf2fcM4Afof6L2KKMAGoQKoEoIjVxPPb8+mf2bd2JsY9XAasJ237tjkBGBqPABfTX1NWFxPW3Efatm17AlDERuBqYmzPrhXXtS5Tief7l1DvXaWthQlABVInAENjBXHSvBDYp8pKV2A+Ue7LqOYVmPGGCcDPx4PEaOXzaNaArsnEM9eLiFcgU7djESYAPx/riWTgvcAJVVa6ArsR54VLgBdJ35ZFNCYBaOMzoTLsBLy2Gx1ioNw13bgWuL/789S2A44kDsandz+blrC0WZGsXQisAm4gDtbXEq97LUlXtM3sQsysWfSxk4jJtpS/ycAZ3QB4jF4fuwa4g0gSUhsADqLXx84ADqG/H5lVzgRg4gaAw7rx9u7PVgB3EuMH7iSu5BYRt3dXVFCGXYn39PcjdoqjgCO6ZeqXxxVttyMxoOmlQ372GHGAvh24i14fewLYUPLvnwzsTfSx+UTfOproZ3NL/l1KZy7w1m5AjNW4m14/u4/oYw8T8zWUbRrRx/YnXg09kuhnh+OMmqUzAajGNOCUbmzpeeAp4AViByo+VwFru//mxe7nZHqDD3fsxq7EOuDF5764Y7TV3G68aoufbwCeBJ7m5/tY0bfWEWtiQNzRKhLFXfj5frY7MUjU40X7TCGWyT1mK3+3nEhCh/axF4h+tmrIvymS0V26n1OJPjb0OLYr0cf6ZUxCI7hD1282vv+tak0mEkOnH1aVphNX5mqoti4GJElSq5kASJLUQiYAkiS1kAmAJEktZAIgSVILtS0BKPvdaMGmbqjHflY+23Rz7nfVaFU/a1sC8EPgLOBb5DFTX5OtB75ITNSxNHFZcvMbwDuJd6Q1Mc8A76M3yZbCUuBg4O/pzR+i8bsGeB1xjmiNtiUAENNcnkcstvJFYmEMjd5aot0OJxYSujttcbK0FvgscCDwa8C9aYvTSIuAPwDmAZ+gN7GMeh4kFvQ5hEgEVqctTuNsIi4GTyGmF74sbXHq18YEoHArcQI7Cvg0XsWO5DFiueD9iHZ7IG1xGmEdsVDJEcR67FfinafhdIAriMVUDiJWRVyTtETN8AiRCMwnVl18PGlp8rcE+BSxX55HrLHRSm1OAAp3A78H7EEcpC9PW5ysbCLa483EweXPiVuyGpuNwFeBc4mrtU8AzyUtUV6WEHdMjgIWAP+Bd+bG42ngo0SS/nKiz7XqmfYIbiIeze0DvJtYxK3VnAq4Zw2xw3wVOB74VeBNtHM61VuJg/AXiasLled+4pn2R4A3EMnVK4HtE5YphdXAd4GvAF/H59hlKhL3y4lHKG8jjmVHJyxTKo8Qx7J/BW5JXBZNwPmkWQ/8COJgfV8Jvz/nuLNbz0PH0UaLS/j988fxe6uwkPrXA9+BuBV5CbF4Suq+UFWsJp6zXgDMGGMbpdr/qzCfiddlPCvx7U88KriaSBJS94eq4hHi8dGZjH254BT7fzLeARjZnd34KJFBn9uNl9DsVfieJZ5JX0FcKTyctDTtVpwYLyNW5jubXj87muaued4hlsS+nOhnP6K3AqHqt4g4MV5MJAMLiD52DjAnYbkmagXRt4p+dlva4jSHCcDodYhb47cCfwdsB5wKvAw4gXhssE+y0g1vEzFo72ZiwMuVxE7SSVkobdVK4NvdANiNOECfQfSxY4gkIUcrif3jZuK1qitwrEOuFgGf68YA0a/OAU4m3pA6iHwTz8eJPnYT8APgeuK1ZI2RCcD4rQd+3I3CbsRB+jjiVvp8ItPei3p2pg3Ao8TO/RBx5+Jm4GfErWU1z7PAl7sBMIkYSFgkAwcSfWw+sTxrHZbR62MPEv3rFuJ1RwfvNU+H2IY/G/KzGcCxRD87gl4fm0s9540O8CTRxxYRA/ZuJvrZszX8/lYwASjXs8TApu9u8fPticE4+wKzurHLkBjLgXsJ8CLxDLD4fI448T+Go3773Ubgrm78yxZ/N5s4SO9Br28N7WtTRvk71rF5Hyv++2niYPz8hGqgJlhG3Fb/0RY/n0wkAfsSjw2K/lV8zhzD71jO5v3rReAF4ji2CAeGVs4EoB5riAy29a+dqFLP48lZ1dpAnJwXpS6IJs55ACRJaiETAEmSWsgEQJKkFjIBkCSphUwAJElqIRMASZJayARAkqQWalsC0OS5+3M1COyYuhCZyXWq3iZz393cjrTv+F2HVvWztnWgg3Hyo7IdBExNXYjMHJG6AH3oyNQFyMxU4IDUhegz2zG+1VAbq20JwCzgdakL0Wd+PXUBMvQrxMFE5ZhCtKk29+upC9BnfpGxTWXceG1LAAA+Tqy/rombB/xe6kJkaC/gT1IXoo/8d2J9A23uPcTaD5q4qcCfpy5E3dqYABwC/E3qQvSBqcAXadkzszH4MHBK6kL0gVOBD6UuRKZ2Ar6Aj+DKcDFwWOpC1K2NCQDAu4D3py5Eg00iTv5npi5IxqYC3yISTo3PocBleIIbzkuAfyb2SY3PB4F3pi6Ehnc+sUZ0mXEx7U2Cxmsn4FLK3xa53MpcSLn1egETpfE4FXiGcrfFwlprsG3zKX//+S5jW1ZcMAB8hPK3xfk11qE1qkgAOsDXiMGBGtmhwM+oZjv0awLQAVYBb6+zEg33TmA15W+Hfk4AOsBNxJtOGtls4JtUsx1MACpQVQLQAR4HfqG+qjTOIPHYZCXVbYN+TgCK+E9g9/qq0jh7AF+nuvbv9wSgA6wgEijvbG7bq4AnqG4bmABUoMoEoIjLiJHt6jkeuJbq274NCUAHWAK8l3i1TWEyMaJ9CdW2fRsSgCJuJB6jqGdv4BKqb3sTgArUkQB0gLXAZ4hXudrscGJn2UA97d6WBKCIh4ALaffEVIPEfn0P9bR5mxKADrCRuKg5rp5qZWs34CLiUVwd7W4CUIG6EoAiVgGfon2vhpwN/Adx8KizvduWABRxD/DbtOt1yunA7wD3Um9bty0BKGIj8BXijYE2ORz4NPWd+IswAahA3QlAEZuAK4Bfpn8nEJpDTOhzO2nauEN7E4AilgJ/D5xQfRWTOYlIqpeSpo3bmgAMjduI8TyzK69lGjsCbwWuJF0bmwBUIFUCMDSWEbfFX0Pzk4FdgbcB3wbWk75t254ADI17iImEjqq4rnU4mnjVqu6r/a2FCUAv1hHzVPw34ljQZDsC5wH/AiwnfduaAFQghwRgaKwCvgP8PrFQSe6jbqcApwN/BlxHfc/2RxsmAFuPR4HPAm8knmXmbnfgl4DPAY+Rvv2GhgnA1mMDMdD3Q8Bp5D9AdZBIjt9DzH9QxSujE4nGJABtHoA0UTsAr+wGxAjma7txC3An8EiaojEJOJDYSU4AziBuv26fqDwav7nAO7oBcSV9XTduI/rZ8jRFYwax8uHRxIjz0/E99CaaRJz4TwM+RpxQbwSuBm4mHg0+QIwlSGE/4iLrOKKPnQ7snKgsfcUEoDwzgVd3o7CUOEA/ADzcjUeAJ4HFxCxx49mpphKTF+1KnCDmETvJfsQB+HA82ferQ7rx690/d4h+dTewiF4fewx4muhj400QZhD9bA9gX3p9bH+ij80b5/cqbzsAZ3WjsAa4C7iPXh8r+tkLxPFs7Th+1yTiODaLePNqHtHH5hEXMUfgyb4yJgDV2plexrotS4kdaDWxkxU/20Tcitup+7NpxI45i3aNGNfwBogT8v7D/Jv1RB9bRa9vrScmjYHoT9sRt1Z3JvrcLFzSWD3bE3OCHD/Mv1lBJAKr6fWtlcR4g6JvQRzHtidO/J7cEzIBSG9n3AlUre1wOV1VbxpenDRK7gPXJElSBUwAJElqIRMASZJayARAkqQWMgGQJKmF2pYAPAk8nroQfeZWeq8vKtxMvGancqwn2lQ9a4h9T+V5nDhHtEbbEoC7iGk4f42YUU3jdw3wOmJ2rtWJy5Kbi4CDiMV9bJvxWwt8kZh06KLEZcnNauBY4OXE7KMav0XAHxD77F2Jy1KrtiUAEFcTlxAzTP0KMZ2qRu/7wEuBM4m1xjtJS5OvR4i5yucDf0266XqbaBnwCWJGuAuImTS1dZcTU32/jHzWOmiKW4mVAw8CLqaFdzLbmAAUNgJfAo4BTiQWXPFqbeuWEu1zDPAK4Kq0xWmUp4H/DuwNvJNYJ0JbdzfwPmIa2PcBzyQtTbP8EPgF4FAieXohaWnytQ74KnHn5Djgy6Rb40BjUMZqgCNlyDOBC4n5+1OvKJVD3Nhtj2I64m1ZXMLv6qfVAEdaDewE4DPEdKmpt3HqWA18BVgwQpvVsf/XpYzVABeP8Du2J9ost9UtU8X9wHuBOSO0Wx37fzacCnhzS4gr3c8SjwjOB36VWJSiLe4iMuR/J67IVL6biLsBfwicS/SzNzJyotUv1hC3rr8KfIO45a9yrSHa96vEOhGvI/rZGSkLVbPHgK8TbXANcXJWQ6W6AhgATiGe495bQhlyiw3ADcD7iWdh4+EdgIlfAUwnnkf+B5GIpu4XZccS4kD8FsY3X7x3ADaPke4AbMvBwAeBnxK3vlP3i7LjHuCTwMnEsXusvAOgzXSAn3TjT4lFVc4iblm+iliOt2keIq7ALgeuYPwHE5VnOTEm5UvEEqnHEn1sATHgsmnLO28gBlkV/ewqfDUyB/cBf9mN6cTFTdHPTkhYrvF6luhblwPfIwbfapRMAMbuaXq31gAOI3acYqnMY8lrdb+niXeoi/gpzoWQu43EY4KbiAFdOxIDVY8fEocSiUIONhBXXkP72Y04qDZ3y+klaAD7EFfOQ/vZ7mmKtlVLiUG0RR+7ieh3GicTgIm7uxv/0v3zAHAAcYDen7jdV3zOJQYalqkDPEdkvouIq/vi8y5aNrFFn1oF/KgbhR2BI4m+tmU/24Py7xisAZ4i+lbRvx4CHgTuwJN9P3i8G18b8rO9iPFQW/axfYkBdeO5zT6cF4ln91sey+7pfnZK/n2tZgJQvg7x3vK23l2eBOzSjVndz+lj+P4Xu7G4+7lk3CVVk60ixm7csI2/34Fe/yr62pRRfvdafr6feYJvpycZ/iJiJpsfy3YZw3cvp9e/ir62aXzF1HiYANRvI/B8N6SqrAae6IZUlSXdWJS6IBq7Nk8EJElSa5kASJLUQiYAkiS1kAmAJEktZAIgSVILmQBIktRCTUoAypgAouxJKyRJ/aNV54gmJQDLS/iOkZaC1NjtQDlTH68p4TvKUEY/262E79Dm9ijhO9aW8B1lKGP1w51p3voQTVDG1Me5HMtG1KQEoIyJcw4BZpfwPeo5jXL60coSvqMMz5XwHW1acrUuZbTpihK+owwvEhOCTcQgcGoJZVHPHGK1xInK5Vg2oiYlAGUcmKcCF5bwPep5dwnfsZxY6CMHZfSzNxJzqKsc+wBvKOF7cpkVcSPlrMBZxr6nnncy+umyh+NiaxWYCqxj4ms1ryAWUNHEnUc5a3jfXHfBh/E7lFOnb9Zd8D52GeVsk9+uu+DDuIVy6vSaugvepw4krtwnuj3WEucqVeBaytlpbqP8Vfna5kDgGcrZHv+z5rIP5yjKqVMHeF/NZe9HH6S87XFEzWUfzj9QTp2eIx5tavxmUF5C9uOay94qf0l5B4MfMLZV+NQzn1j8o6xtUcbt3bIMAM9STr02EbcVNT6/Q7RhGdviGfIa4f1LlLf/PEQs06uxmwFcRXnb4mP1Fr9dXk55G6pDZH1711qD5juV8q78O8Tz0Fm11mBkX6XcfvYx8jr55G4A+DjlboOv1FqDkc0m+n5Z9XsaOKnWGjTfXOBWyu1n59Zag5bZDniMcjfYs8Dr6qxEQw0A7yFecSmz/b9VZyVG6Q2UW8cOsBAHBo7G7sB/UX7757iPf4dy67gGeC/NGtydyuuJxydltv/jxDlKFfozyj84bAI+h68IbsuhwBWU3+4d4BU11mO0JlHuI44ingXehncDtmYAuIDyD8od4hb5pPqqMmqvppp9aiHlvM7Wj+YA/5tq2v0DNdajtXaj/KvQIl4A3oVZXGEm8EliZGsV7X03+Z4M/5Rq6twhBgqdWF9VsncScA3Vtfcf11eVMRkE7qOaOq8F/opyJunqB1OI1yYXU017r8YLyNqUNYJ2W7EIeAftTQRmAh8hJiypsp3fVlN9xmMm5Y512DI2AZcCJ9RVoQydQLziV9ZAv63FU+R9Evx1qt3HXgT+P/JugypNIeZ+eZhq2/l/1FQfESM3n6DaDVocPC4iBou0wcFEfavKkofGj8j36r9wAdW3Qwe4sfu72pBwTiLmj1hItSf+In6lnmqN2wDxRlLV7bAM+Azxmmsb7EGMh3iEes4TbU2wknkr9RycO8QERP9JzPDWb/NvzyIy5B9RX3uuBQ6ro3ITNABcSX3t8jjwCeCYOipXs2OJx0l1JO5FXFFLzSbuCMqZ5Gw0sQn4IXGHc5ca6lanHYA3AV+nvvbsAG+uo3L6eZdS30YuYgnwz8RGb+oONJc46V9Gdc/3h4s/q76KpTmYmKa47ja6g3h98DTyHMA2kknA6cBfAHdRf/stBQ6qvJbl+TD1t9Fa4hj6DmK65SaaBfwy8EXS7Kdfr76K2pYZpDm4FLGeuHL+KDGafUa11R23PYiJR/6OmAUxVXt1iDspud/639J5lPvO9ljjeeBLxADVo8kzIZhE3Ln4XeDLxIDaVO21keZNkTsIfIO0++atxDHijZSz+mIVZgCvBP4cuBrYQLr2uoOGTybXtAPx1hwI3EAeV+MbiU5xS/fz9u7nkzX9/kFiRrCjgCO7nyeQz9oHtxGruuWyKttYvJ+YnCYHy4g+fxu9fnY39a1CthNwOJv3s5PJJwF+H/EopWmmE9OdH5m6IF0PEOt03Abc2f18mHiMUIe9iccjRxNtclz3zzkkwC8ApwAPpi7IRPRDAgDwMmJCmR1TF2QbVhNvFjzSjSeJDrR4yOdqeutILyEyzO2Aad2f7UTUbxawa/dzFrAvsF835lLOalZVeAQ4u/vZRAPEXBG/lbogw3iGXh97tPvnof1sFb2+tY5ewjCN6GsDxNsPO9LrY7sSV4NziT42j3gVN1efo9krfu5PTE2b68DjdcRkbEP72dDj2AvEsazoWyuIO6VF34IYR7UDm/exWcREWUUfm9f9NzlaSczh8KPUBVHPWaR5BmSMHA8R6wc03QCxcFHq9jS2Hv9If8yCtx9wP+nb0/j5WE5ccCpDJxDPS1N3EqMXd9Nf6y0MAH9D+nY1No9PDrfRGmgP4vFO6nY1evEicdtfGTsKs+dc4gr6d3asPyJubaZu47bHOuAPRthWTbUb9cwRYIwc95LXctIaxnTKX9HNGH1sAi4GJo+0oRruLGI8R+r2bms8A5wz4lZqtknErJwp30Jpe3yT3vgFNcQAMRNUnRNCGDEQ6LxRbJ9+sScxsUrqdm9bXEmsHNgWr6f6qbmNzWMdsY5EvwyWb6WjgOtI35naEJfRX8/7R6tYyS7lu+9tiSXEstT9MNhvrPYALiH9NmhD3AQcP7rNotwNEq8G+ZZANfEEMXlI2+2JB+gq4zLyfT2uTq+h+sVt2horiDvHOcw1oJLtQ7wn7OCtcmIp8XyymKtA4dXEZFCpt0+/xM3Aq8a0BfrfdGIG0mWk3z79EOuAz9LOO5itM49YGSvlNJJNjpXEIL+cJ4RJbYAYC/Ez0m+vpsZdxKOVNt7uH61diSTcRGB8sRH4Cs1aN0IlOQL4AjFzVeqO2IR4jlguuE2DryZqEvCrxNS9qbdfU+InxGqfnvhHb09iLgTnQRldrAI+TzNWJVXFZhIDixaRvmPmGDcRYyhynWq5KU4g7jytIv02zS3WEldiZ4y7dQUwFTifWFMg9TbNMR4n7pj06/wkmoBJxG3bLxGDQVJ31pTxNPAp4NQJtai2ZjdiIqGfkH47p4xNwPXAHwJzJtSi2prTgE8T8yWk3tYpYznwr8Br8a6SRml7Ihm4hOhAqTtxHbG4W9/ziMVhVL19ibtPV5N++9cVdxJXYT53rccgcCYxbqctycBq4q2RC3CQ8jY5wcHo7EDcmlzQjePoj0xyA7EG+OXduIp4Q0Jp7EHMLriAeNWrX0YkP0dMlnQ58D2auyJkP5gEHEvvWHYW8digHzxE71j2XeLCTcMwARifOcQUpKcSz3WPJV7Lyd1zxPP8m4hnhFdR3xryGpsBYh30lwInEv3sEPJPPDcR86bfBNxInPhvI67KlJ9pwEuA04k+dgLNeByznHjV9ibiUdqVxPFNY2ACUI5B4uB8AnHQPgg4ADiQNGtaLwEe6Mb99HaURxOUReWZRtx9OoEYvXxgN/ah/sRgEzGgquhndxN97BZi/Iyaa18i6TyOOJYV/WznBGVZTa+PPUDcsbwJuI/og5oAE4BqDRC3cQ8kZjCbTQwA263733OAWcTz9sn07iLMIG7VrSVGjEOc1ItnW4uJ132eIbLe57ufi4id5Plqq6XMTCUSzgOIxwi7EX2r6GNz6B28dwKmsHl/W048DlpH747QEnr9qvh8lhgc+mA31lZYJ+VnNnEs25/N+9fu3f+eRVzwDNBbPGdHon9uJOYqgF5/W08cy4o+NvR49hhxLHu84jpJkiRJkiRJkiRJkiRJkiRJkiRJkiRJkiRJkiRJkiRJkiRJkiRJkiRJkiRJkiRJkiRJkiRJkiRJkiRJkiRJkiRJkiRJkiRJkiRJkqRcDKQuQMW2Bw4G9gamATPp/zpLksZnE7AUWA48AdwHrE1aogr128lwJvBq4GXA2cABwGDSEkmSmmoT8CBwFXAl8G0iQegL/ZIAnANcCPwicdUvSVLZ1gDfBD5LJASN1vQE4FXAh4FTUhdEktQq1wMfBb6buiDj1dQEYG/gr4C3pS6IJKnVvgW8G3g4cTnGrIkJwBuBzxPP+yVJSm058E7gS6kLMhaTUhdgDCYBnwL+Bp/zS5LyMRX4JWBX4PtAJ21xRqcpdwCmAv8CvCl1QSRJGsY3gbcCq1MXZCRNSAC2Ay4FXpm6IJIkjcJ3iLfS1qcuyHByfwQwCFzYkrpXAAAGQUlEQVQCvCF1QSRJGqWDgP2Bb6QuyHByTwDeC/xh6kJIkjRGRwMrgGtTF2Rbcn4EcAbwQ2By4nJIkjQe64GXEHMGZCfXBGAKcCtwaOqCSJI0AfcRdwOyW1Mg10cAHwDOT10ISZImaFdgJXB16oJsKcc7ALOIGZWmJy6HJEllWAbMA15MXI7N5LhS3h/gyV+S1D9mAL+fuhBbyu0OwFRiDeZdUxdEkqQSPU+sY7MudUEKuY2wfy3VnPxXAXcAT5PhQAxJUhamAnsARwI7lvzds4FXk/ncACl9jZhDuaz4GTE/8w51VkKS1Gg7ElPP30a556Sv1lmJJpkMLKWcRt4EfJg8xzhIkpphEPgocU4p49z0Ivm+fZfUKZSXZf1uzWWXJPWv36e889OJNZe9EX6Pchr3kroLLknqe/9GOeeod9Vd8Cb4BybesKuIUZaSJJVpLrHE70TPUxfXXfBtyekZ+YElfMe3idcIJUkq02PEMr8TVca5rhQ5JQC7lPAd3y3hOyRJ2poyzjGzSviOUuSUAJQx+9/DJXyHJElbs6iE78hmptucEoDtS/iOrOZZliT1lcUlfEc289LklABIkqSamABIktRCJgCSJLWQCYAkSS1kAiBJUguZAEiS1EImAJIktZAJgCRJLWQCIElSC5kASJLUQiYAkiS1kAmAJEktZAIgSVILmQBIktRCJgCSJLWQCYAkSS00ueTv2w44HjgCOBjYE9gJ2HkU/++eJfz+/wUsK+F7JEna0owSvmNPYOEo/t1SYCXwFHAvcBdwM7C+hDIAMFDCd8wC3gK8DjiTOOFLkqRyrQR+DFwK/DuweCJfNpEE4FjgvcAbgKkTKYQkSRqTtcDXgYuAW8fzBeNJAA4E/hY4b5z/vyRJKkeHuCPwx8CDY/kfJ43h304GPgT8G/GM35O/JElpDQCHAu/o/ve1wKbR/o+jsQ/wJeIZvyRJytNPiHF5D4/0D0eTAJwIfBuYM7EySZKkGjwDvAa4abh/NNI8AOcCP8CTvyRJTbE7ce4+Z7h/NNwdgJOBK4BpJRZKkiTVYxXwcmJcwM/ZVgJwcPd/2LWiQkmSpOo9D5wGPLDlX2wtAdieOPkfV3GhJElS9W4HTgFWD/3h1l4DvJiY1U+SJDXf7sQ0xt8Z+sMt7wCcBFyPiwRJktRPNgGnE68JApsnAIPAjXjrX5KkfnQjMcC/A5tf6b8BT/6SJPWrExnyiH/oHYAbgRNqL44kSarLT4m7AP/vDsApePKXJKnfnUTcCWBy9wdvq+CXPAd8C7iNmJZwQwW/Q5KkfjOZGLl/DPBaYHbJ338BcdefAeIE3SkpngfeBWxXcoElSWqbKcDvAS9Q3nn6SbpDAI4q8UvvBPavpg0kSWqt+cBdlHe+Phzg3SV92RPA3pVVXZKkdtsHeIpyztm/O0jcASjDhUQSIEmSyvc48NslfddRAFcx8UziupIKJEmShvcTJn7e/sEgMK+Ewny5hO+QJEkjK+OcO28QmF7CF11TwndIkqSRlXHOnTEITCvhi54s4TskSdLIyhhvN32Qct7XXz3yP5EkSSVYVcJ3bOeyv5IktZAJgCRJLWQCIElSC5kASJLUQiYAkiS1kAmAJEktZAIgSVILmQBIktRCJgCSJLWQCYAkSS1kAiBJUguZAEiS1EImAJIktZAJgCRJLWQCIElSC00u6XtmlvQ9kiRpeKWccweAtcCUMr5MkiQ1wppBYGnqUkiSpFotHQQeTl0KSZJUq0WDwO2pSyFJkmp1xyBwVepSSJKkWv1wAJgFPAlMTVwYSZJUvXXAXoPAYuBbiQsjSZLqcSnwwkD3DycDP0lYGEmSVI+TgZ8WMwHeAHwtYWEkSVL1vgr8FGIioMJc4Dac1U+SpH70InA08DhsvhbAY8BvAZ0EhZIkSdXpAL9B9+QPMGmLf3A3sAp4eY2FkiRJ1fpT4AtDf7BlAgBwLbAE+AU2f0QgSZKapQO8H/jrLf9iawkAxBsBdwCvALavrlySJKkiLwJvBT6/tb8c3NoPu75GDBbw7QBJkprlq8Q5/Jvb+gejvcV/MvDfgfNw6WBJknK0FrgM+CTdV/2GM9Zn/LsCrwLOBo4C9gdm4GMCSZLqtAZYBiwiXuG/CvgOMbvvqPxfrGnU29hEf4MAAAAASUVORK5CYII=;" vertex="1" parent="1">
          <mxGeometry x="51" y="70" width="42" height="42" as="geometry" />
        </mxCell>
        <mxCell id="41DwftxlrVXNSMgh1K6p-10" value="" style="shape=image;verticalLabelPosition=bottom;labelBackgroundColor=default;verticalAlign=top;aspect=fixed;imageAspect=0;image=data:image/png,iVBORw0KGgoAAAANSUhEUgAAAgAAAAIACAYAAAD0eNT6AAAABHNCSVQICAgIfAhkiAAAAAlwSFlzAAALEwAACxMBAJqcGAAAABl0RVh0U29mdHdhcmUAd3d3Lmlua3NjYXBlLm9yZ5vuPBoAACAASURBVHic7d13uF1Vmfjx703vhU5oIRA6KKAgAooQy6goFkQdxTo4MxYYFZmZnyOMjjP4qCg6OjLWQbEAY8MOIioqDh3pQigivSQk4Sak3N8f6165JLnJPefs/a5dvp/neZ8E8PHda5199nrP3muv1YekNpgIvBx4DrAfMG/Yf7sduBL4JXAO0B99cJIkqVjTgH8HHgAGRhEPAx8HZuY4WEmS1LvDgIWMbuBfO+4CXhx+xJIkqSdvAlbT3eA/FGuAd0UfuCRJ6k4Rg//wIuCdsYcvSZI6dQSwkmIG/+FFwCsjGyFJkkZvB0Y/2a/TeBTYM64pkiRpNCYDl1PO4D8UNwGzohokSZI2rA/4JuUO/kPxE2BsTLMkSdKGfIiYwX8oTotpliRJGsnfETv4D8VJEY2TJEnrejXFve7XaawB3lJ+EyVJ0nCHA8vJM/gPxSrS/gKSJCnAIcAS8g7+Q/EYae0BSZJUokNJ7+TnHviHx3LgJWU2WpKkNjuM6vzyXztWAEeV1nJJklrqr4B+8g/0G4rHgVeU1QGSJLXN0aRf2LkH+NHESuD15XSDJEntcTz5XvXrNtYAp5TQF5IkNV4f8BHyD+a9xJeA8UV3jCRJTTWRuLX9y46fATOK7R5JkppnDvA78g/cRcblwPZFdpIkSU1yMHA3+QfsMuJBYEFxXSVJUjMcR31m+ncbq0ibCPUV1GeSJNXWJOCL5B+cI+ObwNQiOk+SpDraHbiK/ANyjrgW2Lv3LpQkqV6OBZaSfyDOGf2kdQ58JCBJaryZwNfJP/hWKX4CbNVLp0qSVGXPAu4g/4BbxbgLtxWWJDXMZOBU0iz43ANtlWMNcAYwvbtuliSpOg4GbiL/4FqnuB14bhd9LUlSdlNIv/rrtpFPVWINcCYwu9OOlyQplxcBt5F/EN1Q3Ao8E7i+AseyobgTeGln3S9JUqxtSL9acw+aG4sbgW0Hj3kL6rEWwXnAjqP8HCRJCjGe9D77o+QfKDcW15E2HBpuFvXYgOgx4BTS6omSJGX1HNKgmntwHE1cCmw6QjtmABdX4BhHEzcBzxuhHZIklWoX4GzyD4ajjQtIixBtyBTg+xU41tHG+cA+G2mTJEmF2IQ0u385+QfA0cb/kB5TjMZY4DMVOObRxmrSvAtXEpQklWIicCLwCPkHvU7ig3S31v4/kV7Fy338o43Fg8c8uYu2SpK0jnHAW6nfEr4rB4+7F68DVlSgLZ3En4C3Mfo7HpIkPckY4GjquYrfQ8CCgvrhmcA9FWhTp3E7cBypgJMkaVQWAFeSfxDrJq4B5hXcH9sAv69A27qJG0hbL48puE8kSQ0xBnglcAX5B61u41xgWtEdM2gycFYF2thtXAUcg4WAJGnQeOANpF+KuQepbmM18C90N9mvUyeS5hfkbnO3cRPwZpwjIEmtNYF0a/hm8g9KvcT9wAsK7puNeRZwVwHHnjPuIK3eOKXgvpEkVdRmwPup58S2teMXwNbFds+obQ78ZBTHWPW4DziZtCeCJKmBdgZOB5aRf9DpNdYMtiX3bew+0q/ox8nfJ73GctKCQnsV2kOSpGwWAD+kXovabCj+THGv+BXlWaTX7nL3TRGxhnRn43nEzKmQJBVoOukd8KvJP6AUGecw8mY+uc0AziB/HxUZNwMnUd0+lyQN2p10a3wJ+QePImMxqaCpg1cAD5C/z4qMftLGT88ssJ8kST2aDLwe+C35B4oy4ufAdoX1Vow5wI/J33dlxCWk10Z9e0CSMtmTtCvfg+QfFMqIpaTbz3VeuOZomvv5LCZNGlyAcwUkqXSzSbfC67xa32jih8D2BfVZbluSbp/n7tMy4wZSsbZlQX0mSSJtw/sy4NvUb2e6TuN+4LXFdFvlvIJmrL2woXgc+C5pSelJxXSbJLXLGOAw4AvAI+S/sJcda4CvkBYparLZwH+Tli7O3edlxyLgS8ARwNgiOk+Smmxf4KOkPd1zX8Cj4mrgkCI6r0YOBC4jf99HxZ+B04CnFdF5ktQUewKnADeS/0IdGUsH2z2h1w6sqTGkvRia9srgxuJ20quqh+DkQUkt9HTgI8Ct5L8gR8ca0uzxrXruxWbYnHSrvA2PBdaO24CPAc/AYkBSQ40nPQs9nXTRy33hzRUXAwf02JdNtR9wEfk/o1xxJ/CfpCWI23pXSFJDTAWOJP3abcNEvo1d3I/FX3mjsQC4lvyfWc5YBpxHeuXVVwsl1cKewHtIq9etJP+FNHcsAt5HepVRozcBOAF4iPyfYe5YSdr2+URg7146VZKKNJX0i+104A7yXyyrEitIG+P4660300kL7Cwm/2dalbiPtLDSsaTXKiUpxDjShijvB36Fv/LXjseBzwHbdNvBWq+tgE/R/IWgOo2VpHklHwAOJs21kaTCzCM9izwbn+WPFKsH+2d+l32s0dmOdGfFwnP9sQw4n3TXZH/qvY+EpGBjgH2Ad5AGtPvJf1GrcqwGvk6a+6A4u5Iml1oIbDgeBM4F3gU8FVcklDTMONIvheNJA35Td24rOoZ+8e/WeZerQHNJ80+Wk/+cqEMsId0hOIU0d8f9ClrO15LaZS7pPfQDSIvxPA33Ne/ESuAs4MPALZmPRU/YEfgn4A34Dn0n+oHLgUuB/xv889asR6RQFgDNNZP02tDBpGVHn46z0ru1jDTwfwz4Y+Zj0ci2Av6WdEdrVuZjqatHgT+QCoOLgV8D92Y9IpXGAqAZppI20tl/WOyOn2+vHgA+C3ya9E666mE68GbSu/O+kdG7e0gFwVD8Bng46xGpEA4Q9bM9adLZ3oN/7kca7J3gU5xbSLu3fYV0m1T1NJH0vvx7SBMHVYw1pM27riCt2ngtcB1poyPViAVAdc0mDfB7DPvzKaTNU1SO35AmlX2bNNFPzdBH2ovieOBFeN0ryxLgZuB6UkEw9OfCnAelkflFyG826Rf8XoMx9OvegT7GY8DXSLf5r818LCrfbsA7SXcGpmU+lrZ4iDSv4Lphf16PjxGyswAo31jSAiY7kRbVGR474XKeudxGWlTm83ghaqNZwFtIkwZ3znwsbbWIdHdgIentg4XD4k5gVb5DawcLgGLMIr1iNzSoDx/kd8AlOqtiFfAD0sD/M9KzTLXb0OOBtwEvxe9qVawkFQEL14pbSXMNHsl2ZA1iAbBhk4GtgTkb+HMb0it3qq67ga8C/0XatEhany2BN5KKgR3zHoo2YgXpzt3dpLcU1v7zkcG/34HzeUbUlgJgNmmQXjtmDfv7bGAL0rvE2wz+3V8D9fU46df+l4Ef40VAozcGeB7wJtJdAbdzrq9VpB0U7yatZ3A/qXBYvIFYNBgDGY43VJUKgPGk9aq3Jg3AMwb//dhhf4cnPzOfwROvv00hfVEn8uSB3V/n7XIV6fW9s0hLG0u92AR4DakY2D/zsSjW2oXBctIPi2WD/33N4L8fMrxoWMITcxiWAH8m3Zm4mnT3QoMOJ12s3WnO6DbuI72+ty9SefYGPkG6kOc+5416xmLgW8Dzabk9gJ+Q/wMx6hmPAF8k3ap1ESRFGkv64fLfpFfccn8XjHrGz0lru7TOC0mVUO4PwKhXPAacBxyNz2VVDWNJe22cgdc0o/PoJ61J0RpvJU3Iyt3xRj2in7Qy36tw50JV2yTg5aStopeR/7tj1CPWACfQAoeSJkDk7nCj2rGKtBPZcTx5AqhUF5OBI0nFwHLyf6eMasdq0vkSKvItgBmkrVS3CMyp+ngMuIB0i/87uPuemmM26XXCI0lzVlyCWOuzCNiFtAtp43yY/FWWUa24DziT9Ezfi6LaYBxpzsCpwE3k/w4a1YrTCRR1B2AmaSEGn+G22xrSfuLnkRbpuTLv4UjZ7QO8eDAOJC1CpPZ6nLTl+325D6RIryF/ZWXkiceA80lbsW6DpJFsSrobdiZPLCpjtC/+hiBRdwC+TioC1A7XAxcCPwQuIk2CkjR6E4Fnk16ZPoK0TXiVVm5Vec4DXhKRKOqEupp0q0vNdA9p1v4FpHX3/5T3cKTG2Rw4DFhAmkOwR9ajUZkWknaVLV1UAfAAsFlQLpXvAdIv+wuA3wDXZT0aqX22JhUCC4AXkJ4bqxn6CZovF1UArMbJLXW2CPgl6bb+haQBfyDrEUkabg/S8sSHkx4dbJL3cNSj6cDSspNEFQAOFvVyB/Bb4JLBP6/E7XSluhhD2ln1mcAzgIOAeVmPSJ2aCTxadhILAK0EriHdyr8c+BVwe84DklS4LYEDSFsaH0wqDnwtu7osAFSKe0gD/cWkQf8ynKUvtc1YYDdSMXAIqTDYHd80qAoLAPXsz8BVg3E56Zb+PVmPSFJVbUl6ZLA/6RHCU3ByYS4WABq1VcCdpPfvLx+MS4F7cx6UpNqbCexNKgr2IK1HsD9p50OVxwJA67UEuJknD/ZXkFbck6SyjSdtWjO8KDiQtFaBimEB0HJ3kTYLuXnwzxsH/3479qek6plLKgx2HRa7ANvh3IJOWQC0wArgVtJ79QsH43rSyolLMh6XJBVlArAt6U7BHqRXEvckPVqYkfG4qswCoAEeJ/2Sv3Mwbhv88w7Sr3mXzJXUZnNIdwrmAjsMxvaDsR1pT4Q2sgCogeWkbY6Hfr3fs9Y/34EL6EhSt2aT7hjMIS1/PG9YDP27JrIAyOQR0kD+CGkwH/r7SP8sScpjEmnZ49mkYmDO4N/X/uetSY8hJuQ5zI5ZAHRoBWnN+qWDfy4ZjKWDfw79t6Vr/W+WAg8C95EGdUlSM80irXewGTCNNAdh5uDfh2L2Wv88c/B/N/TfIl6BDCkAogwExBfCWiNJaqPTiBnPQiZHukOfJEktZAEgSVILWQBIktRCFgCSJLWQBYAkSS1kASBJUgtZAEiS1EIWAJIktZAFgCRJLWQBIElSC1kASJLUQhYAkiS1kAWAJEktZAEgSVILWQBIktRCFgCSJLWQBYAkSS1kASBJUgtZAEiS1EIWAJIktZAFgCRJLWQBIElSC1kASJLUQhYAkiS1kAWAJEktZAEgSVILWQBIktRCFgCSJLWQBYAkSS1kASBJUgtZAEiS1EIWAJIktZAFgCRJLWQBIElSC1kASJLUQhYAkiS1kAWAJEktZAEgSVILWQBIktRCFgCSJLWQBYAkSS1kASBJUgtZAEiS1EIWAJIktZAFgCRJLWQBIElSC1kASJLUQhYAkiS1kAWAJEktZAEgSVILjct9AJJKNQvYFdhh8O/TgKmDMRtYBCwbjCXAYuAO4Gbg4QzHKymIBYDUHDsAhwMHAbsAuwNb9PD/9wBwE3AjcAnwC2Bhj8coqSIsAKT6mg4cSRr0nwPMK/j/f/PBOAR46+C/u4NUCPwcOI90x0CSRjQQEF8Ia42UzxjSgHwG6ZZ9xHdrpFhOKgKOBsaX2WipIk4j5rs1I6pBESwApN5sCfw78GfyDvojxb3AR4E5ZXWAVAEWAF2wAJC6sz1wOmmSXu5BfjSxAjgTmF9GZ0iZNaoA8DVAqZq2IRW1fwTeBUzJezijNgF4PXAd8BVSASOpgiwApGoZBxwPXA+8hTSg1tF44A3ADcApwMSsRyNpHRYAUnUcAlwBfJLmPAOcApwM/AF4XuZjkTSMBYCU30TSc/5fAXtnPpayzAd+AnwOmJz5WCRhASDltgNwEek5f1/eQyldH/A24DJgz8zHIrWeBYCUz1HAlcAzch9IsD1IKwv+de4DkdrMAkDK40PAd0jr8bfRNOBrpLUDmn7nQ6okCwAp1ljSc/D35z6Qingvad0AVxKUglkASHEmAl8nPQfXE14H/Ii0t4GkIBYAUoxJwA+BV+U+kIpaQHpLYGruA5HawgJAKt9Y0vPuI3IfSMU9E/geLhokhbAAkMrVR3rm/4rcB1ITRwBfxmuTVDq/ZFK5Pgy8NfdB1MxrgE/nPgip6SwApPK8Dvin3AdRU38P/E3ug5CazAJAKsd84DO5D6LmPgU8NfdBSE1lASAVbxLwLZqzoU8uk4CzsR+lUlgASMU7Hdg390E0xHzgv3MfhNREFgBSsZ4LHJf7IBrmGNK+CZIKZAEgFWcCzl4vy6dI+wdIKogFgFSck4Bdcx9EQ20H/L/cByE1ybjcByA1xDyq+crf46Stdy8GbgBuAh4AFgOPAVNIk+w2B3YBdgcOBg4iTcKrkneTNg66IfeBSBq9gYD4QlhrpHV9i5jzfDSxAvg26bn5lC7bMxk4kjQLv78CbRqKH3TZHqkIpxFznjfqzRcLADXZbsBq8g+OS0hvIMwpuH2bAacAD1egjQPA/gW3TxotC4AuWACoyb5C3gFxNWm/gU1Kbucs0iTHVRnbOgCcW3I7pZFYAHTBAkBNNZf0nD3XYPhH4MCyG7mW/YDrCzj2bmM1aa6CFK1RBYBvAUi9OREYnyn3t0i3w38fnPcK4OmkCXk5jAH+MVNuSR3yDoCaaBLwCHl+BZ9O2mo4t5OANcS3v5/0SEKK5B0ASUCaZZ9jEHovcDzpQpHbR0g790UfyyTgFcE5pUaxAJC6d2yGnB8CPp4h74Z8DvjnDHlfnyGnpA75CEBNsxWwktjb3rmeuY/W54jtjzWkSZhSFB8BSOJoYlfSvAH4u8B83TgBuCowXx9poyBJXbAAkLpzRGCuVcBrgGWBObuxHHg1aSXCKJGfg9QoFgBS58YCzwrMdzpwdWC+XtwEfDQw38HAxMB8UmNYAEid2xeYHZTrfuBfg3IV5d+Bu4JyTQGeEZRLahQLAKlzhwfm+iRpjf866Qc+FpjvOYG5pMawAJA698ygPI8Cnw3KVbTPk7YdjnBIUB6pUSwApM5FrUN/NrA4KFfRHgO+EZRrt6A8UqNYAEidGQ/sGJTrq0F5yhJ1/HOA6UG5pMawAJA6M4+YzX8eAi4OyFOmy4iZDNgHzA/IIzWKBYDUmV2D8lxEWumu7i4MyhP1uUiNYQEgdWZeUJ5fB+Up26+C8uwUlEdqDAsAqTMzg/JcH5SnbDcE5QlZO11qEgsAqTPTgvLcFJSnbDcG5XESoNQhCwCpM1EDzT1Becr2MDF7A1gASB2yAJA6EzHQLCdtNdwUESsZWgBIHbIAkDozNSBH1Xf965QFgFRBFgBSZyK+M6sDckSKaI/XMqlDfmkkSWohCwBJklrIAkCSpBayAJAkqYUsACRJaiELAEmSWsgCQJKkFrIAkCSphSwAJElqIQsASZJayAJAkqQWsgCQJKmFLAAkSWohCwBJklrIAkCSpBayAJAkqYUsACRJaiELAEmSWsgCQJKkFrIAkCSphSwAJElqIQsASZJayAJAkqQWsgCQJKmFxuU+ACnQpsCLgacCWwKbd/H/8dRCj2j9ZgHnB+SJMicgxz5012cPAfcCfwC+DzxQ5EFJVWYBoDY4APggsAAYm/lYRmMC6Vg1erPpvc9WA78EPgD8pucjkirORwBqshnA14FLgOdTj8Ff+YwFDgcuBs4lFRVSY1kAqKnmAb8FXgP0ZT4W1c8rgEuBPXIfiFQWCwA10VbARcCemY9D9bYT6ZHAvNwHIpXBAkBNMwn4DrBd7gNRI2wGfBuYmvtApKJZAKhpTgCekfsg1ChPAf4x90FIRbMAUJPMBk7MfRBqpPcA2+Y+CKlIFgBqkjcBm+Q+CDXSZOAtuQ9CKpIFgJrkZbkPQI320twHIBXJAkBNMQM4KPdBqNGGVpCUGsECQE2xLS70o3L1AXNzH4RUFAsANUXEevOS55kawwJATTE99wGoFWbkPgCpKBYAkiS1kAWAJEktZAEgSVILWQBIktRCFgCSJLWQBYAkSS1kASBJUgtZAEiS1EIWAJIktZAFgCRJLWQBIElSC43LfQBSzdwLPJb7ILSOSbhRj8rXl/sAihRVAAxQfsd5N0MRjgPOy30QWsezgYtyH4QaL2rL8dURSaIGzVUBOdwLXpJUpqgfzRFjZlgBEFHNWABIksrkHYAuRDTG+QySpDJFjTONKgB8BCBJqruIcWY1ad5c6ZpUAHgHQJJUpohxJuT5PzSrAJgckEOS1F4R40zjCoCI96anBOSQJLXX1IAcywJyAM0qACI+GElSe0WMM2ELjUUVABEVjXcAJEllihhnvAPQBe8ASJLK5B2ALkRUNNMCckiS2ssCoAsRBcBM3A9AklSe2QE5GvcI4NGAHGNIRYAkSUWbSMwdgEUBOYC4AuDhoDybBOWRJLVL1PjySFCesAIgqkERt2ckSe0TVQBE/WBuXAHgHQBJUhm8A9ClqAZtFpRHktQumwblaVwBEHVLY+ugPJKkdpkTlKdxjwAeCspjASBJKsNWQXmixsuwAuDeoDwWAJKkMkSNL/cE5QkrAO4HVgfksQCQJJUhanyJ+sEcVgCsBh4IyGMBIEkqQ8QjgCU0cClgiLmtsV1ADklS++wQkOPugBx/EVkARNzWmApsHpBHktQeU4l5zTzs9j807w4AwNygPJKkdtgxKE9jC4A7g/LMDcojSWqHuUF57gjKA8QWALcH5ZkblEeS1A5RdwAsAHo0LyiPJKkdogqA24PyALEFQFRls2tQHklSO+wWlOf2oDxAbAFwF7AqII8FgCSpSFHjSmMfAawiFQFlmwPMCMgjSWq+icSsAfAAsCwgz19EFgAAtwTl2SUojySp2eYDYwPy/DEgx5NEFwA3BuWJel4jSWq2qNv/NwXl+YvoAuDmoDx7BeWRJDXb3kF5Gl8ARDXwKUF5JEnNFjWeWAAUZJ+gPJKkZosaTxpfAPyJmK0O5wBbBOSRJDXXdGIWAVoNLAzI8yTRBcAa4IagXFHPbSRJzbQP0BeQ52ZgRUCeJ4kuAAD+EJRn36A8kqRmempQnqhx8UlyFADXBOU5ICiPJKmZosaRq4PyPIkFgCRJ6xc1jkSNi0+SowCIqnR2ALYMyiVJapaZxK0q25oC4EHgnqBc3gWQJHXjacSMkYtIb8iFy1EAAFwRlOfAoDySpGaJ+gF5JTAQlOtJchUAlwbleXZQHklSsxwWlOf/gvKsI1cBENXgA4CpQbkkSc0wATg4KFfUD+J15CwAIm55TACeGZBHktQckT8eW1cAPATcFpTrOUF5JEnNEDVu3A/cGZRrHbkKAIireiwAJEmdiBo3sj3/h7wFwO+C8jyNtKGDJEkbMwk4KCjXJUF51itnAXBxUJ5xwCFBuSRJ9XYQqQiI8KugPOuVswC4ClgclMvHAJKk0YgaL1aQcQIg5C0AVgO/D8plASBJGo2o8eJSYHlQrvXKWQAA/Dooz77ArKBckqR6mkLcCoBR49+I2lIAjAWeH5RLklRPC0jrx0RofQHwe6A/KNdRQXkkSfX0sqA8q4DfBOUaUe4CYDlxbwO8CJgYlEuSVC9jgRcH5boEeDQo14hyFwAAFwTlmY6TASVJ63cosFlQrqhxb4OqUACcH5jLxwCSpPWJHB8ix70RVaEAuAp4ICjXUVSjzZKkanlJUJ4lZH7/f0gVBsMB4OdBubYEDgzKJUmqh6cCOwbl+gWwMijXBlWhAAD4cWAuHwNIkoaLHBd+FJhrg6pSAPyQtDJghJcH5ZEk1UPU638DpPGuEqpSADxE3LLAOwN7BuWSJFXbXGCfoFxXAXcF5dqoqhQAEFsVvSowlySpuo4JzFWZX/9QrQLgB4G53kC12i5JyuMNgbnOC8y1UVUaBK8B7gjKtQPw7KBckqRqOhDYPSjXvcBlQblGpUoFAMC3A3MdG5hLklQ9kb/+vwusCcy3UVUrAP43MNfRpOWBJUntM4HY+WCR49uoVK0A+C3wp6BcU/GVQElqq6OATYNyPQRcFJRr1KpWAAwA3wvMF3n7R5JUHZHX/++RtgCulKoVABB7m+QwYF5gPklSflsCzwvMV7nb/1DNAuDXwD1BufqA1wflkiRVw7HAuKBcjxC3301HqlgArAa+GZjvWFIhIElqh8jb/+cCKwLzjVoVCwCArwfmmkfsrSBJUj6HErsc/NcCc3Uk6hZIpy4DbgJ2Dcp3PPDToFyqt6cA/bkPQuuIWstd9Xd8YK47gYsD83WkqgUApLsA/xqU6wWk1aBuCMqn+vpQ7gOQ1LUdgJcG5juLii3+M1xVHwFA6riBoFx9wDuCckmS8ng7sT98Ix9nd6zKBcCtxN46eSOwSWA+SVKcKcBbAvNdClwbmK9jVS4AAL4YmGsK8ObAfJKkOG8k9kde5PjVlaoXAGcDiwLzvYNqz4uQJHUu+jFvP/CtwHxdqXoB0E8qAqJETxCRJJXv+cRt+wtwDrE/XrtS9QIA4m+jRL4iIkkqX/R1/UvB+bpShwLg/4CrA/MdCjwtMJ8kqTy7k+4ARLkZ+FVgvq7VoQAA+ExwvvcH55MkleP9xC73/hniXmHvSV0KgLOAhwPzvQTvAkhS3c0HjgnM9xjw1cB8PalLAfAYcGZgvj7gnwPzSZKKdzIwNjDfV0m7/9VCXQoASLdVIpdUPArYPzCfJKk40b/+AT4bnK8ndSoAbgHOD8zXB/y/wHzqzercB6BW8Dyrjw8Qu67Lr4FrAvP1rE4FAMAngvMdRdr9TdV3f+4DUCvcm/sANCrzgVcH54wen3pWtwLgp8S+EtgH/EtgPnXv7twHoFbwPKuH6F//twHfD8zXWm8ivWIRFWvwLkAdjAUeIPbcMNoVjwITUdXtDKwk9txwN9kgE4F7iP1wzwlpmXr1JfIPEkZzI3JZcnXvTGLPi4eBaSEtK1jdHgEArAD+MzjnK4CDg3Oqc5XffEO1ZgFQfU8BXhuc8wxgaXDOVptFetcyssr7HbGrSak7F5L/l6LRvLiKev5gapufEXte9ANzQlqmJ/k34i8CrwppmXpxILCK/AOG0ZxYAxyOqu4lxJ8bnwxpmdaxCWlSTuSHvRCYFNE49eQfyD9oGM0J3wSqvnHAdcSeF/3ANhGN0/r9B/EXg/eFtEy9+k/yDxxG/eMr+OivDt5F/LnxqZCWaUSbEn8X4FFgy4jGqWfHEf86kNGMWAOcioN/8qzUHgAAEcJJREFUHcwi/hXg5cC2EY3Thn2E+ItD9PbE6t6BpCU6cw8oRn3iEuBQVBcfJ/4ciX4TTSPYDFhC7Ie/CtgronEqzAtI6wTcT/4BxqhePAj8D/Bi/NVfJ/NIv8Yjz5UVwA4RjStbU070jwLvDc75I+BFwTnVu7HA1qTbd1sCE/IejjJaCdwH3EVaXGxV3sNRF84lrdMS6b+Avw/OqQ3YElhG/K+GoyIaJ0lax/OJv+Y/DswNaJs6dBrxJ8PdwMyIxkmS/mIyaYv46Gv+5yIap85tRfxcgAHg9IjGSZL+4lTir/X9NOTZf1N9gPiTYjXwjIjGSZLYm3QrPvpaf2pE49S9ycCdxJ8YVwPjA9onSW02Bvgt8df4+/Fxby28kfiTYwB4T0DbJKnN3k6e67uz/mtiDHAZ8SfIMmDHgPZJUhttTfwusAPADXiHt1YOI0+V+KOAtklSG/0vea7rrvdSQ98jz8lyTETjJKlFXkqe6/kFEY1T8XYlz0zRh3GTCEkqymaklRqjr+Wrgf0C2qeSfJo8VePPaM4yy5KU0znkuY5/MaJxKs8mwEPkOXmcNSpJvXkzea7fy4DtAtqnkr2bPCfQUmCXgPZJUhPNBRaT5/r9L+U3TxHGAVeQ5yS6DF8fkaROjQF+QZ7r9k3ApPKbqChPJ231meNkOjmgfZLUJCeR53q9Bjg8oH0K9hnynFArgQMD2idJTbAnaeOdHNfrLwW0TxnMAO4iz0l1CzCt/CZKUq1NJO2tkuM6/SCweflNVC5Hk+fEGgC+ENA+SaqzT5HvGv2GgPYps++T7wR7U0D7JKmOXkW+a/NFuHZLK2wPLCHPSdYP7Ft+EyWpVuaT75W/5cDu5TdRVfE+8lWaf8R9pSVpyGTgSvJdk08uv4mqkpxrAwwA38XbTZIE8BXyXYt957+lDiC9opfrxDu+/CZKUqUdR75r8Grg0PKbqKo6hXwn3+PAwaW3UJKq6SnAY+S7Bp9afhNVZeOAS8h3Av4J3zuV1D6zgFvJd+29Fm/9C9iVtPNTrhPxfFIhIkltMBb4AfmuucuBfUpvpWrjHeQ7GQdwkSBJ7fEx8l5vTyy/iaqTPuBH5D0p3156KyUprzeS9zp7MekOhPQkc0hrQec6MVcBLyy9lZKUxyGk2++5rrFLgJ1Lb6Vq6+XkrU4Xk3bCkqQmmQvcT97rq0uxa6POIu9JuhDYrPRWSlKM6cA15L2ufrf0VqoRZgN3kvdkvRAYX3ZDJalkY8k/v+peYIuyG6rmOBBYQd6T9oult1KSyvUJ8l5HVwPPLb2Vapx3k/fEHSBtWiRJdZT79eoB4P2lt1KN1AecS96Tdw3w5rIbKkkFO4b06zvn9fN8fOVPPZgO3Ejek3gV8LKyGypJBXkOeV/3GyDN43IytXq2D3k3rBgYzH9I2Q2VpB49DXiUvNdLN1pTof6GvCf0ALCItHuWJFXRTqQZ97mvle8qu6Fqny+T/8T+M7BD2Q2VpA5tTVrDJPc18uyyG6p2mgxcSf4T/GZ8p1VSdcwArqAa18aZJbdVLbYb+Z9vDQCXAFNLbqskbcxk4CLyXxOX4Ra/CvBXpJn5uU/4XwPTSm6rJI1kAvAD8l8L1wCvKbmt0l+cRP6TfgD4Fd4JkBRvAvB98l8DB4CTS26rtI7Pk//EHyAtdjG55LZK0pDxwPfIf+0bIC3W1lduc6V1jacaz74GgJ8Ck0ptrSSllfW+Sf5r3gBwOTCl3OZKI9sUuIX8X4QB4CdYBEgqz1jgG+S/1g0AdwPblttcaeP2IC3Sk/sLMQD8GJhYbnMltdBY4CzyX+MGSCujHlBuc6XRq8qbAQPAD7EIkFScscBXyX9tG8AZ/6qoE8n/5RiK7+HjAEm9G091bvsP4Ix/VdiXyP8FGYqf4zoBkro3mWq85z8U38AZ/6qwscB3yP9FGYpLcUtMSZ2bRnrFOPc1bCguxEebqoHJpFX6cn9hhuI6YJtSWyypSWYDvyP/tWsorgZmldpiqUAzSSdt7i/OUCwkbdUpSRuyFXAN+a9ZQ3HL4DFJtbINcDv5v0BDcTewV5kNllRrc4E/kv9aNRT3A/PLbLBUpvnAfeT/Ig3FQ8CBpbZYUh3tDtxF/mvUUCwG9i21xVKAg0hbVeb+Qg3FImBBqS2WVCeHkn4c5L42DUU/cFiZDZYiLQBWkP+LNRQrgbeV2mJJdfBK0sp6ua9JQ7F68JikRvlr0smd+ws2PE7H92qltjqe6l2T3llqi6WM3klayjL3l2x4/A9pb29J7TAOOIP8156146QyGy1VwQnk/6KtHT/H92ylNpgGnEf+a87a8f4yGy1VyT+Q/wu3dlwH7FBmoyVltTVwGfmvNWvHyWU2WqqifyT/F2/tuBvYr8xGS8pib+BO8l9j1o4PldloqcreS/4v4NrRD7y+zEZLCvUi0uu/ua8ta8fHymy0VAcnk/+LuHasAU4lbW4kqZ76SBPrqjbTfwA4rcR2S7XyQfJ/IdcXP8bJgVIdTQPOJf81ZH3xyRLbLdXSv5H/i7m+uBnYo8R2SyrWTsAfyH/tWF+cgWuPSOtV1SJgEek5oqRqey7VWtZ3eHwSB39pg6q4WNAAT8wLGFNe0yX14DjgcfJfK9YXp5bYbqlRjqOaE3cGgLOBGeU1XVKHpgJfI/+1YaQfDieU13SpmV5Ndav5m4Gnltd0SaO0G3AN+a8J64tVwFvLa7rUbC+kWjt1DY9+0mYikvJ4HbCU/NeC9cUK4Ojymi61w7OAxeT/Qo8UXyO9ciQpxiTSTp65v/sjxTLgBaW1XmqZ/YH7yf/FHiluBPYprfWShuwCXEX+7/xI8QhwcGmtl1pqd+BP5P+CjxT9pMmLksrxcqq5pO9Q3Idzg6TSzCXt2pf7i76h+DI+EpCKNBn4L/J/tzcUfwR2LqsDJCWzgAvJ/4XfUNwGHFJWB0gtshdwNfm/0xuK3wFblNUBkp5sAnAm+b/4G4qVpMU/xpfUB1KT9ZHesllB/u/yhuJ/SXcoJAXqA06hmqsGDo/fA/PL6QKpkbYHfkH+7+7G4nRcGVTK6g1U/1fCY7hmgDQaRwMPk/87u6FYBby9rA6Q1JnDSa/f5L4wbCx+BGxVUh9IdTYT+Cr5v6Mbi6XAkSX1gaQu7QXcQf4LxMbibtxZUBpuAXAn+b+bo/nu7ldSH0jq0RzgUvJfKEYTZwKblNMNUi3MBD5P9efxDJD2G9i+nG6QVJSJpHfxc18wRhP3Aq8spxukSnsB9fjVPwB8H3cAlWqlynuDrx1nA5uX0w1SpcwCziD/d240sYb0Kq8z/aUaejbV3kNgeDyMSwmr2V4E3EX+79po4lHgqHK6QVKUnYA/kP+CMtr4AbBNKT0h5TGb+vzqHwBuBvYopSckhZtGWrEr94VltPEw8Da89ah66wPeSH3uwg0V4DNL6AtJGfUBJwGryX+RGW1cDjy9jM6QSrYLcD75v0OjDZ/3Sy3wEmAx+S84o42VwCeA6WV0hlSwqcBHqM8E3AFgCWkFQkktsANwCfkvPJ3E3cCxZXSGVJAjSTth5v6udBLXkxYRk9QiE0mbeeS+AHUaFwK7ldAfUre2Ac4h/3ej0ziTdMdCUksdQ70eCQyQNhf6AG5DqrwmAf8ELCP/d6KTWIp30yQNmkvatjf3hanTuIt0IesrvEekDTsSuJX834FO4wZg7xL6Q1KN1fWRwACpeDmo+C6R1rE78GPyn/PdhLf8JW3Qy6nH1sJrxxrSksJuWKIybEIqkFeR/1zvNPqB44vvEklNtAtwBfkvXN3Eo6TnspMK7xW10QTg3dSzKB4ArgX2LLxXJDXaBNLCIHVaOGh4LCS92+z8AHXrpcBN5D+Xu4k1pPUzLIQlde0g4BbyX9C6jUuBIwrvFTXZQcAvyX/udhv3AC8svFcktdIM6rWZyfrifGD/ojtGjbIHaR5J7nO1lzgH2LTojpGkVwIPkv8i120MTRScX3THqNa2JxW4dZzgNxSLcTttSSXbCvgh+S94vcTjpAv+nIL7RvWyKWmeSz/5z8le4rekbb8lqXR9wAnU/8K5FPgPYLNiu0cVNxv4IOmNkdznYC+xAngf7uAnKYM9gN+R/0LYayzBQqANhgb+ReQ/53qNy4B9iu0eSerMGNKzxyXkvyj2GktJi71sVWgPKbfpwEnU913+4dEPnAKML7KDJKkXOwIXkP8CaSGgIU0a+AeA35CWIpakyukD3kb9dhccKYYeDWxeZCepdJvQnFv9Q+fhO/FZv6Qa2Br4DvkvnEXFctJGKr4+WG1bkW6PN2XgHyAtSOR5J6l2jgYeIP9FtKhYDZwHPL3ITlLPdiY9sqn7WynDYxFpbo1LWUuqrS2Bs8h/QS0y1pC2hD2suG5SFw4Bvk/6PHKfE0XGObhGhaQGeTZpZ7LcF9ei4wrgWGBscV2lDegDjgQuJv9nX3TcAvxVcV0lSdUxnrQveRNeGVw7biXNOJ9dWG9puEmkQquJReQK0oqE7twnqfG2IU2qy33hLSMeJS0z7OtaxZhDmtj3EPk/2zLi58BuRXWWJNXFkcBC8l+Ey4jVpB0Ij8SJXN3Yn1QkriT/Z1lG/Jl0R0OSWmsK8GHSbdDcF+Wy4lrSjO4pBfVZU00C3gRcSf7PrKx4HPgoMK2gPpOk2tuV9Ipd7gt0mfEI6XW1PQvqs6bYFfg49d5qejTxU/zsJWlERwBXk/9iXXZcRrorMLWYbqudCaR1Is6nea/xrR03DbZVkrQRY0jPR+8l/8W77FhEmjTYlp3d5pNmvN9P/r4vOx4mvRkyoZCek6QWmUl6Xtrk+QHD49ekwqdpdwUmA68FfkHzf+0PkJ7zn07ak0CS1IPtae5rg+uLx4CzgQXU+w2C/UkDYdOf7Q+P84G9iug8SdITDgMuJ/9FPjJuI+1st3Pv3RdiR+ADpFXtcvddZPwBeF4B/SdJGkEfaULVTeS/6EfHZaSVFDftuReLNZn2TOhbO+4gTeZ0KWhJCjKO9Lz8NvIPAtGxnPTK5LHA9F47skuTSIscnUkzl3beWDxAmuDn8r2SlMkE0i+w+8g/KOSIfp4oBsqePDiRJwb9xRnaWoVYQnqLYUaPfSlJKsg00i+ytg5MA6TJg+eRbscX9erZWNK2u6eTfvXmbmOuWEF6XXOL3rpTklSWrYBP055XB0eKR4CvkYqBTpednQK8DPgK7ZrBv754nDTwb9NhH0qSMtme9Ku1n/yDSO7oJ03QO560u976bEJ6jHA27Xymv76B/0zSwkWSpBralnRHwEIgxWrgYuBE4ADgBOAiYFUFjq0KsQL4HDAXSVIjbEGavLWM/IOMUb1YQfrFvxOSpEbaHDiFdk8WNJ6Iocl92yJJaoXNSXcEHiX/IGTEx1LgNNKkUUlSC80gTY77E/kHJaP8uJ90B2gzJEkivTd/LHAd+Qcpo/i4lVToTUGSpPXoI612dz75By2j97icVNi5Vr8kadT2I80M9xW5esUaUgF35LofqSRJozcf+CwukFP1WEaa0b/7+j9GSZK6M5208ZDzBKoVt5L2gajaNsmSpIbpAxaQls318UC+uJi018G4DX9ckiQVbyfSegIPkX9AbEM8SrrNv9doPhxJkso2Ffhb4GryD5JNjOuBd5LWbZAkqZL2J/1KdZXB3qKf9JhlAemxiyRJtTCJ9IzaNQU6i+tIk/o26bzLJUmqlt1IcwUeIP8AW8VYTLprsl+3HSxJUpVNAl4LXACsJv/AmzNWAxeRVuqb3EOfSpJUK3NI69NfRv7BODKuJ23IM6/nHpQkqeb2JA2KC8k/QJcRD5Ju8R9SUH9JktQoY0iD5Bmk5+K5B+5eYmgW/5HA+CI7SZKkJpsCHAOcQ1rnPveAPtpB/zvAXwPTiu8SSZLaZTLpl/SZVG99gX7gPNJkPhfqkSSpJJN4ohjI9Zhg+KA/vdzmSpKktU0GXgZ8lTTRrsxB/xHgG6TFjaZENE6SJG3cWNIyxKdQ3KuFC0kTEo8EJoS1RJIkdW1H4DjSrfoVjG7AX0UqHk4hFROSGsoNNqR2mAW8ADgceDqwLbAp8DBwF3A58Avgx6StjSU13P8HEqYmywwhGxkAAAAASUVORK5CYII=;" vertex="1" parent="1">
          <mxGeometry x="410" y="74" width="42" height="42" as="geometry" />
        </mxCell>
        <mxCell id="41DwftxlrVXNSMgh1K6p-11" value="" style="shape=image;verticalLabelPosition=bottom;labelBackgroundColor=default;verticalAlign=top;aspect=fixed;imageAspect=0;image=data:image/png,iVBORw0KGgoAAAANSUhEUgAAAgAAAAIACAYAAAD0eNT6AAAABHNCSVQICAgIfAhkiAAAAAlwSFlzAAAOxAAADsQBlSsOGwAAABl0RVh0U29mdHdhcmUAd3d3Lmlua3NjYXBlLm9yZ5vuPBoAACAASURBVHic7d13nF5F2f/xz+6mEAik0HsIBAi9BykCggUVRBSxIIjyKIqAooJiQcRHwYIdRKxUGwpK/Yl0kN4hBClJ6BACgYT03d8f130/uyy7e5dzzZwy3/frNS8UknNm5sx9znXOtA5kKGsD69b+uXrtn6sCY2tpTO2fo2p/fiSwbJ+//zLQU/vfc2r/v/7Pl4EngWeAJ4CngEdq/12kFSOA9YF16G2nqwMr09tW66mr9ndGA8Nr/3sxMLf2v5fw+jb6MvACve30aWAm8BiwKGCZpJrGAhsAa/D6+2rf++mYWgLoqP27uteAhbX/PZ833lOfw9ppvb3OqP1TBtCRdwYKYmVgW2AbYHNgw1oanUNengUeAh4G7gbuAO4FFuSQFymWTmAS1k63ASYDGwETgGGR87IEeByYBkwF7qyl/9Ib9Eq6RgFbYPfVrbD76cbYC1Rsc7H76cPAfdg99U4ssE1aqgHARsDutbQT9uZUZIuB+4HrgauB64DZueZIYhgBTAH2AHYDtgNWyDVHjb0C3AZcU0u3oi8FKVgJeDN2T90N2IT4QWmrZgI3Ye30aixAkAoaBbwb+BX22b2n5GkpcDtwArC1Yz1J/tYEPgVcAswj/7aWNc0DLgY+iX32lWrowN7uT8TeppeSf1vLmp7EnhHvprdbV0pqOLAv8BeqcSMdKs0Avo91X0j5rAIcjb0td5N/ewqVuoGbgaOwbjcpn62AU6nGi9RQaR727NiX3rEyUgKTgZ9i/Tt5N6I80t3YDbY+iEaKqQu7ufwT6+LJu93ETotqZd8HG9sgxTUW+DzWf553u8kjvYA9UzbJWpESRiewH3Al1X6DaiW9CpyOGm3RjAOOxQbQ5d1GipIeA75Uqxspjs2xT+JV/4LabOrGnjH7oaC1EDqxN4g7yb9xFDV1Y29a27VZx+JjJeCbwEvk3yaKml4FfgKs1l4Vi5MtgLOoRr9+qPQAcDDFH+hYWe/DpiDl3RDKkrqBv2HTcSSe5YH/xR5uebeBsqRXgZPIZxpuyjYB/oG+oraSpmHPIolkB2w6XN4XvqxpEdaftWKrFS8t6cJG8z9L/te8rOkZ4H/oXbxIwlgF6y5McSyKV7oeezZJIMsBJ2MLkOR9sauQZmNTs1JdCyKkLYBbyP8aVyXdiU05E38HkO6Aae/UDZxB8dfqKJ13Yss55n2Bq5gup/gLIZXFSOC76E0qRFqEdaWMaPpqyFDWA/5N/te1iulJbC0ByWgZbFCQ+qTCppeBDzd5TWRgG6PBqDHSfcBmTV4TGdgB2BfAvK9l1dNZ2JdracPG2PK3eV/ElNKZWNAlrTkUTZWKmeZiI7ClNctiD6W8r19K6X7sWSYt2BtNl8or3YntgCiNDcPGpeR9zVJNZ6BV2pq1FrbSZN7XLMX0CvDexpdIwBZJ0fzTfNMzwPaNLlTixmIbiOR9rVJP/0arXjbyJuB58r9WKaelwJcbXaiUdWDr2ed9oZQszcW+xMgbrQ7cRf7XSMnSfdgbrrzRPqh7qkjpZxRoFcGiTAEbhvVNfSjvjAxgPrZU6XRsJsKTwHNYF8Xs2j9fqf3ZxdiDE6xux9b+dxe2zOk4YHztn2tgo+/raV0K1DBqFgMfBf6Ud0YKZH3gKoo5c2IW1lafqKXpWPvsm+bX/uw8erfpHYn1D4PtgjaO17fXdYG1a2kitqph0UwH3oItsSzmYOA3FG+1um5sA7OZtTQD++pYv5/W09Lan38Ze3iCLQ5V7/ZZgd776ThgVXrb6brYb7WIY5r+iN1Xl+SdkSIEAF3A2RTj4f8itlvZLdhbxf3YDWXpUH/JybLYSlybYjtu7QhsQ/7TnpYAHwH+nHM+imA94FrsBpO3h7G2eju2LOn92GfeGFbBRuJvinUV7QhMinTuoczA9qOfnm82CuEg4Pfkv4jSImxc0X+wjcoeAKYCr0U4dxcWsG5WS1Ow7pDxEc7dyB+xaxTj2VJYHcAfyO9zzFxs6ctPAxsFLms7lgF2wZZFvZ38pkMuRoNY1sYeLHm11SewjVneSzHfwFfGlkQ9k3y3in0cdQd8gPwWTFsK3AZ8C9gZ+7pUJB3YqPzPABeTb/fIORTvq29U3yN+pc8FzsX6xorWOBtZDfgscCPxg4H5WDCSorHkMyV1OjbLYKvgJfS3Dfb7nkH8eruXdAcG7gEsIG59dwM3AEdgn+HLZBlsW+7zyScY+EH4IhbTUcSt6DuBT1CdhRnWwx4OMZfxfJH05rSOxD77x6rjxcBfsE/ZReiiy6oTeyj9lbgrJF5F/t1nsW1Ob395jPQCtvLlhAhli2E0tvfE3cSrwx7sWZiUPYn3iepSqv3mugxwGPAocerzIdJa6/oM4tTrXOxtoMqfr9cGTiXem9Yv4hSrEMYT7x7wCPYyVcQBdl7eDFxGnPpcgj0Tk7Aucd5aryCtuezDsRXpZhK+bi+kGm+njRxG+LpcgE1/XSVSmYpgVSwQWEj4+j00Upny1IXt6RG6LmcAh1C8WQUh7QhcSfi6fYEEFmDrxPqKQlbkf7H+/VQtC5yIjbINWc9fiFWgnGyOjXsIWYcXYlOVUjUJ+Cdh6/g1bLZClX2VsHU4DzgBmyKaqv0I/4XlP1Q8uPoi4SpvKfa5dlkEbPrLNYSr7wWUc3BaM0YC9xCu7p7DRsyLOYCwK9XdR3U/V2+HTbULVXc3AhtGK02xLUP4Lem/GaswsW1MuLfS6dj8Tnm9TuA4wg2+up9qDrT6IeF+4BdRzGl8eVsFuIRw9X5yvKJEMwpbDyJEfS3CvvIlPU1tELsSbnv6xcAO8YoSRxf2eSNEhV0OrBivKKX0ZuBpwtT/NyKWI4ZtCRPhL8HWAk9h7ES7OoGvEab+F1O9L1bfIcxv+imqPXDaw8rAvwhT/3dTsU2ujiVMRf2M/Fe6Kou1sU+h3tdgAcVcRKkdXcAd+NfRXNIel9Kq/QgzU+BWqvNGuxlhPv3fDawZsRxl1gWcTphn23ERyxHUytha+d4VdGzMQlTEGMLMaf97zEIEdAj+dTML66eV1uyIrQ3vfT0OilmIgEJ0l1xFWlN8vYQYhDmHinQV/hj/ytG2iu1bFvuhe1+TnWIWIoAR2EY6nnXyEnr4Z7EVFkB5XpPHKd8KoP3tiv/v9zpsIRxpzxfwvyY/jFqCANbFf1nKE6OWoJpG47+d7dVRS+Dvc/jWx2tUcDBPDt6E/3TMz0Ytgb8b8a2PO6jOCql58h6TMZ9i7jratN/jWyF/ozp9eHlbB3gW3+vzjqgl8DMam5rnVQ/dwIejlqDaPopvO30eWD5qCfy8B9+6eIZi7G5ZBR3Yrqme1+e3UUvgaBN8R/PehaJUbzvh+4XmzrjZd/MNfH+034mb/SScgu81+mrc7LvowHcg7wI0fdrbaHzXEFlCSfdfOQ2/SphFAssk5uTj+N5Yd4ub/cxG4Psl5GL0lSqETmxfD6/r9BTlm2r1Vnx/qyksk5yHCdjGaV7XqXR7WiyPjWL0qoCPxM1+ci7E71r9MXLes/oQfmV/GU2hCml1fGcGHBA3+5n9Db+yXxw576k5BL9r9Qolm51xBH6FvzRy3lO0BjZi3eN6Laodryyuw6+t6o0qvP/B73pdFTnvWayB37z/OVR718mi8Nyg6dOR857JvfgUei62772E9xn8GuvXIue9XZOxAXteDxOt8hdeB74rsJVlo6AT8SvzJyPnPVXrAq/ic80eiJz3tu2CX0OtzGpIJdCJDeLzuG4zKccKjT/Fp7yL0YYpMU3Gb4DxTyLnvR3DgCfxKe9tKFCNyXORoJ0j570tP8ensC9Q3qk6ZbUffo216GuJd2JToDzK+vu4WRfgXHyu3dMU/4G4O36/y3fHzXryRuO302UZglUex6ewWuo3vg7sDcHj+n0vct5b9SZ8yrmE6uyFUCaT8PsKUPQFm07Fp5x3UPxgp4q8vgJMj5zvlm2NT0FfQMtS5sVroZGHYme8RV6rdp0VO+Pyf7y+Anw7dsZb9Ag+5dTbfz6Wx29J6y08MzbM82DAvk7H+R02ADCkZbEBQJOBcVhdzAZmYIMYZwU+/2A6gYnYbl+rYRv4LMCCoodreVsU8Pz/xOpg3YzH2aiWpmXOURhebfXnTscZympYe5iAtdUF2DzjacCD2JKheRiF/YY2wrbkHoWNMH+qlq9HA5//5/isuLgvxR24uimwvsNxHsc2EAqpE2sLmwKr0Dsd/GlsENvj2KDbPKwCbI7d18ZjD9PZtTzdW/vfobyKvSh83uFY+2L5LSSvQWSTA+VvLDad4moar4B3P3AycVZh6sK2iz0fe9APla95wGXY8qjLBMqP14jjonbjbIBP+e4LmMdNsNXvpjbIwwLgSmwWx5iA+akbBxyFzXpY2CBvTwFnEHajqAcb5KHZVNTZRl/Bp3xfD5S/LuzLwh9p/Jb7PHA2sDdxFsvaFPgBjdvIUmyl2eMJt47HZg3y0Gy6NVD+MhuPz5SqGwPkbSzWJ93OtsTd2AN3+wD5Go5NyZnRRr56sEFsn8N/RbP1sB9F1mt5mXO+vHwSnx+jR0Tf39bYIi3t/JbmYje8lQPkazVsEFK7G/PcSJhVIr/UZn76p08EyJsHjymPS/Ff778T+Bjtd088Wvv7IWYL7YQFxe3kayFwJrbolLdb28xT/2sZI9Bv2dvx+SEe7pyv9+Oz1Gs38Ev8VmTaFr81o+/DuW8IuNYhXy9SzEFHZ5K9bEuwz4pelgF+hM/AttnYSmQeOoBP4bOyZzfWvec5vmd1fF48znDMk5dObHXJrGX7t3O+JgE3OeSrB7gdv3vXWGzzHI/28DK2TLqnIx3y1QPs6ZwvF1/Hp3Be2x92YW8sHnnqm6aRvVvgcBp/Pm01vQYcmDFffR3rlK9Jjnny4hF43eyYn7WwEdrebfUcrF++XaOBvwTI11R8P7nf7pCnuxzz42VjfOr7GMc87YvvMu89WDfWIRnztQXwmHO+erCAwmus3HpOeTreKT+u/kn2gt3vlJdh+G/L2De9RPtTh/43YL6W4vcpc3OnPBVtH4fl8HnLPsEpPxOx6T2h2sQNtLeexlj8poQOlJ7CLzj8lkN+FmMDg4vkYHzq2mtM1UexegrVJtodiLkrfivuDZQuwi8IaDSmp5l0oVNeXHl8Zv++U15+4ZCXRuklrOE1qwMrX+h8LQbe0UK+hjLTIT8/dcqLlzfjU89THPIyHpsuGbpN3IiN0m/WqoR9+NfTwy3mazBeazoUbfEqj0XVpjvl5a347UUwVPoWrXUb7kXYh389/bKFPA3FY02Hp53y4mZ1fCp5P4e8fM4pL82kBdisgkYDWVYF/hoxX3OwN/isznfIy3UO+fB0FNnL9BrZ3whGYLNRYrWJh2luIOvOhPmUOlT7GNlknQ1mOO0PTuybPpsxH95uIHuZznHIx6b4jEVoNp0HrNQgT8OAo4kTlNTTF1uos8Hs75SXVR3y4mYnfAqVdQrGO/EZvd5qug+7eUykd3rLMtibyQ9ob/ZB1jQDe8PM4hiHfMzMmAdvHhG4x0yVXzvko9XUjQWi+2PT+erGY4NlL8Rvc6RW0m/arsVeNzvk4wcO+fDksf7/5zLmYUX8VndtJb2MTYOdQm+A2ImtiXA0ftM/W0lLgXdlqEuwMW4eedkxYz5ceeyp/lTGPKyG35rLWdJi4kbLQ6ULMtWoz+fyJdjbblF47KmedU3uAx3y4JHm1VLe+egh+wBWj8/lf82YB08j8XmZybqBzAUOefBILxF2/EGz6XnsWZOFR3e5y4Bvr8UYJjgcI8uiKh3Y9KIQ859bNYzizNPcHzgsw9/3WOimC/85yFlMcDhGlnpZB7/+xKyWpTgD335JthlAHm11gsMxvKyDz/05S70cht1DimAs/ivXtmNlbPOvLNObC9NWixQAPJbh7x6B38C3qvkx1jXRjpfwWSJzXYdjeJngcIx2l7jtwJYEHeuQh6oZi9VNuzfWRxzyMMHhGF48fjMvYN2P7Vgfu3fIG70de+a0y2OJ7AkOx3ALADze8NqtlFUp/mYeeVoO6/dul0dj9VrbIavRvL7vu13t1slBhFkNryp2o/21/T3a6YoU54uIx28my0vVj7B7hwzsJNpfCMyjrbp8VfUKADxWx3umzb/3XYrzyb2o3oOtv92Odq9LX+3MQw/BKx/Ptnnuk53OX2Wn0N5Kge1ck4FUqa22O13srdjeJDK4sdiaLu3waKsu7dQrAMiy2ljdq238nR3wW/K06k6lvT60dj8h9lWUtyqPfCygvd0Yvwas4XD+qlsT2wCnVe1el/6K8tbr0Vbb2VF1OPAzh3On4OPYku6tmuNwbpd26hUAeGSmnQfNicTZVaoKNsZma7SqSgGARzttJ1BdheLNMS+yo2k8D3wgVWqrHvlopz4Owrb0lcY6gW+08ffauYf059JOvR6eHplptVK2xAZjSPO+QuvX3KOxVumtqp2b6tFO507FcrQXMBXmxuogj7baic9iNynZh9YXXfMIVAv1BSCPAOB4irnTnKergSscjzcZGw/QisI0VgceXVWtflZdAfiMw3mL7nvY7o9ejqL1fs4qtdU8ugDeC2zicN4im42NM/HSQetdVoUJVL0CAI+FXrpb+LNrAe9zOGfdLGzRG6/NiDzchj2sPwA84Hjco1v8861cl8EUZSGgrEvOgi3O0oqP4Tvt7wrsrWOB4zGzOgk4DvtNevTDg83WOLjFv1OltuqRj1bbatZVA/s7AlugqSjmYSv5fZlsM6P6OwBbDr9ZrV6XgXjcy9x4rMO9QQvn+4rD+eppHr1rpK8C3Ot47HZT/81bJmHRvMexu2ltK9bjHc75hxbOF9I+ZC/LnS2e03Ob31vofUN9O7YnQd5t9Vv9yuu5F8etTdZx3d0O53x3i+cM5Syyl6WVN9MN8F0G+pu143ZgG4Ll3U5nYy95dV3YPhRex/9SsxWN3c+znu+1Fs4XnMcSja1sWemxpWI9fbzfsVcA/uF4/FbTn7F9BPr7lOM5Thiydl/vBIfzndfC+ULy2IijlVW8vLZU7sFuYP3nhm+Hz46N7aRFvPG3A3bD/5fjeVr5JP2Aw/k8NiTzcB7Zy9LKADWPLZXr6VLe2D37OfJbyvcxBn6+TMBG5Huco5X7wqYO5/P60ubC403kTU2eaweHc9XTHwc5RyfwdeLuNDUPG/g02LiGDuB6p3P9d5BzDOTHDuer0heAJ1o43/cczldPgy3JuirWLRCrnfZgAfhQOwuuh3VReJzru0Ocp7+nHM6XdbMXLx5fAJr9zN2B34Y/zzL4kux7ED9gPZ+hF/862vFcWw9xnr52djjXvCbPFcUsshfonU2e60SHc/VgkV+jTR02A/7jdL6h0pXYNL1GtsfvM10z5wN7eGc912lNniu0PYn7w/PaseyfTZzrYGzp15DtdAHwfZobgHSK0znvbeJcdR5dkXu0cL6QTid7WX7X5Lk83kjrqdG4jeWxdQZC79o6Exs/1chw4CGnc36tifOBdTNlPdcLTZ4rCo+ortlNa7weyM1Od+nABjfd43Tevukumg986rx25zqqyfNd6XCuomyzuiM+ddfMoL61nc61CFuXvRljsM++s53OXU+LsU/SrewpMRafbbC7aW4BpfFOZd2hhTKG9EOyl6XZGUSfdzhXD3ZvbnZm1qbYF1jvQOAFbOxDKzN+Puh07uuaPJ9Hd+6MFsoXnMfgm2bW8x+HbS+b9VyzaH26TwfwNuAcsm2hOqd2jHa36dwpw7n7poubPN8jDuc6vs2yetsQn7rbqolzfdzpXO10n6wAfBK4gWxfjB7Dvrit2UYewKf7qIfmVvvc1ulcrQxGDumrZC/LtCbPdZnDuXpob/ngSdiSulleIpdgD9+DGXj8VCPDsAdq1vIvorll8U92OFerg5GD8mhA5zdxnn0dztODTVvKYjls98FTgGuAJ4c41zNYJH4ytsa2x/Qej5Hlr9B4GugIfMZBHJq5xD6Wx6f9NLNFqkcfbg+tLzLS31rYjfF3wO0MPuhpCfYp9E/Y17FNM54X7GHqUQe/a+JcH3A6V1HWAfAIIBfQePnvLnxmGD1ItnVZOoFtgC8AF2HBy2D3nrnAzcAZWNtuZ9XI/r48yLlaTc3sufIXh/Nckq24vn6LTwNq5OsO5+mm+U+qrRiFffadiN08VyfcnOIv4dNYG73tbOl0niKt2OhxszuxifN4TCe9PWNZBzMWa6cbYsu+etxAB3Mb2evhribO822H83is0e5lb3x+e5s1OM/GTuf5cuYSv9EwbJxW/Z66Lu1tFNWM9fAZX9XM1MtpDuf5dbbiGq+FgKY7HGNDGg8u2sLhPLfisx1jf/OxEeKPYdORniHcVI2/OB1nywb/vZlP3c2Y7nQcD9MdjtFotO9Imh9kOZRmvoq142WsnT6M3YxmBToP+LTVydhgraF4tNXpDsfwMt3pOI3qxeOe2kOYtroEm1VQv6fOoL0NjprxOPZlNatG99TR+HQzTXc4hlsA0Gxf01C6aDwAx+NH7rm0bl6m49MAGv34m52aOZTFZNuX3NtDDsfYkaE/d25C4wdWMy53OEbernI4RqOAqgOY4nAej7bh5RHst5PVjg3+u8c99SEKNiitTVc7HKPRPXUKPs9dl7bqFQB4/XB2H+K/dWCfgLK63uEYReBRjkZdIbs7nONRfG5kXjza6soMvUBNK6PlBzMbm29fdnfjs/b5UG11C3y6MYoUACzG3kqzajSt0aOt6p7aayJDvxzs7nAO8Hnpdg0AFjocZ88h/tuK+LxVeXzmKYJm+kUbGWodhLXw2Ra0lXncMdzjdJyh2uqqDse/E5+17fO2BJ89Noaq07c4HB+q2VYnM/Q0ylUczlGVe+rdDscYydALDw1132jWAgoWACzE54G0E4M/lBot2tOMl2qpCjzGMQxVp63uGjiYm52O4+UWp+MMtWSsR1sNMU4lLx5lGWqzFa/le6vYVjuw2VODaWUTm8FUpa0+iY3lymqw3/+q+HRV3YnT+DKvAAB8Gmsng2/GsbbD8Wc6HKMoPPrc1mDwrypeN1WvB66XmdgAzax25fUbNvW1lsPxq9RWpzsco/8+CHUr0/6aGn09iS0lXCShg9Xh+Hytqkpb7aG1pb4HM1hbfQ8+z1y3e6pnANDsKkiNfGSAfzcB+KXDsQu1fnJGHnufj8MWJerq9+/XwKevah7F/Dzo0VaHAQcO8O8/Quvb2A6kSm3VYwzAwcCHB/j3B/LG9tsOr/uXp9vx2fVtT974pt+F/faH+lzdrELtTJeRx331DOyZ1d9Az7Z2FLGtMgaf3Z76z9NfGxtF7jFX1WNEclGsjE+d9ABn8/pg0Gu75WZXG4ztUHzK13+e/gH47Xh2uHehc/QZfOpkMfD+fse+0+nYh3gX2sml+JTvuD7HrD/8ve4fg30JK6Or8amTR3n9V+tJ+KwzsJjmVhvMxQ34VN4pteONwrZZ9Gqo/wpU7jyMw69eeoDv1I7bhc/yvz00v99AbGvit6nSdrVjTsF398hPhil6Lj6JX70spHe6sNfOoN349IWH4LVb3X/pDfK/63TMevL4ilAUnltZ30PvngReO4MWesbFsfgUcg72ReHXTserJwUAg6el2Ip973c8pscUo1A8VqjrwRZAGYvfV6p6UgAweJqBbf7zJ6fjFW3wX19eK9T1YEtYvwP/DXgUAAyefoUtQf6S0/Ga3cQuFxPwa6zeF6KH4n6SbscIfDZG6puex2djpx6KN/ivP6/llBdjXUvebfWQcEWPzmu3tb7pKvy6Wwp9U8VWL/Uo593Yb9z7WjSzPXRZ/A3/+vF6lnUz8NiCQrkZ/wr0Sh4DCYvEYwerUOkLAcvtYQJ+wWqI5DFfuCimkH99Dpa68VlgLKQvkn89DZZeDFjuPHhswxwquX+p8pwFUPf7AMf0cm3eGXBWqC0h+1gMnJt3JhqYjs/SnyG8hnVRVMVUfOZXh3A1xV/G9hyKtZpmX1W7pxZx1lLd7/POQDNGM/iWo3mmF2hvr+gi89oxzDv9NWShHR1I/nU1UDozZKFz4rFjaIg00FTOIvLYQjZEKtJOnx5GAs+Rf732T3Mp8Oj//k4n/wrrn44NWuJ8dOLXP+iZ3hay0I5GYIsC5V1ffdNrDL3PQFltin0FyLt++6bnCLdlt7c9yb+++qdbCPMVOW/HkX/d9k+/ClpiZ+vjP0AtS7oSn8VCimgdbDvXvOu4nu5h6M0wiuZ48q+zvukTYYubK+/ZAFnTV8MW193t5F9n9TQbm6FQRZ3AZeRfx/XUjQXQpVKUT1YXUqJPJ23aCeviyLuue7AR32UylmJ0WS3C5nxX3dcoxuDLOdi1L5MPkH+99WAzCRptM1x2Y/FbFChruiBwWYPYhnx/6POxqV5lehvNYnXgIvJtqNMo55eW75BvvT2Kz3r2ZbEHVuY86/y7wUvprwvbeTXPersQn82uyqAL+DL5dl11A9uGLmgo55NPpT0FbBmhfEV0NPkFXv2XaS2Lsdh0pjzq7J/AcuGLWDij8VvmttX0IuVdvGZ/8qmzpcBnI5SviLbGnil51PufIpQvmInY0p0xK2wOJewvcfa/xG+ot1Dury3HEL/OrsVGHadqFDZmJHa9F33hn6F0ADcRv86OiVG4Atsc29QqZp0vAjaIUbiQvNZAbjYdEadYhdaFrRkdq86XYuMQymwk1oURq87mUfwFaGKYhNVFrHp/mPJPB56C/3K+Q6WrKHdw7+VI4tV5D7YoUekthy26EqPCXqR384XUvZl4DfWMSGUKLeZUqx9HKlMZ/Ix49b5XpDKFFnOqdUrjU4YyCpv9EKPOZ2LdZJWwD7qpxtZBnKWCn6W8/akDOZs4bXX7WAUqgR2JU+fnxCpQBOOIs4bF47EKVBI/JU5bfU+sAsXyO8JX2v7RSlMOXrulDZX2jVaaOMYDTxC2zuYDw2IVqASGTh1RlgAAIABJREFUE36s0JPYta2SdxF+wO950UpTDp67pQ6WzopWmohGY3tSh6y4N0UrTTn8mLD1XZVP//3tSdg+1ifiFaU0Qo6y7saWza6i0F0Bp8YrSinsRNj6foKIX1RjLuM4FzgYG9kYit6qXi9kfTxI8Xf8a9e/ge8HPL7a6RuFrJMfYiu7VdEXgfsCHn94wGOXUch2uhj4EPBSwHPk7tOEi54+Fq8YpXA5Yer5ZWCjiOXIQxe2hHSI+lsCLB+vKIU3hnBfXK6i+gHXJOyhEaL+LolYjjL4OOGeX0dGLEeuQu0MdnbMQhTcssAr+NfxUqrX7z+YlbBBUCHaaip12Iz3EqaOpwMrxytGrt5NmP1X5lD+aZOeziNMW/1DzELkbQTwL/wrcS6wSsRyFNlhhGmoKaxX39dkwqwSqDerXiG+VM2mmrsqDuWzhPnNHxqzEAW2KrZbp3f9XkV5dqV0swJwF/6V+euYhSioVbBRz951W4mFKdqwC2HWA39HzEIU1Hvwr9cFwG4xC1Egp+BfnzMp38ZJIZyDf93eh3WBJWlV4AH8K7XKW6o2MoIwqwCeSTX3/m7W3vgHAc9h/bep2gz/bqqF2LojqeoATsP/938xaQ8I/AL+dfoQtolb0kIEAUuwXZxSe2CtDPw//Bvqb0ivLgeyN/Z26Vm3T5PmSmu7YGX3fvhrbEW4IOBybFxMSjqBr+A/SHUasEbEchTaqsDt+DfYW7C3jBQcDMzCvw5/jh7+fb0V/7fWpcAvSGNmwPJYWb1vqPOwhXHEdGBddt73g1nYvSYFm2HPEO86vAe9+b/BaOAK/Ct7AXB4xHLENgrbo9u73rqB4yOWo0y2IcwyrI9ju45V1ZaE2RdkFracsLzRMYSZYvl3qj074AjCrE55NQn3+TcyHLibMA+zKo5kHYbtJ+9dXz3ADyKWo4w2J8yN9RkqsAXoACZh+0aEaKs7RCxHGZ1ImHr/B9VcY+EThFlieRppb//dlA8RprG+BqwXsRwxHE2YupqPPlE142+Eqf8bqNb2qx3AtYSpq8sjlqOsxhFmTZAebOphlUwkzIyfHtIenN60YcBjhLkAVdoNbHnCrf51WsRylNkUwtR/D7BfxHKEtj/h6uktEctRZiHGA/Rg6y1UZtta4HzC1NOT6O2/aaEWsZmL9ZlXwQGEqaMqfikJKcS4lR5sJ8eq+DNh6ui6mIUouTWBVwlzHd4fsRwhLYsNJg1RR8ks8+sh5CfDqowU/gNh6ue4mIWogImEuWnMoRr9q8OwsnjXzwJslUZp3pGEuWdUZRnbdxGmfm7G9haRFkwizLKLJ8csREDT8a+bu0h7sY92HUOYG8d2MQsRyA6EqZuvxixERXQSZpGwx2IWIqDv4183C0lnKrq7EGtb3xy1BGFMxL9eXqXaU9BC6sLW8/a+Jl+MWYhAjsW/Xm5CgWq7NiTM2KF1YxYikNvwr5cvRS1BBf0E3wvSTfkb65fwrZMlaAW1rFYA7sX/QVd23gupPIY2/MpqN/xXtPx81BL4Wxv/qX/al8ZBF3ARvhfmC1FL4M87Uq3yQkkxTcB3rnvZg9X18L2pzsLeYCW7g/G9NmX/sur9UnU51RjDUwgj8Z2e8V/Ku7ztdvjVwxKqN483bxtg7cvrGn03bvZdefapPg1sHTf7lfcxYBF+12j7qLn30wk8gu/DP4VlvaPqxFan87pIZd0xzCsQmos++4eyGn5faWYBy8XNvgvPdSruAdaKm/1kvA2/WRpnR867l/fi91z5BRrxH9Qv8LlQd1G+rwBb4Lf87Dsj5z01y+G3oNXXI+fdwzfxKfvT2PgKCWc3fK7VEmDTyHnPqgu/sTu/i5z3JG2LX7R2SOS8Z3UZPuV+kvIFP2X0XXyu1yvYV4WyWB2/RWd+EjnvqfL6BH5J7Ixn9HH8nie7RM57srz6WGdhWxGXwUfxa6inRs57qrbB75pdFDnvWXjukfCmyHlP1Xfwu2YfjJz3dq0GvIhPmWdSrf07Cu3b+DXWCyn+hVsbv4bag3ZPi2kaftftoMh5b8fH8Cvv4xT/t1kVW+J33V7Alh4usg58d1L9ftzsp20dYDF+F+/LcbPfkpHArfiV9Y642U/e5/C7dq9hXxWKakt8l0U+Nm72k3cDftfuZoq9+c3X8StrN5qeGt0F+F3AJcD74ma/KV3470710aglkDH4bsX6OMV8u1obmIFfOecB46OWQA7E915zDsUca/QB/AZT92BfEiSyN+PbWBcC74hagqF1AmfiW8ZnKHZUXlU/w/c6PkixVsNbDd+ujh7gjKglELDllZ/A9zqeRrG6cd6N79oHPcBbo5ZA/s+/8Q8CPhy1BAMbAZyHb9l60JaUeVkD/x0DH8U2zMrbesDD+P8OJ8YshPyfw/G/75xNMfZu+Aj+D/8bopZAXmcK/us3LwVOJL/FHNYgzFbIj6O3/zyF2GnsOWDPmIXo563A8wPkK2vS1L/8DMd3Jct6uhqbHpqHLuAk/J8VPcCuEcshA/g7/he1B/u6MCFeMQBbme+5jPkeLB0SsRzyRisCL+N/XZdgs2JiBnfLYGscePaj1tMrlGdqblV9iDD3oGeBd0UsB9iXpGsy5nuwdHG8YshgJmDL2oa4wHOxTSKWiVCGvwYqQw9wHcXqh0vVpwl3jacSpy/y7fj39/dNR0cogwytA//u1b7pT9hMrpBGAcfh3/VWT68B6wcugzTpGMI11h5sYMyn8V+TfSK2tPHCgHlfAEx2zre0pxPfqVYDpauxbgHPgK8D2IswXVN90y1oHfWimIQ95EJd64XY4Nj1nPM9GjgCW+00ZFs9zjnfkkEX/vuOD5ReAn6K9fu0e6Mag31iu4Qwn1D7pzKuI19lmwDzCX/dHwS+SLa3lA2wL2BTI+R3AbbXhRTHcYS/7kuxT+kfpP09H7qw/Qx+Rphutv7pTiqy1W+VPgtPxC7MmEjnewG4EbgJu9k+jk2zm4stUrQstiPaOrW8bQPshK3CNyJSHq/GPgsvjXQ+ac7hwOkRzzcVa6c3Y2u+P4b1tb9c++9jsd/Netib345YW904Yh6PBH4e8XzSWCe2tW2saW6LsBe5m7DN2h7D1paYi32NGI694a+O3VM3wdrpzsBKkfL4Crbt8cORzict2IcwIz3LmJ7FZhRIMZ1N/m2kKOnPGetSwlkFeIr820hR0keyVaeE9j3ybyR5pwXYQklSXMvjtw1pmdP9aLvfotuFON1WRU8/zFqREl4HcBb5N5a8Ujda7rcs1sB3+dyypacIPxpcfBxAnDFLRU1/ppjLGssARhJu7mfR0xeyV59EtBk2uDTvdhM7vYwG/ZXN58m/3eSRriH8VHBxthxwJfk3npjpBJeak9i2wQaV5t1+YqWXsIGGUj7Hkn/7iZmuQ11UpbUsNoo170YUOnVj0bmU1ybA0+TflkKn57Btg6W8Pk0a3QFXYbMOpMRGAueSf2MKlRYAB7vVluRpI/w31ilSerhWRim/g7F7T95tKlQ6F+2dUilHY+um592wPNPzaLR/1ayA7S+ed9vyTlcA4xzrSfK3I9X7atUNfJNqrZEjNZ8i/wbmlV4D1vStHimILuyBmXcb80pXoCV+q2pNwi4ZHDt9yrd6ii21aQ2P5p0BRwuwaVRSPUuB6XlnwtF0tBplVT2F3YuqokrPiIZSCwBEREQEBQAiIiJJUgAgIiKSIAUAIiIiCVIAICIikiAFACIiIgkalncGSuh+4DBgU2By7Z9rA2Nrqb50ZA+24clLwGxseskDwFRgHnBp1FxLin4A/D962+pkYFWsnY6hd6WzhcAcrL0+h7XRqVh7fRvwxai5lhS9E9u/pX5PXR8Yjy0eNZbehXnmYu30ZeAJeu+p9wO/wTbXkiZVKQAYA2wIbFxL6wErYY1qdC2t5HCehcAttTSQrtq55gxxjIkO+RgLPIMFEy9jP4y52A38YWAa8BAWeCx2OJ/4WQtbEncjrK2ujbWZsfS211UczjML+FctDWRU7Z/zhzjGNg75OATYG2uffdvrTKyN1tvrkw7nEj8jsHvVZOzeuhHWLuv303p7HetwrmnAY0P89zFYmxlqPYmFDvm4APvd1O+n82r//zGsrU7D2utQ9/fSKHMAsAGwB/AWYFeKsyreUuI0jg5gtSb+3BIsQr4a29ziWuwGLHEMA3bA2uketf9dlA1GhnrwexqJBTmNvArcSm9bvQ1rvxLHOGxp8bfU0sYU5xkR64G7As3t/vcUtlNgva0mtYBQHjqxRvlr7M0hr6Uib3coy8Qc878Eu7GegM+XCHmjFYBDsW6eV8nvWh/nUJbjcsz/K8DFwMeA5R3KIm+0Abb2/e3ku1eKx73o9hzzPwM4E9gdja1ztRHWQB8lv4vbN5U9ABioPEfj0z2Ssk5gF+AM8n3o901lDwD6pvnAn4F9KM5baVmNwXbz+xe2+U3e17aH8gcAfdMTwE/QtteZvA24hvwvZv9UtQCgnuYDpwETHMqXkmWxACrPr1KDpSoFAH3TTOAoescwSHPWA07Hfut5X8P+qUoBQN90NbCXQ9mS0IFF+DeT/4UbLFU1AKinRcBZWP+fDG409uAv8naoVQ0A6ul57OugxyC0Klsf+zK1mPyv2WCpqgFAPd0FHIC2GR7UbsDd5H+hGqWqBwD1tBT4AzZtTHoNA47BpnfmfY0apaoHAPX0IhaMqWvg9VYHzsZ+y3lfo0ap6gFAPd2JdRVKzXgsOi1KX1SjlEoAUE8vYzdX7ecO22EDKPO+Js2mVAKAerob2MmhzGXXCXwS++3mfU2aTakEAD3Ys+4sfKb6llYH8BnK8SbVN93pUPYNClCOVtMdwPYOZS+jFYHfUp4gtZ6+4lD2rxSgHK2kbmym0HiHspfRFOwelfd1aDVt4FD2spV7NnA4CXYLrARcQv4XoJ30hEP5dy5AOdpJi7E+15SmuUwBHif/um8n/dCh/D8uQDnaSU+Q1qfWDuxL3SLyr/t20psc6qDI43GGSv8ioa7WXbEVv/Ku9HbTYppbKGIohxagHFnSJVR/2mAncDzFHjjVKF3sUA9lDdR7sGt3HNV/w1oZuIz86ztLOiRjHYwh33UMsqaZ2IthZXVQ/htqPR2YsS4uKEAZsqYnqG6DXQm4gvzrOGt6DZum2K7RFHPKWKvpUqwbp4rK/kJVT3/JWA8fKkAZsqbKBqxdwK/Iv4K90i20f5E2pLyf6fqnBdjUlipZF1vzO++69UrHZKiLYwuQf680FVgnQ10U0X5UI0Drwe6J7Y4D6ABuKkAZvNLvqdCMllHAReRfqd7p0DbqopPyf6rrn5ZgI46rYDOq8TbVN71Ic+vw97cuNkgp7/x7piewneaq4HDK/cl7oHQx7Y0vOqwAefdOfweWaaMuCmUscD35V2aINB/bOKNZHdigrLzzHSp9vYW6KKKdqd4Dr57uxDZ6adZ4yrEmRzvpRco/VfAb5F+PodL3aO3r6m7Yl8i88x0iXUuJF7lannLNmW4nLcAi8UZR63jgjwXIb+j0rQb1UFRvwrb9zLv+QqaHaW5r322BRwqQ35BpLrBjE3VRRCeRf/2FTufROGDtBD5NdR/+9XQrxdk9tGkjsKkNeVderHQX9hmq7/a8HcBW2A+2qm+WA6XPUC6bYG+FeddbjLQUu7nuzevX0R8FvBM4n3KsGueRZmH73JfJZ8m/3mKl2cCJ2IY6fb8IrAb8D9X9QjVQugJ7proLMdqwE7vJZB0p367ngHuAadhgrunY291celfG+iIWPYYwD1vcaFVgeKBz7AM8iDWK5bBoeQwwCRtkOBkLPvLoQ+oGPkj2Ub0xrAPcCKyVw7l7sPb5APZ2Pg2bxzyP3vYKttf4uoHy8Dx2D1g50PFnYFt4g73FLFdLa2LtdCOsTz6vfSfqU6+ezOn8rfggcC75rMGxAHvgTsXa6X+xrZpfwtrqIuw6/iPQ+Rdj9/XxZJvVMpTTgR9gv4ex9LbXCdj9dEPsnprX6n3nAwdh99dC+ylxo6NFwD+BI7FG2ExQMzlyHj3TPU2UD+yt7i3At2t/J2YeF2D7YhfZeCyIilkvz2PLXh9I8zeSMvf3NjsuZFXsAfcr4IXIebyf4vez7gksJG693I116e1B8y8S90XOo1fqprkgtAMbKHwUtj5G7NlcpzaRx1wdRLzKuB37JNbugjRlHY3fzuwDsE9pP8Qi6Rj5fA5Yo828htZBvJkpi7CvIfvQ3hehVbH5/Hm3u1bTPNp7WxoO7Av8lXg32Aso7tzrtYgXFD2LvQVv3mZePxEpn97pkjbLuzIWDMRcgviDbeY1uI2BVwlfAVdhEXFWZVyO9zGydyssizXaGPvXX00xNxH6POHLPh/4OT6f78u4HK/H28oE4DTiDPQ6yiG/3oYB1xG+7DOwl6m+40LaMZxyLpvtsQzxW4FrIuT1Fayrt1BGEf4z8134r+3918B59k7vdyz7CGzt8NA7hhVtZsAUwn5O7QZ+x+sHhGa1EuUaqDgL35X31sC2pg65GdMCbLfHIvkOYa/TS9iD33Os0oGB8+yd/uRYdrBpiTGehYVaI+CXhCvsHMLt9b0ucb5aeKQrApQfbM/wcwPmeym9A8HytgJh31DuJdwGNIcHzLd3+p9AdfBmwvYzP4pNXy6CtxJuRkZ9O9pQG9BcGSjf3mkO7S2S1cgw7CvjKwHz/vMA+W7LLoSLzG8H1g+c/zKsIvUS4ZcxfQ/hpiv+l2JErD8h3DU6g0BTdWo6KMfGPFcQtj99OHAy4e45HjsoZjUKC0ZClG8O4ZfvXotyTH3+WKDy160L/CdQ3rspwIJWw7C3nhCF+xFhb6h9nROgDF5pMfCucEV/nYmEW7zphEhlGMxWhFk6dTYWPMWwGnHGbrSbHiHeNKn9scA4xO9ti0hlGMy3CHN9bsHGVcTwXsJ22WRNZ4Yr+uuMJNyLx93kvGfAFwbIVNa0hHCfEAczCrjZIe8h0mEByz2QUcCFTnnvm+YT/mvOYDoJE4nPJP5iMttSzG6r52l/M5d2bYqt7+9dlhvIb1bAJMIMevwb8b/Cfc0p797pYuI/OD9FmBeQz8UsRF9r4t/HMR+LHPNQxPXPvxmywEMYBvy6ify1mi6NWYg+QnTzPEiY/sNm7EGxpgbOBXYIWuLBrUOY9RzanW6bVYhtqM8kv9k4Rdv/5FZsgZ887I9/cDeHnKZb/6KNzA6VFgHviFqCNxoP/Jv8G+lS4MuBy9pIB2EGd7aygZKHkfjv8DeV9tef8LIz8dZ0GCo9i880qixWxn8L55nE64Ks28Mp733TaeS7xkEH8FWK0R3wL1rbFCuEvfFf3+KnUUuA9UV6voF0A4dELcHghhF2sFijNJf8voL01wn8Gd/yXR61BPbpzTP/TxJuad5WrQXcQX5t9V7i9Sk3shY2n92zfLG737xHz/+d4qzD8S7sbTWvtnoG4ZZmb9WH8J3hMR+bzRXNDxwz34ONJSiaw7GHccxGeh82WK1IlsF/S+ftI+V9GL6jqedQvP3kRwNnE/cNqz6NrGi7lG2Ob7fkI8TrK57imO8ebCvZkZHy3qytiL9c8BzgkzEK16Jj8S3nKbEyviK+g5D+GivjbZiI9VvHaKSfJ+cRnUNYA9/PzRdGyvdHHfPcQ34bXDVjN+LcXO+rnauoPoxveT8SKd//cMzzs0R+I2zBMOAYwn8N6MZmdxW1HjqwLzRe5X0F68IOznNk56MUfyMOgL0IsyTnq1gfXVEbaV9vx++zVTe2E1xonlNUT4+Q36yGY4tmeY956MHeho+kuEFqX2fgV+67I+R3Y/y+4CzFFhEqujWwzZ+8B8V1Y339sccatWMctry7V9mPD53hDmxRF68LFWrVtFCmYDeXrPOP7wOOwFamKxPPsRHfDpzXbRzzWpSFjJo1AnsTvpxsU4+WYJsmvYN8tqFtl/dCOqG75b7rmNcfBc6rt9WwB9dUspX7RWzGwYZxs5/ZrvgFf9NCZ3Ynp4z2AL8NndmAhmPb3Z6E3WSfYfByLsIuzPnYhiMx3nxDWQHbs97j+k8n7EPFcwOdvGenZLEi1nVxGrYQzFDdd6/W/swvan/Hcz3/2N6J3/UPuTpgJ36LOz1FcZYybsdG2Bes84GHGXq0/NPYvfckrEuqKAP82vF7/NrqlJAZ9ZoW9iI2dadKlsFGRG+OLdayEfaZq0xvTs3w7GPdPVAeh+M3ZqHIY1TaNQ4b37JtLU0k/+lRIXj1sT5DuK6PPZ3y2EOxx6i0oxNbb2ZjrJ1ujt1jy/Q1rhmr4Ld08i9CZXIEtsuXRyaPC5VJieJ2fNrBbwLlbx+n/C2hfJ8UpdcG+K2+tnegPP7BKX93ku98f8nmq/i0gxcJNPvj7U4ZnE35+r7l9d6HT1uYRZgvJL9xyt95AfImcf0Rn7bwqwB568JvP4P9A+RP4hmDX1vYK0QGT3HK3IkhMidRdeI35WzrAPl73CFf3dgnRym3LfEZZPXfAHnbziFfPdhSyFXrakzRSfi0h/8NkblbHTK2FOvTkfI7Ep/G6r0I1LpO+braOV+Sn2vxaRPrOufLazGYI5zzJflYA58uq/94Z2yMU8Yu886Y5GZFYCHZ28TFzvn6hEOeeoCPO+dL8uO1GdTHnPN1mUOeFpL/vhTi5/+RvU0sxrmbfV+HTPUQb1UtieMisreJV/AdYX2OQ55eQ+NUqmQMPnuXnOWYp+H4rKj6d8c8Sf4OwudZ++5mTtZsv9G2TWd/cIux5S6lOv7mcIzl8R1p79FWr8QCE6mGOcBVDsfxaFt1G+Gzl4LHb1CK4x/Y1/asmmqrzQYAG2fISN1tWMQr1eFxUwW/xZGGAes7HMerXFIcVzscYwP8vlZ53FNBY1Wq5hVsh8+smrqnNhsAeNyg1VCr5wlsydWsvAKA9fFZEUwBQPV4XNMR+A0E9AgAHsb2fZBq8XhWugUAncCkbHkB4AaHY0jxXO9wDK+3IY+uhDnA/Q7HkWK5B59unSK1Vd1Tq8njnrohTSwM1UwAsDawbObs2FxVqZ6pDsfwGgPgcXN+CJs3LtXSjb0xZ1Wktqp7ajV53FNHY9MKh9RMAOAxb38++lRVVR47UHmtDeFxnOA7aklu1FalDGZg2yRn1bCNNRMAeOwu9TB6q6oqj5uQ15Q7j1HVHm+JUkxqq1IG3fisPNmwrcYKAGY5HEOK6QWHY3htYepxc/YojxRTUdpqBz4BgNpqdXk8Mxu21VgBgKb/VZfHte3CZ5yJx01VbbW6PK6tx/1wOXzW7p/rcAwpJo+26vIFQDdVGcqiWsrK48bqcQzdVKsryk21CR731AXY4mpSTVGC1WYCgFEOGfEY0CDFNc/hGB5fADza6nyHY0gxveZwDLVTiSFKW20mAGg4l7AJPQ7HkGrzaGciZaC2Lo14PDNd1gEQERGRilEAICIikiAFACIiIglSACAiIpIgBQAiIiIJUgAgIiKSIAUAIiIiCVIAICIikiAFACIiIglSACAiIpIgBQAiIiIJUgAgIiKSIAUAIiIiCVIAICIikiAFACIiIglSACAiIpIgBQAiIiIJUgAgIiKSIAUAIiIiCVIAICIikiAFACIiIglSACAiIpIgBQAiIiIJUgAgIiKSIAUAIiIiCVIAICIikiAFACIiIglSACAiIpIgBQAiIiIJUgAgIiKSIAUAIiIiCVIAICIikiAFACIiIglSACAiIpIgBQAiIiIJUgAgIiKSIAUAIiIiCVIAICIikiAFACIiIglSACAiIpIgBQAiIiIJUgAgIiKSIAUAIiIiCVIAICIikiAFACIiIglSACAiIpIgBQAiIiIJUgAgIiKSIAUAIiIiCRoW6TxTgJMjnUviG+VwjGOBlzMeY02HfBwG7OVwHCmeCQ7HWJPs97KxDvkY5ZAPKa4pMU7S0cSfOQ41NBERkTL5MnDKUH+gmS6AWF8JRERExEfDZ3dXg7/8JeCEZg4kIiIihbErsBxwLdA90B8YrAtgHPB3YLcw+RIREZEIrgb2Z4AxVgMFAKsDVwKbBM6UiIiIhPcANrj52b7/sn8AsDxwDbBNnDyJiIhIBHcAuwNz6/+i/yDA36CHv4iISNVsC5zZ91/0HQT4QeAbUbMjIiIisWwGTMW6BP6vC2AZ4FFgjZwyJSIiIuE9BWwALKh3AXwKPfxFRESqbk3gE9D7BeBhYFJu2REREZFYHgImdwDbAbflnBkRERGJZ+tO4B1550JERESi2rsT2D7vXIiIiEhU23UCm+adCxEREYlqs05gxbxzISIiIlGt2AEspbltgYfyE2BB9vyIiIhIA8sAR2c8xlKAHoc0LmNGREREpDnjcHh2Z33zFxERkRJSACAiIpIgBQAiIiIJUgAgIiKSIAUAIiIiCVIAICIikiAFACIiIglSACAiIpIgBQAiIiIJUgAgIiKSIAUAIiIiCVIAICIikiAFACIiIglSACAiIpIgBQAiIiIJUgAgIiKSIAUAIiIiCVIAICIikiAFACIiIglSACAiIpIgBQAiIiIJUgAgIiKSIAUAIiIiCVIAICIikqBhwGJgeMbj3Al0Z8+OiIiINODx8r64A5gNjHM4mIiIiJTDi53AE3nnQkRERKKa2QlMzTsXIiIiEtXUTuD6vHMhIiIiUV3fAawHPAp05JwZERERCa8HWK8TeBx9BRAREUnFtcCM+lSCU/PMiYiIiERzKvR+9u8AbgZ2yC07IiIiEtrNwE5AT99+/21r/2FYLlkSERGRkBYDU4C7ALr6/Idnav9xrxwyJSIiImF9Bbig/n+6+v3HG4F1gK1j5khERESCOhf4Ut9/0T8AALgU2ADYPEaOREREJKhzgUOBpX3/5UABQDfwd2wswC5ofQAREZEy6gZOAo6m38MfGj/c3wKcDmzony8REREJ5CHg08A1g/2BRlsKXgVsAXwGWzBIREREiusx4HBgS4Z4+ENrn/c7gV2B/YDdgE2Ake1ECFyMAAAHY0lEQVTlT0RERBwsBB7AVve7EFvZt6eZv5ilf78LWANYAbip9s8s3gM8lfEYIiIiRbYmcFHGY7yCLebzCvbc7M6aqSxmYxFHljQxeq5FRETimkj25+Vsj4w0GgMgIiIiFaQAQEREJEEKAERERBKkAEBERCRBCgBEREQSpABAREQkQQoAREREEqQAQEREJEEKAERERBKkAEBERCRBCgBEREQSpABAREQkQQoAREREEqQAQEREJEEKAERERBKkAEBERCRBCgBEREQSpABAREQkQQoAREREEqQAQEREJEEKAERERBKkAEBERCRBCgBEREQSpABAREQkQQoAREREEqQAQEREJEEKAERERBKkAEBERCRBCgBEREQSpABAREQkQQoAREREEqQAQEREJEEKAERERBKkAEBERCRBCgBEREQSpABAREQkQQoAREREEqQAQEREJEEKAERERBKkAEBERCRBCgBEREQSpABAREQkQQoAREREEqQAQEREJEEKAERERBKkAEBERCRBCgBEREQSpABAREQkQQoAREREEqQAQEREJEEKAERERBKkAEBERCRBCgBEREQSpABAREQkQQoAREREEqQAQEREJEEKAERERBKkAEBERCRBCgBEREQSpABAREQkQQoAREREEqQAQEREJEEKAERERBKkAEBERCRBCgBEREQSpABAREQkQQoAREREEqQAQEREJEEKAERERBKkAEBERCRBCgBEREQSpABAREQkQQoAREREEqQAQEREJEEKAERERBKkAEBERCRBCgBEREQSpABAREQkQQoAREREEqQAQEREJEEKAERERBKkAEBERCRBCgBEREQSpABAREQkQQoAREREEqQAQEREJEEKAERERBKkAEBERCRBCgBEREQSpABAREQkQQoAREREEqQAQEREJEEKAERERBKkAEBERCRBCgBEREQSpABAREQkQQoAREREEqQAQEREJEEKAERERBKkAEBERCRBCgBEREQSpABAREQkQQoAREREEqQAQEREJEEKAERERBKkAEBERCRBCgBEREQSpABAREQkQQoAREREEqQAQEREJEEKAERERBKkAEBERCRBCgBEREQSpABAREQkQQoAREREEqQAQEREJEEKAERERBKkAEBERCRBCgBEREQSpABAREQkQQoAREREEqQAQEREJEEKAERERBKkAEBERCRBCgBEREQSpABAREQkQQoAREREEqQAQEREJEEKAERERBKkAEBERCRBCgBEREQSpABAREQkQQoAREREEqQAQEREJEEKAERERBKkAEBERCRBCgBEREQSpABAREQkQQoAREREEqQAQEREJEEKAERERBKkAEBERCRBCgBEREQSpABAREQkQQoAREREEqQAQEREJEEKAERERBKkAEBERCRBCgBEREQSpABAREQkQQoAREREEqQAQEREJEEKAERERBKkAEBERCRBCgBEREQSpABAREQkQQoAREREEqQAQEREJEEKAERERBKkAEBERCRBCgBEREQSpABAREQkQQoAREREEqQAQEREJEEKAERERBKkAEBERCRBCgBEREQSpABAREQkQQoAREREEqQAQEREJEEKAERERBKkAEBERCRBCgBEREQSpABAREQkQQoAREREEqQAQEREJEEKAERERBLkFQB0OxxjuMMxREREiszjWefxzHULAOY5HGNVh2OIiIgU2eoOx3jV4RhuAYBHZrZ0OIaIiEiReTzrChUAPO1wjPc6HENERKTIPJ51Hs9ctwDgYYdj7AHs7HAcERGRItoV2M3hONMcjuEWADzodJzTgNFOxxIRESmK5bFnnIepTsdxsTnQ45QuBpaLm30REZFglgMuxe85uUnc7A+tA3gOv8LdBWwXtQQiIiL+tgfuwe/5+Az2zM1smMdBsEz9AzjM6XhbAbdiEdPfgDuAZ4FFTscXEREJYQSwGvYSuz+wN04P7JqLsGduZp6ZejNwrePxRERE5PV2AW70OJBnANCBDUzYyPGYIiIiYqYCm+L0BcBzL4Ae4BTH44mIiEivk3F6+IPvFwCwNY4fAiY6H1dERCRljwCTgSVeB/TeDXAx8FnnY4qIiKTuczg+/CHMdsCXARcGOK6IiEiKLgAu8T6odxdA3XhsLv86gY4vIiKSgieBrYFZ3gcO8QUAYDZwEJq3LyIi0q5FwIEEePhDuAAA4HrgEKA74DlERESqqAdbXO+mUCfoCnXgmvuBF/FfCUlERKSquoEjgd+EPEnoAADgNmz6wj6RziciIlJWi7Cv578NfaKYb+W7A+cBq0c8p4iISFk8BXwYuC7GyUKOAejvGmyTH/epDCIiIiX3T2y0f5SHP8QNAACeB94NvA+YGfncIiIiRTMDeC+wL/BCzBPnOTBvBPBB4GvApBzzISIiEtsM4EfAGcCCPDJQhJH5XcBewEexgYIr5JsdERGRIF4B/gGcDfwbWJpnZooQAPQ1DNgOeDOwCbAxNmhweWBcjvkSERFpRg/wMvAq8DS2Qd6DWN/+HTiv55/F/wcblvffSK6N/gAAAABJRU5ErkJggg==;" vertex="1" parent="1">
          <mxGeometry x="470" y="78" width="42" height="42" as="geometry" />
        </mxCell>
        <mxCell id="41DwftxlrVXNSMgh1K6p-12" value="" style="shape=image;verticalLabelPosition=bottom;labelBackgroundColor=default;verticalAlign=top;aspect=fixed;imageAspect=0;image=data:image/png,iVBORw0KGgoAAAANSUhEUgAAAgAAAAIACAYAAAD0eNT6AAAABHNCSVQICAgIfAhkiAAAAAlwSFlzAAAOxAAADsQBlSsOGwAAABl0RVh0U29mdHdhcmUAd3d3Lmlua3NjYXBlLm9yZ5vuPBoAACAASURBVHic7d13vF1Vnffxz01CEiAJvXdCbwKitEDoit3HceyiI4OoWGbU0XFGB+ujIiCDBevYHazYQCmhS1V6ld4JECAhPbn3+WPd+3ANufeec76/vdde53zfr9d6JUr2Or+19j57r7P2KmBmZmZmZmZmZmZmZmZmZmZmZmZmZmZmZmZmZmZmZmZmZmZmZmZmZmZmZmZmZmZmZmZmZmZmZmZmZmZmZmZmZmYr6ssdgFnh1gcOBHYGdgC2A9YC1gSmDP6bZ4CngCeB24BbgZuAi4HZNcdrZmZmHXoBcBJwA9APDHSY+gfzOBHYq9YSmJmZWUumAR8CbqbzB/5Y6abBz5haU5nMzMxsBGsDnwTmUN2Df8U0Bzie9CrBzMzMatQHvJX0jr6uB/+K6Qng/cC4istqZmZmwDbApeR78K+YLgGmV1piMzOzHvdq0mj93A/9FdNc4PUVltvMzKwnjQNOJv+Dfqx0In4lYGZmFmIi8BPyP9xbTT8GVqmkJszMzHrEROAP5H+ot5t+jxsBZmZmHekDvk/+h3mn6Sf4dYCZmVnbSnjnP1Y6IbxWzMzMuthryf/wjkpvCK4bMzOzrjSdtDlP7gd3VHoK2Dq0hszMzLpMH81a5CcqXYR39zQzMxvR0eR/WFeVjgqsJzPrcv7FYL1kbeA2YN0K8p5Lmk44C7gOuIfUNQ+wJrAlsDtwCPBSqtnxbzaw/bDPNTMzM+BTxP/qvg34J2C1NuJYDXgHcHsF8XyijTjMzMy63jRit/RdAHwQmCDEtArwYWBhYFxPUE3vgpmZWZE+RNxD9nZgl8DY9gEeCozvXwNjMzMzK9rNxDxc/wqsV0F8m5LGDkTEeEMF8ZmZmRXnBcT98q/i4T9kU+DhoFj3qDBOMzOzIpyE/kBdQGy3/0j2ARYFxOslgs3MrOfdgP5A/WCN8X4iIN5ra4zXzMyscdYH+tEeprehjfZv1xT0VwHLqWa9AzPrEt5K1LrdgegLXn0BWBYQS6ueIa1ZoBhHKruZ2Uq5AWDdTn1vPxf434hA2vQDYJ6Yx84RgZhZd3IDwLrdduLxfyANAKzbfOBMMY/tIwIxs+7kBoB1O7UBMCskijyfrZbdzLqYGwDW7dSBcNeFRNGZ68XjPQjQzEbkBoB1uyni8XeHRNGZu8TjvSeAmY3IDQDrdupDcG5IFJ15WjzeDQAzG5E6Pcqs6QbE43N/R0qP38wayj0AZmZmPcgNADMzsx7kBoCZmVkPcgPAzMysB7kBYGZm1oPcADAzM+tBbgCYmZn1IDcAzMzMepAbAGZmZj3IDQAzM7Me5AaAmZlZD3IDwMzMrAe5AWBmZtaD3AAwMzPrQW4AmJmZ9aAJuQMwK9RmwG7ANoN/32Twz7WBScAUYJXBf7sUeAZYDDwBPAA8CNwP3AFcN/j/mdnYJgLTB9M2g39uDWwArDaYppG+gwPAfOBJ0nfwGWAucA9w62C6HbgX6K+xDI3QlzsAs4oNiMf3AZOB/YFDgb2B3UkP+khzgGuBy4HzgD8Di4iJ36xkawP7kb6DM4C9SN/JSIuA64ELgVnAxaSGg5kVbEBM5wALAvJpNy0Y/Gw1H7MSbQX8G3Al6Zd53d+/JaRGwH8BO1RcVjOrSN03jqYls1JsCHwEuJr835sV0xXAccC6lZXezMLlvnHkTmZN9wLgh6QxMrm/L2OlxcCvgQMqqQkzC5X7hpE7mTVRH/Aa0liX3N+RTtOFwIuiK8bM4uS+SeROZk1zEKlLPfd3IypdCbwisoLMLEbum0PuZNYUuwJ/IP93oqr0J2DbsNoyM1num0LuZJbbZOB40sj63N+HqtMS4BRg9YiKMzNN7htC7mSW077ALeT/HtSd7iStG2JmGYwj/erIfSPInY7HS35b/SYCJwLLyf8dyJWWA58Gxot1aWZtWAc4i/w3gKakWaRlUs3qsDFlj+6PTheSlgo3s4rtDdxH/i9909K9wAuFejVrxX7AQ+S/3puWZgNHCPVqZmN4J2UsJpIrLQKO7rh2zUZ3DP7+jZaWAm/vuHbNbEQfIf8XvJT0Xx3WsdlI/P1rLfWTxuWYWZBPkv+LXVr6fEc1bfb3+oAvkv96Li39Nw0YnOutQq1k44CvAO/K9PmPkbbwvY1n9xV/lLTn+JOk7USXAmsCE4D1gM1IA4K2B/YgbS28Xt2BD/oK8D7SDcmsXeOAr5FeveUwG7iG9P0bSrNJ37uh7x+kOflrDf65AbAdaYe/oe9gru/f90mvBPz9M2tTH/Bd6m21LwB+C3wA2I24BvT2pJ3GfkP9Ww9/K7Ac1lu+Sr3X6nzgDFKjdVdirts+0nf5/eT5/p0UUAaznlNXt38/cBHwDmCNGso1DXgLaVnRuvZB/3gN5bLu8lHquTaXA+cDbwOm1lCuaaRf5RdQ3xoGH6mhXGZd4yiqfzguAr4BbFNTmVZmO+BUYB7VlrUfeHNNZbLyvZnqv38LST0MW9VUppXZmvSKYxHVlrWf1MAxszEcQrVTjRYAJ9OshTvWJ8W0kOrKvRiYWVeBrFhVf//mAycAG9VVoBZsTFrVcD7VlXspcHhdBTIr0fakwT1VfQl/T2r1N9VmwC+orvxz8G5mNrKNSYPsqrr+zgC2qK007duSNAaoqvI/SqpjM1vBROBqqvni3Qe8ur6iyF4K3EM1dXElsEptJbFSjCe9i6/imrsbeFl9RZG9grSyZhV1cT7eO8DsOT5HNV+43wBr11iOKNOAH1FNnXyqxnJYGY6nmmvt16QpeqWZBpyOv39mlTsAWEbsl2wxaTpf6VPgjiZ+kNIyYP86C2GNNpP4798i4D11FqICfaQpidHfv+V4K2EzIE29u5vYL9gcYEadhajYDNKiRJF1dBfpV471tkmkBXYir63HgX3qLETF9geeILaO7gBWrbMQZk10KrFfrAdJi4h0m61JD+3Iujql1hJYE32c2GvqPmDHWktQj52B+4mtq0/WWgKzhtmJND0m6gv1N9JI3m61GWk54qj6WkKaeWG9aTqxK+PdQrpGu9XmpCXBo+prIXnXITHL6izivkwP0t0P/yEbAXcSV2+/qzd8a5AzibuO7qO7H/5DNiO2J+CP9YZv1gxHEvclmkN3dvuPZDtixwR4gZLeczBx18/jdGe3/0h2JnZMQElTJM1k44GbifnyLKa7Bvy1al/iRidfTwO2LrVaXUDMtbOI7hrw16r9iPv+XVFz7GZZvZa41vMHao69Sd5NXD2+subYLZ+DiLtuSp/qpxjaajsiHVZz7GbZ/JmYL80Z1DPPfx3gdcBnSQub/I302mEOMBd4CriWtOjQSaRVB+vYWRDgx8TU5YU1xWv5nU/MNfPzugNvmD7gl8TU5QX1hm6Wxz7EfGHuo9oVxtYCjgHOprOZCkuBS0i/0levMM41gAc6iG9l6QUVxmnNsC8x18rd1NfIbbI1iVu2uxdfZVqP+RkxX5aq1vZfi7RU59NBcQ6Qego+T3U7oL0sKM6fVhSfNcd3iLlWPHDtWa8gpk5/VXfgZnXanJglR39fQWzjgY+QuvOjHvwrpqdIPQJVDLiLWLd8KbBpBbFZM0wF5qFfJ2fUHXgBfoder4tJrxvNutK/oX9JFhC/pe+WwMUBsbWa/kz8AjxbEzMq+YPBcVlzHI1+fcyn2Vv65rIVMYsqvbvuwM3qErHd78nBMb2K2O7+VtMc0lzsSCcGxOUpSd3rMvTr44Taoy7Hyej1e3ntUZvVYGv0L8cS0muEKG8gdinidtNS4J2B5VmfmF8h0wNjsmbYDP26WARsXHfgBdmItLyvWs871B24WdX+Hf2L8Y3AeI4hbcuZ6+E/lPqBowLL9fWAmD4cGI81w7Ho18VXa4+6PKeh1/Mnao/arGJ/RX9QRm2ccTjx+58raQlx+4Nvg96wuTIoFmuO36JdE8tJ77ltdNNJ9yqlrr0mh3WVtdAfSlFfii2J39s7Is0hrfEfYZYYy3LS/GbrDpPQR//Pqj3qcl2IVteLCVo7xOt7WxPsh34t/jAgjlWAXwBrB+QVbS3gf4j5zv5APH4cacEY6w4zgSliHhHfv16h1tVEYP+IQMya4HNoLeIFxKw69gExjjrSsQHlnII+GPAzAXFYM3wS7VqYT1pDwFqzBvpgwP9be9RmFbkI7cvw24AY1qGZXf8rpqeADQPKq+71fkFADNYMv0G7FrzwT/t+j1bnIdMB/QrAcpuIvsZ8xPvHj9PMrv8VrUHaZUx1lnj8C0nnzsq3h3i83/+3T62zXalnozOzSu2E/qv4eWIMq5N27cv9677VNAd9END2AXHsKMZg+a2Dfh3sWnvU5dsdvd7lNU/cA2C5qYvKPAZcL+bxOsp6h7kW8BYxj9uBJ8U8opdctvrtLh4/G7gxIpAecz3wuJiHvFx4RAMg968hp7xJpTYArgmI4x3i8cPdQBpMuAtpsN1qpF/Kx6E3VIZ7g3j8APAXMY+IBkDu67fX07ljn6JRRXz/elE/cK2YRyMaAGYK9SFym3j8usRMaVtM2qhjd+AU4CbS6OiFwK2kVdL2GPw3iwI+b19gmpiHegNyD4Cp379edqt4vLwksBsAlpvaA3C7ePy+6INpFgNHkpbZ7R/l3/UP/puXkBoGilXQNwu6UzzeDQBzA6Bzat1tqQbgBoDlpm4eon6J9hOPh9Tlf34b//58YrbVPUA8/i7xeG/8YmoDvJepdSevfeIGgOW2mnj8I+LxzxePvwH4ZgfHfWPwWIX6C/xB8Xj13Fn51O9fL1PrTh647AaA5aZOZ5srHr+BePy3Gb3bfyT9wLfEz95CPF6tOzcAbF7uAAqm1p0bAFY89SGifonUxX+UUdTniZ+tNgCeFo93A8DcAOicWnfqIGA3ACw79SHyjHj8OuLx9wvH3it+9iri8epshJAdyaxo6vevl7kHwHpaH/pysuoc5PHi8cvE4xVLxeMniMdPEo+38i3JHUDBFovHy98/NwAspwH06XCTxePVXzBbCseqXfjqzVdt/MwXjzezjNwAsNzU99Crisery+EeIhx7qPjZat2pXYjq55tZRm4AWG7qQ2Rd8fg7xOOPobPv0bjBYxU3i8erMyDcADArmBsAlpv6ENlUPF5dSGg34J0dHPcu0n4BCnUTlvXE49VphGaWkRsAlpv6ENlMPP5y8XiAk2hvWd6DgRMDPlddSGgr8Xg3AMwK5gaA5XafePx24vHno88kmAz8gfSrfrTv1DjgPcBZ6CN4l6KvI7CjeLw6jdHMMnIDwHJTd8TaQzz+EeBqMQ9IgxG/Rtph7zhgJ9J2wJMH//5e4DrgK8RMn5uFPoBR3U3M68Cb9bjc+8lb2V6Odv3MDojhvWIMOdLRYpnHAU+IMbxEjMHy8/07r+Lrv/gCWFbbol9D24sxrENaDyD3Q73V9BSwlljmXQPi8HbA5fP9O6+s9e9XAJbb3egL2hwuHv8E+sY8dfoyevf/geLxi/AYALOe5xakqf6Cdg39JiCGTSijF2AOAfuAA38U47gqIAbLz/fvvNwDYD3vfPH4I9Afig8CnxLzqMNn0ddOWIP2pi2uzCzxeDPrAm5Bmuql6NfRWwLiWAX4a0AsVaXziWm0vzUglhcHxGH5+f6dV/H1X3wBLLuppHntynX0p6BYtiH9ws79sF8xPYm+edCQi8RYlpCmOFr5fP/Oq/j6L74A1giXoV1H/ejz2oe8mrTNb+6H/vAH7suCyrYDqa6UeC4OisXy8/07r6z17zEA1hTniMf3kVbZi/Br4N1BeamWA0cBvw/K732kulKcGxGImZXPLUiLsAP6tTQPWD8wpmPI2xOwDHhbYHk2BhYGxLVtYEyWl+/feRVf/8UXwBrjSvTr6eTgmF5F2vSm7of/Y8BhwWU5MSCuy4Jjsrx8/86r+PovvgDWGBFL8i5E3yFwRdtS7+yAK4HNg8swnbR4jxpbU16NWAzfv/Mqvv6LL4A1xnqkAW/qNfXzCmKbALyfansDngA+AkysIP7fBMS3GFi3gtgsH9+/8yq+/osvgDXKGcQ8TF9aUXwbAScRu2rgU8CX0Nf3H0nEOgsDwC8ris/y8f07r+Lrv/gCWKPMIOZhdQ+wZoVxrkPa9vdyOptW10+aj/9WYLUK41wbeKiD+FaW9q0wTsvD9++8sta/Oh2IgCAiYrDucgEwMyCf04HXB+QzlvVJS+vuQ5rNsBXpdcYU0kj+JwbTI8DVpIF0l6Fv6NOKnxJTB7OAQwPysWbx/Tuv4uvfLUiLdjgxv1gHgKNrjr1JjiOuHg+pOXarh+/feRVf/8UXwBrpUmIeXEuAg+oNvRH2Iw3ai6hDT/3rXr5/51V8/RdfAGuklxHz8Bogzanfut7ws9oemE1c/R1Zb/hWI9+/8yq+/osvgDXW74l7iN0LbFlr9HlsAtxNXL2dVW/4VjPfv/Mqvv6LL4A11nRgAXEPs9tJy+F2q02BW4irrwWkAY3WvXz/zqv4+i++ANZoHyfugTYA3EXqIu82WwN3EFtXH6u1BJaD7995FV//xRfAGm0ScCuxD7bH6K457QcQ+85/gNSTUMWKhNYsvn/nVXz9F18Aa7w3EPtwGyCti/+uOgtRkeOIWT55xfSGOgth2fj+nVfW+h+nZmBWg+kV5DkJ+BrwY2CNCvKv2tqkRX5OBVapIP8q6tzMuoxbkFa1C4n/hTs8PUB1ewdU4aXELe87UrqwttJYTr5/51V8/RdfAGu0KcQtaDNWOp1mrxcwnbjNksZKi0l1b93N9++8iq//4gtgjfYS6nngDX/wnUha378pNiLFtIh66+IldRTOsvL9O6/i67/4AlijnUy9D72htAD4OrBN9UUc0Y6kcQoLyVMHJ1VfRMvM9++8iq//4gtgjXYDeR5+Q2k5aSe8o6inS3wN4C2krYJzlnuAVPfW3Xz/zitr/Xs7YGuyjYAHac41spA0OO5M4GzSyoLq9T8O2Im0/fHLSdsKN2X+/QBpaeGHcwdilfH9O6+s9e8GgDXZW4Af5A5iFE8BVwHXklYYvIs0o2AeMBd4mvSLfhywKrAesCFpT4IdSA/+vUhT+prqrcAPcwdhlfH9O6/i699dSFaVH5C/G7zX0/fGOklWNN+/88pa/+4BsCZ7gNQFbfk8RNpkyDf77uT7d15Z698rAVpT7Ywf/k2wMWk2gpl1GTcArKkOzx2A/X+H5Q7AzOK5AWBNpT503GX9LLUu3Bgz60JuAFgTTSRNi1N8A/gAaWW/XrUU+CTwLTGfmVSz4ZCZFc6jSC3agejX1asG89oZ+EtAfqWlG4A9Buvg1QH5zRjhXFnZfP/Oq/j6L74A1jifQrumlgFrDstvIvCfwHwx3xLSM8B/8PeLCa05WCdKvp98zlmybuD7d17F13/xBbDGuQztmrpshHw3Ia0t0C/m39T0O2CLEcp+uZj3pSPka2Xz/Tuv4uu/+AJYo6xBenetXFOfHuMzZpDW98/9wI5K5zF2F/2nxc9YSjo31l18/86r+PovvgDWKBHvqw9s8bP2I/1qLrVH4BLgkBbLOjPg817Z4mdZOXz/zqv4+i++ANYoX0W7nubR/mY6e5BmDcwVP7uONBc4Ddi9zTJOJNWN8tmntvmZ1ny+f+dVfP0XXwBrlNvQrqc/CJ89FXgnaROf3A/6FdPTwDGDMXbqD2IMtwqfbc3k+3dexdd/8QWwxtgc/Xr6gBjDVGBJQBzRaSkwTSzbvwTEsZkYgzWL7995Za1/LwRkTRKx4tw54vEzaeaiNxOAA8Q81LoBLwts1jXcALAmUR8uDwM3Z45hGXAf8CTPttKfHPz/lol5qw2km0h1lDMGM+si7kKyCH3AbLRr6QcBcdwkxnD2KHmfI+Z9Y0D5fijG8CjeArab+P6dl18BmJFGta8n5qF2cUdsfTtaDGp8OwObinmoMawP7CbmYWYN4AaANUVE1/KsgBjUX7fndvjfWtXqvP/RYlB/OXgcgFkXcAPAmkJ9qNwEPJg5hseB60b579cCj4mfoTaUHgJuyRyDmTWAGwDWBJPRd5tTu7b7gEPFPM4lrSo4kn6a0Uuh1tUBwCQxDzPLzA0Aa4IZwKpiHmr3+i7ARjXEoMa5AWksgEKNYTXSMspmVjA3AKwJ1K73pcDFmWOAtCnPWCLm4qtd8BeS6kzhcQBmhXMDwJpAfaBdRlojP2cMtwP3tPDv7gX+Jn6WGus80vbAOWMws8zcALDc1qH9jW1WpHZpT0RfZa+dGNR4Z6K/g1dj2BNYW8zDzDJyA8ByOxT9OlS71fcFptQYgxrvasA+Yh5qDOPRpySaWUZuAFhualfy08DVmWNYTnqv3qrzB49RqDFfCTwl5uFxAGYFcwPAclOn3p2Pvsa++iC7irTef6ueQm+0qDG322ipIgYzy8gNAMtpG2ArMQ+1K3tNYK8MMahx74X+Dl6NYTqwtZiHmWXiBoDlFDGSXB3MdgjpfXbdMahxjwcOEvOIWJrYvQBmhXIDwHJSHx73kabf5YxhPnBFB8ddBjwjfrbagLqN1qYujsYNALNCuQFguUT8gm3CojoXAIs7OG4JcJH42REPX3Vp4sPQe1DMLAM3ACyXiHfYahf2FqRxCLliUOOPGEOhxrAWsIeYh5ll4AaA5aL+8h4gZmMdldILEdGDofYCnMPoGxjVEYOZZeAGgOWiPjSuBWaLeagNgEeAm4XjbwIeFmNQy/A4cH3mGMwsAzcALIfVyb+S3Tjg4IAYBoTjB2htA6HRHEL+lRRnkM6pmRXEDQDLoQlr2e8OrJc5hog81kF/Bx+xl8L+Yh5mVjM3ACwHtft/EXCJmEdEt7U6BgH0XgTQy3IRsFDMw+MAzArjBoDloD6wLiX/A+sm4AExD4CHgFvEPNT6XAT8OXMMZlYzNwCsbhsAO4t5qO+sJ6N3WUeM4I/KK+IdvPoa4HnAhmIeZlYjNwCsbocDfWIe6sPqAGDVzDFE5hXxDl6NoQ99UKWZ1cgNAKub2lX8BHCNmIfa/b8UuFjMY7gLB/NUqPX6V9KUQIXHAZgVxA0Aq9sh4vHnoS9coz4sLwPminkMNw+4XMxDffj2k7ZWVhwhHm9mNXIDwOq0E7CpmIfaVb0u6X11zhiqyDPiHbwaw6bAdmIeZlYTNwCsTk3Y/vcw9Ou+iQ2AiHfwZ4vHg2cDmBXDDQCrk9pNfQdwd+YY5gJXi3mszJXA02Ie6sP3HuBOMQ+PAzArhBsAVpcJwIFiHhFT7w4Vj5+FPmBvZZaRthZWRLyDV+v4EGCVgDjMrGJuAFhd9gWmiXmo3eTbAltmjqHKvDcBts8cwzTSVs9m1nBuAFhd1K7h5ei/kHNv/1tH3moZzyPVtcKvAcwK4AaA1UV9MF0NzBHzUB9MDwC3i3mM5jbgPjEPtZ6fAv6SOQYzq4EbAFaHqejdwmrX9HjgIDGPP4nHt0It58Ho7+DVGCJe95hZxdwAsDpEDAxTH0ovANbKHEMdnzGVVFaF+ipiAmm5ZTNrMDcArA5ql/AC0up7OWMYIGb737GcQ/6VDv8MzBfz8DgAs4ZzA8DqoD4MLgQWZ47hOmC2mEcrHgduEPNQGwBL0Pc68DgAs4ZzA8Cqtin5p6atDuwt5lHl6P/oz9qb/FMud0Zf9tnMKuQGgFWtCYvTHARMEvOo4/1/1GdNAGaKeUQ0eNSNn8ysQm4AWNXUrvdHgRszx7AIuETMox0XDX6mQu2CvwF4WMzD4wDMGswNAKtSxAY155AG4CnUh+GlpIGIdVlIGoinUB++EYMeDyddA2bWQG4AWJWasEXthqRtiHPGkOMzdwQ2yxxDRN2bWUXcALAqRYwEPy8gBvVXaJ0DACM/U934qAlLE5tZRdwAsCqp3dA3k5bfVagPoCeAa8Q8OvFX0pRAhVr2B4FbxDw8DsCsodwAsKpMBmaIeUR0vasj0WehL8zTiX70zY8OQ+/9UM/BQegzMMysAm4AWFX2B1YT81C7oHcmbZGbM4acn70+sGvmGCLWYDCzCrgBYFVRu36XkabDKSLeP+cYADjk7IA81Dq4AFgq5uHXAGYN5AaAVUV98FwOzBXzUB88dwJ3i3ko7gHuEvNQz8M84MrMMZhZBdwAsCqsA+wh5qH+8l4FfUe6nN3/Q9QYDkB/B6/GELETo5kFcwPAqnAI+rWlPnQi9qTP2f0/RI1hNWC/zDGMR1+a2MyCuQFgVYjodr5KzEPt/l8OnC/mEeE8UiwK9XxcATwt5uFxAGYN4waAVUG92c9CH3imPvT+AswR84jwJGlNAEXEgMwLxTw8DsCsYdwAsGjTga3EPNQu5zWAvTLHEEmN5fnAuplj2A7YUszDzAK5AWDRIn7pqe//DyZtiZszhkhqLONIC/LkjAH0pYnNLJAbABZN7W5+ELhNzENthCwALhPziHQpMF/MQ62TW4H7xTw8DsCsQdwAsEjj0bf/jVj8Rn3QXAQs7vDYXYFTgBuBZwbTjcCXgV06zHMJcHGHxw5pwqJIh+J7jllXGRCTdY8Xol8PbxRj2Dwghg928LmTgK+RRuyPlO8y4CvAxA7y/2BAuaZ38LnDvTEgBnV9CIvl+3dexdd/8QWwMB9Duxb6gQ3EGP5JjGEAeF6bnzmJNHOh1fzPo/1GwPMCynVsm5+5og1I50iJ4cNiDBbL9++8iq//4gtgYdp5CK4sXRsQw0/FGB6h/R30vt7B55za5mf0DcamlO0XbX7mylwrxhDxisfi+P6dV/H1X3wBLMRqwCK0a+FLYgx9wGwxhh+3+Zm7Mnq3/0hpGWm3wnb8WCzbHNI4DcWXxBgWkLaKtmbw/TuvrPXvATkWZSb515zfHViv5hiOprPv0XjgHW0eow7CWwvYU8xDjWFV0lbRZpaZGwAWRZ3jvRh9pHvENLN2H3DKZ7Y7Mj9iLr46G0CZIREVg5k1hLuQDOA6tOvgvIAYzhZjuLmDz5wnfF4n2x3fInzeADH7G6hjPa4OiMFi+P6dl18BWPE2wBOoygAAIABJREFUIL0LV6hdy5OBGRlimCJ83tQOjlHraT9gdTEPNYY90JcmNjORGwAW4TDaHzm/IrV7e3/S+2VFk9b/H4ka40TgADGPiKWJ1QWjzEzkBoBFUN+9PwlcI+ahvleO2PGuDk3YKfGv6Dslellgs8zcALAI6gDAiD3v1QdKxJ73dZgHXCXmodbVclJDRHGEeLyZidwAMNWOwGZiHmqX8jroS8yW0P0/RK2vXYGNxDzU+toSfWliMxO4AWCqHFPvVhSxyUwJ3f9D1Fj70HttmjAl0cwE6p7pZupN/K7BpIhqhDwA/A24Y4V0D2lXvzpNIf1K3mZY2nbwz00D8j8M+JFw/NB521qM4TTheDMTuAFgilVIKwAqIrreIxoA40g7CW7Oyn8dLwQeAx4e/HPo76rPkrrj1xtMQ39XZzSMJaLOzgHeKRx/CGlFRHX8h5ll4oUketcM9PP/D2IM2wTE0Ktpxw7qe7jXBsTwAjEG0/j+nVfW+vcYAFM0YTS53yN3Tq27c9F/vfv8mWXiBoApPJ+8bOr5i1i/wefPLBM3AKxTU9G7b9WR5OOBg8Q8etlM0jgORcQKjurSxGbWATcArFMHoz881AGAewFri3n0sqnA3mIeTVia2Mw64AaAdUrtPl4A/FnMw93HOvU8XgLMF/PweTTLwA0A65R6074YfV95Pzh0agNgCakRkDMGM+uAGwDWiU2AHcQ81HfHqwH7inlYGsexhpiH+hpgV2BDMQ8za5MbANaJiI1c1IfGTGBSQBy9bgL6QEq1MddHWhTIzGrkBoB1Qu16nw1cnzkGe5baBX898IiYh8+nWc3cALB2RfxaOxd9FSu/N46jPnwHgPPFPLw9sFnN3ACwdu2G/r5W7f7fANhFzMOetT1p4yGFek4jxpWYWRvcALB2RfzyVh8Wh5N6IiyO2qtzdkAM7tUxq5EbANYudR/5W4H7xTzULuungd8AtwFLxbxyWkbarvhMUpkU6sP3AdK5VXgcgFmNvB2wtSNi1TZ1xDjojZA/Aq8f/PsE0hbAWw+mnYGdBv++Fc3oaXgSuGsw3QzcNOzvCwf/zc9Iu/N16jDSD4J+IY9z0brxh1aXLLlRZlYMNwCsHRHrtp8nHr8jsKmYx/BXEMt49uG6oonAeqQxBxsO/n39Ff7+IjGWP5FmRTxOGkn/KPDY4P/3yODfW1kw6Ry0BsC6wPPQNvc5BzhOOH4q8ELgUiEPM6uR95PuHZ9DO9dL0RedeZ8YwwDpl32Uplz/WwbE8mExhqmklQGVGP5LjMHa05Trt1dlrX+PAbB2qO9oryT/u+q/AXeLeTTRPcCdYh5q3c4DrhLz8DgAs5q4AWCtWgvYU8xDff8/AThQzEOdgdBkatkOAFbNHMM+wDQxDzNrgRsA1qpDgfFiHk14OEQMQmwqtWyTgf0yxzCBtMyzmVXMDQBrldo1Ow+4QsxD7aJeDlwg5tFk55HKqFDr+HJgrpiHXwOY1cANAGuV+mC4AH16l/pguJo0pa5bPQX8VcxDPc/LgIsyx2BmLXADwFqxJWlevELt/p9K2rpW0c3d/0PUMu5OmuKYM4aIqZ5mNoYmNACaEIONrgnb/w4tEpMzhhKoD99x6MsCRzS0/BrArGJNePjukzsAG5PaJfsgadW6nDHMJ72fjjZPOFZ9V74yfyaVVaE+fG8hLQ2sUFd7NLMxNKEB8H9yB2CjivhFGPHLW30oXUhrK+q1S9nX4L6wKJ61hGa8g1dXfDyMZizDbNa1mtAAeE3uAGxUzwfWFvNQu4QjtoqtqvtfKVvEDnoroz58twC2EfNQ63tDvOWzWaWa0ADYkrTHvDWT+st7AP2B1IQxCCP5Np1NvVsOfCc4liER7+DVOj8XfalSzwYwq1ATGgAAr84dgI1IbQDcSNrUJmcMDw/GUYUbgdM6OO6r6OMiRnID+ev8EfQ690BAs4ZTNzMYAK6tPWprxWrAIrRze6IYQx/pYaLE8EMxhrFM5NlfvK2kc9BnNIzlR23Es7L0JPrKjyeKMTxDqlurjjcDyqv4+o9oAAwA0+sO3Mb0IvTzeqQYw/MCYnirGEMrJgKnkhbCGSmOZcApVP/wBzhqlDhaTeoMnSMDYjhIjMFGV/wDqHDF139UA+CDdQduYzoB7ZwuBlYXY/igGMMAaRBhXXYGTiJ1w88bTDeQfg3vVGMcm6DX23+KMaxOugaUGD4jxmCjK/4BVLji6z+qAXBJ3YHbmK5FO6fnB8TwRzGGmwJiKNXNaHV3YUAM54sxVLF2gz2r+AdQ4bLWf1MGAULahUxdbtbirI8+O0MdeT8RmCHm0QvL/44kYvfFKZlj2At9GqqZrUSTGgB9wJtyB2H/X8RCLOrDdwb6K4RebgCoZZ8IHCjmoTYAxuNxAGaVaFIDAODtePWvplCnYD0F/CVzDMuAi8U8SnYB+g6M6lz8q4E5Yh6eDmjWUFFjAIaS2uVrMe5DO4+/CIjhKjEGdUncbnAJWh3eEBDDL8UY/hYQg62cxwDk5TEAKzgqdwDGDsBmYh5q1+9awB6ZY+gG6muAXdBnUajnYRtgKzEPM1tBExsA/0hagMbyiViCVX3wHIa+EE0vv/8fEtEIasL2wN4d0CxYExsA04BX5g6ix6nvXO8F7swcw1zS++dedwXwtJiH2iC8A7hbzMPjAMyCNbEBAH4NkNMEYKaYR8Qud+oNfxb6ALhusAx9Pv/h6INz1Z6Iw2ju/cqsSE39Qh1Gvau32bNeCKwh5qHe7LdGXxPC7/+fpXbBb0ha4VChno910MeEmNkwTW0AjAeOyR1Ej1K7e/tJv75zxgB+/z9cRGNI7ZE5j3Rt5IzBzIJFTwMcSo8Ck2oshyXqtLGI9+4/F2O4PyCGbqNO6/xDQAx/EWNwoy6epwHm5WmAI1gf+IfcQfSYqaRXAAr1Jj0efdR5xBiEbqP2AsxEb5BHrAy5qpiHmQ1qcgMA4L25A+gxB6FvVas+aPZEX/vdvxSfSz0vqwN7Z45hMrC/mIeZDWp6A2Bv9F+k1jr1Hesi4M9iHur7/wH0MQjd6Fz0LkP13FwCLMwcg5kNanoDAOC43AH0EPXmehH6DV5thFwHzBbz6Eaz0Zf1Va+PRejbfnsgoFmQEhoAryNNQ7JqbQLsKOahdvGuRtoWWuHu/5GpdbMXaYlmhXqN7A6sJ+ZhZpTRAJgI/HPuIHpAE6beHYg+0Mzz/0fWhK151WtkHPogUTMLUtU0wOHpQTwlsGo/QjtHs9EblF8SY1iIR4mPZjVSN7xSx18TYxhHulaUGL4txmDP8jTAvDwNsAUb4+WBq9SH/qsqYqEXtRfiUvQxCN1sAfogTfUdfD/pWskZg5lRTgMA4COkdeot3q7ARmIeatfu+oNxKNz9Pza1jrZF35pXjWGLwTjMTFBSA2Br4I25g+hSEb+o1Kl3h6FvOOMBgGNrwta8ETG4F8CsAeoYAzCUbqGsRkspzkI7L7cFxPBdMYbH8bXRivHAE2h1fXpAHLeJMfwyIAbzGIDcPAagDTvg5YGjTQQOEPNowi+6iDEIvWA5em/Noej3DvU1wCGkxoyZdai0BgDAx9C7iu1Z+5GWeVWoN/MdgM0yx9BLIrbm3V3MQ200rklal8DMOlRiA+B5wMtzB9FF1JH3y4ELM8cAbgC0408Beajn7HxgWeYYzExU5xiAofQX3AsQ5Qq0c6FOKwP4jRjDHQEx9Jo70eo8osF1mRjDBQEx9DqPAcjLYwA6sCfuBYiwJvB8MQ/1QTCBtNWswqP/26eet/3RF11Sz9u+wBQxD7OeVWoDAOCLeF0A1aHoA6nUm/jewBpiHu7+b5963iYDM8Q81PMWMYDVrGeV3ADYHnhb7iAKp468n096hZAzhuWk98nWnvNIdadQ38FfBszNHIOZCXKMARhKD6KPYO9ld6DV/+8DYrhEjEFtgPSyq9Dq/pqAGH4vxnB9QAy9zGMA8vIYAMHGwPtzB1GoLYHpYh5qN/JU4IWZY+hlat09j7SEs0J9DbAL+jLWZj2p9AYAwEfRb0K96IiAPNSb90HAKplj6GVq3UVsIqU2QvrQlyY260nd0ACYSlocyNqjvnt/BLhZzEN9f7uA9B7ZOnMJaRyHQj2HN5Fe5Sm8L4BZJuo7jKcC8lhM2izIWjOOtHa+Uuc/CIjjZjGGswJi6HXqPhD3BsTwfTGGBwJi6FUeA5BXz48BOCEgj4nA5wPy6RV7kJZzVahdt5sAO2aOwfTXAJuTZuTkjGETYCcxDzPrgNqCWRW4PyCfAeDIisvaLT6KVs/96AOv3ibGMADsKsZgaSCfeh7eI8awIemaUmJ4nxhDr3IPQF7F139EAY4NyGcA+BtpgRIb3Xlo9XxDQAw/EmN4BC8HHaEPeBjtXJwREMeNYgy/DYihFxX/ACpc8fUfUYDx6O+Dh9J/VljWbjAZWIhWxyeJMfQBD4kx/EiMwZ71Y7RzMRd9NsfJDYihFxX/ACpc8fUfVYDXBuQ1QBoZ7gGBIzsCvY5fIsawW0AMR4kx2LPejn4+9hVjeGlADOrSxL2o+AdQ4bLWfxMGAQ75BXB5QD6rAl8NyKdbqVOmlgAXZY4B0msMi3F2QB7qdMALSLN5FJ4OaFazyBbMgQH5DaVXVFDWbvBXtHq9MCCGM8UY1PUH7LluQTsnFwfEcKEYw6UBMfQa9wDkVXz9RxfgfwPyHCDNT/Y+AX9vXdIGMEq9qmMsJgLPiDGcIsZgz3Uq2jlZCkwTY/h4QAzqzpK9pvgHUOGy1n+TXgEM+TDpPb5qc+ATAfl0k8PQz7k6Z3s/9IaZl/+Np66pMAGY2YAYDhLzMLM2VNGC+URAvgOkX7seGPSs76DV55Okm6zis2IMEb807bmmksZ3KOdG7ZkZD8wRYzhVjKHXuAcgr+Lrv4oCTAbuCsh7ALiVNDDQ4G60uvxVQAxXiDFEvGu2lbsU7dzcFBDDr8UYbgmIoZcU/wAqXNb6b+IrAIBFpFcBEbYHPh2UV8m2J20BrFC73tcEnp85BhuZ2gW/E7Bp5hh2ADYT8zCzFlXZgjk3IP8B0quA/QPKWrL3oNfjdmIMrwmIodfPY5X2Rz8/bxNj2DYghreLMfSSrL9Arfz6r7IA26KvWjeU7gSm6MUt1hlo9XdPQAxfF2Pwam/VmgA8jXaOIlZovFuM4ccBMfSK4h9AhSu+/qsuQNSAwAHgy2JZSzUBfdvlbwXEcYcYw28CYrDR/RbtHEXs0fBtMYZHA2LoFcU/gApXfP1XXYCJpMFFEQ2A5ehTlUq0L3rdvU6MYcuAGI4TY7CxvQ/9PKm7NL4+IIbdxBh6RfEPoMJlrf+mDgIcbgnwTtJ2oapxwPdIg9F6ibpEaj8wS8xDXSoWPACwDuogPEj7TSjOQ/++R1xvZjaGulow3wj4rKH0O3qri/AitPr6S0AMPxNjeCAgBmvN/Wjn6qyAGNQlqyNi6AXuAcir+PqvqwBrAA8GfN5Q6pXu5IgFXr4gxjAOeEyM4btiDNa676Gdq/nAJDGGLzQghl5Q/AOocFnrv4RXAEOeJk1li/IlYM/A/JpqJvrIebXrfQ/SPgQ5Y7DWqa8BViMt+axQz3dEDGZdraQGAKSpbD8MymsSqVu62zcPUd//LwIuEfNQ38cOoI9BsNYNrb+hUK+7i0lTgHPGYGZjqLsLYw3gvoDPHUo/6yCGkqgzKCIGhakLOl0bEIO153q0c3ZlQAzqdRMRQ7fL2gVtfgXQrqeBfyLu4nstcExQXk2zMbCjmIfaFTsZvSs2ohFi7VHrfE9g7S6IwcxGkasFc1rAZw+lBXTnvOG3oteNunb/EQExvFiMwdr3YvTz9g9iDHs2IIZul/UXqJVf/7kKsDrwt4DPH0r3AOsJ8TTRD9Hq5HH0XqIvijEsJp1rq9dqpPEfyrk7TYxhHDBbjOHrYgzdrvgHUOGKr/+cBZhB2h8+qhFwPt2z1nwf8BBafZweEIc6n9uD//KZhXbu7gyI4X/FGO4IiKGbFf8AKlzW+i9xDMBwlwCfCszvIPRfLU2xC7CRmIf6DnZd4HmZY7DOnScev/VgyhnD9IAYzGwEuVuQ44jbNngoHRsQV27/gl4PW4kxvCEghr3EGKxzL0Q/f+oA2y0aEEM3y33/7nXF138TCrAJ+kpzw9MS4OCg2HI5E60Obg+I4TtiDHOA8QFxWGfGA0+gncOfB8ShjvXp9qm+iibcv3tZ8fXflAIcSdpAJKoR8Dip+7BEE4F5aOX/WkAcd4sxRDw8TPMLtHMY0Yj7mhhDxGDWbtWU+3evylr/3fSlOAs4JTC/dYBfAVMC86zLvuhxq/P/tyNtAZwzBtOpYzDWQl9yW70O1gmIwcxWokktyEnAFQExDU9nUt7MgE+jlXkZ6cateI8YwwDl9sB0k+no5/HfxRjWJF2TSgwfFWPoVk26f/ei4uu/aQXYDHg0IK7h6XuUtX3wJWjlvTwghl+LMURMIbMYd6Gdy4ipnJeLMfwpIIZu1LT7d6/JWv/d9ApgyP3A60m/GKIcBXwuML8qjSP/1LvxpCmVOWOwOGoX/P7oizlF7EhpZsGa2oL8UEBsK6Z/qTDeKNuil3OmGMO+ATF4CdfmeC36+XyRGMPMgBg2EGPoRk29f/eK4uu/qQXoI61kp8Y3PPUDb6kw5givQSvjM6SxFIpPiDEsJy0iZM2wDumcKOf0S2IMETNb1G2pu1FT79+9Imv9d+MrgCEDwDuAmwPz7AO+BRwSmGe0zcXjLyGtv69Q92H/K2nqljXDE6RzolAfvkuAS8U8thCPN+sq3dwAgPRr9lWkuchRJpEGuO0emGekieLx14vHTwH2EfPw+//mUd/B74reBX+TeLz63TDrKt3eAIC0ithrSJsGRZlGGlW8c2CeUdQpi4+Kx88MiMHz/5tHbZT1ofcMPSYe7waA2TC90AAAuAB4V3Ce65M2KtkpOF+V+vBVFxBSu3oXoHf1Wrw/k86NQm0AqNdmaet5mFWqVxoAkNalVwcirWgDUiNgh+B8Feq7c3UKodoAuBh9DILFW0Q6N4rD0dbTUF+7qT0IZraCkkaRjgN+ExDziukhYPsayzGal6GV5Uk6/6W1h/jZA6Tpm9ZMEVNrZ3T42WugzwKY2eFnd7OS7t/dqPj6L60AU4BrhHhHSg+S5uDnthP5HsI/CfhstQfCqrM7+vn9VYef/bGAz1ZnyHSj0u7f3ab4+i+xABuh71S3svQAsE2N5ViZVUndtUo5nqH9Ho1XiJ85QBqAWNKSy72mj5hltttd5GlXYKH4mXPx1tIrU+L9u5sUX/+lFmA7YPYocXWa7id/I+Ac9HLcS+s9GocB8wM+88cdl9jqEtHLs5DWVwbcidS7pn7mrzsucXcr9f7dLYqv/5IL8ELSr121DCumR8i79vi/jBBXu+kp4FhGHj29DvAF9J3ahtKbQkpvVXoLMed6OXACI6/4OBn4APp7/6F0TEjpu0/J9+9ukLX+I7pb1SByd/m+GPgt8VOEngZeCVwYnG8rtgduDcxvNmnw5K2kBtOapMV+jkDf5GXIUmBDYhdtsnjrAg8DE4LyWwicDVxNus7WIP3qfwWwdtBnDJBWAbw/KL9uUvr9u3TF1383tCDfiL7W+crSIvJtanNRizE2Jf2ymmqwCvyW/NdLO+nMaqqhK3TD/btkxdd/8QUY9AGqufksBd5eYzmGvLzDeHMldZEYq88R5L9e2klN3rsjt265f5eq+PovvgDD/CvV3ID6gePrKwaQuoZuFOOuK+V4TWKaWeS/blpJV1VVAV2im+7fJSq+/osvwAo+RXU3oy9S7zubV1VUjsjUD+xdVQVYZfYl/7XTyrV1RFUV0CW67f5dmuLrv/gCrMQXqe6m9FPSXP26/LSickSln1VXdKvYL8h//YyWvltd0btGN96/S1J8/RdfgBGcQHU3pr8Cm9VUjnVI0xJz34xXlu5j5Glg1nxrAfeQ/zpaWXpoMD4bXbfev0tRfP0XX4AR9AGnUd0N6n7qWyvgRcCSCsvSSVpC6ka2su1H866txXjgX6u69f5diuLrv/gCjKIPOIXqblTPAK+pqSxvIb0TzX1zHkrvqba4VqP3kv96GkrLgddXW9yu0s337xIUX//FF6AFX6C6G1Y/8B/UMzjwgxWWo53yvq/qglrt3k8zGpjvr7qgXaYX7t9NVnz9F1+AFn2Eam9cp1PP4MA3AwsqLstIqR84rvoiWib/TDULarWSFgHvqL6IXadX7t9NVXz9F1+ANnyUam9iVwNb11COfUmDpOq8QT8MHFlD2SyvI0nnus5r6yE8nqRTvXT/bqLi67/4ArSp6q7OJ0nz96t2UIVlWDGdAaxXQ5msGdYjnfO6rq+DailVd+q1+3fTFF//xRegA28ijTSu6obWD5xI/AZFw9UxHuBa4P9UWAZrtleRprxWfZ39a10F6kK9eP9ukuLrv/gCdOgI4rYqHSldSnXrBZxVUcz9wGWkm3/2naosuz7Szn6XUN34AG/207levX83RfH1X3wBBHsBj1JtI+Ax4t+dTwLmB8Y4n7Sl63uob4EjK89GwDtJD+ynibv+niFd09a+Xr5/N0Hx9V98AUTbAndSbSNgOfBZ4vZgPzggps+TGibbAeOD4rLe0QdMBw4FPoN+PR5Ua/Tdo9fv37kVX//FFyDAhqQR/FU2AgaAK4AdAuL9nBjHUmCNgDjMAKaRrinlmvxM7VF3B9+/8yq+/osvQJDJwE+ovhGwkLQmwTgh1qvEGC4VPttsZS5FuyYvrz/kruD7d17F13/xBQjUBxxP9Y2AAdKgqukdxLgO+mCs4zv4XLPRHI92TS4D1q476C7g+3dexdd/8QWowOtJv9SrbgQ8DRzTZmyvDfjcGW1+ptlYZqBfl55y2j7fv/Mqvv6LL0BF9qP6GQJD6Uxg4xbj+qb4WXOpdn0C600T0GcGfK32qMvn+3dexdd/8QWo0NbAddTTCHgMOIqx597fJX7O7zqtDLMx/Bbt2vxb/SEXz/fvvLLWf8RCLWoQ3b5YzGqkX91vqunzLgDeDdyykv82HbhDzP8DpC2SzaK9F/hvMY+tgHv0UHpGiffv8cAWpCnIOwz+uRWwJrD6YFpr8E9I65Q8OfjnfOAp4G7gtsF0O3AvaWxU3Uqs/7/jFmRr3gcsoZ7egMWkaVEr7i54bEDeOwXVh9mKdkS/Pv+59qjLVsL9ewrwYtK27FeQdn6MvmcuGsz784OfNdR4qFoJ9T+q4gtQowOod6e0O0gX85BfiPk9EFkZZivxANo1enr9IRetqffvHYBPkqaHqmtEdJKWkGZaHQ9sX2E5m1r/LSu+ADXbmHRh1Xkxn05aoneOmM/3K6gPs+G+h3aNPoa2RkavadL9e13Sa6ArAuKKTpcDxw3GGKlJ9d+R4guQwQTSanxVbY6yshQxLfHNVVSG2TBvQr9On1971OVqwv37ANL20XW9IlXSYuDXxE2FbkL9S4ovQEYHAw+S/6JuJfWTNnMxq9IGpGtNuVY/UnvU5cp5/54BnBMQQ650CfBytIF4Oes/RPEFyGwD4E/kv5jHStdXVQFmK7ge7Vo9t/6Qi5Xj/v1q6tk7pa50FfDKDusiR/2HKr4ADdAHvJ/UvZT7Yh4pnVhZ6c3+3klo1+pCnjsDxlauzvv3NsAfAz6zqel82p8lVWf9V6L4AjTIC0jz93NfyCtLL6mw3GbDHYl+vR5ee9RlquP+vSppWnKTf+BEpUXAp2i9AVpH/Veq+AI0zKrAydQ7QHCstJj65sWarY7+sPhi7VGXqer794vQVx8tMd0JHNFC/VRd/5UrvgANtR9padPcF/IAqWvLrE4XoF2zf6k94jJVdf+eQJpD36QfMnWnftKqqaPtnVJV/dem+AI02DTg2+S/kD9edUHNVvAfaNfscmC92qMuTxX3702AiwLy7pZ0ISNv1lZF/deq+AIU4EjS+ua5LuCnSEtkblhxOc2G7I1+3b6+9qjLE33/fhEwOyDfbkuPsvJxKdH1X7viC1CIKaSxAcvIdxEvBE4jbSpkVqXx6CtXfrv2qMsTef8+lt7u8h8rLQOOqbD+syi+AIV5AXAN+S/k04F9Ky6r9bZfol2n19UfcnGi7t8fC8irF1I/8O8V1H82xRegQBOAfwMWkP+CvgJ4A6MPdDHrxLvQrs159YdcHPX730daIyT3fai09KXBulPzkUTsJawGkX0/44JtTVo0pdNVqCI9CHwN+C7wSOZYrDtsQ5oJ06m5wBpBsXQr9f79P8DbIwLpwGxSb+htw9JsYD7w5OCfkKaVrjX45wbAdqTdBrcH9iDfYNGIusv+/MzagjEgDby5lfyt2gHShh4/Jw14yX5xWvHupvNr0ctXjy33/aKdNJ+0adD7gF2Jub/0AbuRVmL9Dc3oVW0nZVd8AbrEROBDpF89uS/KoXQHaWMWbyJknTqFzq+/UzLEW5rc94ix0nLSOiRvA6ZWUwV/ZxrpV/kFlDGgMbviC9BlNgK+j76jWmRaBpxJmpblNdqtHbvS2Y24H9gxQ7ylyX1vGCktBL4KbFVd0ce0Nem15iLy10djn5/FF6BLPZ+0K1ruC3TF9BTwTWAmMK6y0ls3+QrtX2f+9d+a3PeDFdN84ASa1Wu4MWmg43zy10/jnp/FF6DLvZg0HSr3hbqy9BDw36R9wd0YsJFMAs6j9evqT4PH2Nhy3wOGpzOALaotrmRL4Lfkr6dGPT+LL0APGAccBdxH/gt2pHQ/6VfbIaRpjmbDTQJOZfTXActI19DETDGWKPf3foA00PNlVRc00CuAe8lfb414fhZfgB6yKvBB0rKUuS/c0dIc4EfAP5IG5ZgN2ZnUa3QjqUt2DnA18OXB/2btyf1d/zllTtVcE/gV+esvu+IL0INWJ80YaHpDYIC0Lews4KPAnnhqoVmkXN/rRcB7aihflfpIUxJzDhLMrvgC9LCSGgJD6VFS78DbyDt5dRoBAAAI3ElEQVRC2Kwb5PgOPw7sU0fharI/8ARuAJRZAGN14MPAw+R/wLeb7gV+ALwD2Da6Ysy6XN3f1/vozumZO5PGMbkB0Gay5pgEHE1zVhXsJD0G/B74BGmFxDVDa8isu9T53bwF2KyeYmWxOfXfO7MrvgD2HOOAVwGXkv+BrqZ+0nryPyPtWPYSYJO4qjIrWl3fw/vo7of/kM2otydA4s2AbCwzSDMHXk7ao71bPA7cRNpA5Fbg5sG/D03vMesFdVzrTwAHkHoAesHOwEXA2jV8lvT8dAPAWrUFcCzpFcG6mWOp0mLgHtLc5OHpIdKOh48M/huzblB1A2AxcBBwecWf0zT7kWYvVb0glRsAVqvJpPn57wFemDmWXB4jNQQeIf26eYI0H33oz2dIe9HPI61pPvS/lw3L48ka4zUbSdUNgONIa/r3ovdR/ZLU2Z+fHgPQu14AfIdm7UBYWnqGtKjNl4Fd2qt+M1mV1/bPayxHE/UBv6TaOs6u+AKYbAppXv6FNGsXwtLSMtLGN17K1upS1bV8N2Wu8BdtTdIrxarqObviC2ChtgE+Q7P3HWh6Og83AqweVV3DJa3tX7VXUF09Z1d8AawS40gb+3yTNOI+90O1tHRq+1Vu1rYqrt0zai1BGX5HNXWdXfEFsMqtQpp//33gKfI/XEtIy/DmNla96Ot2Ps3e0jeXrYAFxNd3dsUXwGo1mbTI0A/Jt352KemkDuvYrFXR1+wJ9YZflJNxA6B5BbBsJpDmCJ9IWq0v9wO3aemGjmvWrDWR1+tCYKN6wy/KJsTvHJhd8QWwxtgJ+AhpNsES8j+Ac6e5WnWajSnyeu3V+f7tOI0GNQC8EJA11RTgQOCwwbQLvXetzAOm5Q7CulrUj7B+0gygu4Py61bTSb2dUfey7PdE9wBYHTYE3kxaeKjk3QrbSX4FYFWLulZn1R14wS6kIT0AEYovgBVpGqln4HjgHNL7x9wP7Oh0YlRlmY0g6lp9e92BF+xoGtIA8CsA6xaTgb2APYelHUkDDUu0HNiNtEuhWVUifoQtIPXQzQvIqxesQdpHZHJAXtmfn+4BsKZalbRh0bGkBYkuJW3Wk/uXfSup6k1EzCDmWvXCP+37PQ3oASj115FZKxYCVw6m4TYgzTjYYdif25Km6TThO3Eu8KHcQZi1yO//2zcLeGnuIPwKwOxZE4DNSCuZbTmYtgI2JzUaNgTWqvDzl5OmUn0IWFrh55gNieiF3Q0PWG3X7sA1AflIz083AMzaMxFYn9QY2GDw7+sCU0kDE4f+XHPY/540eOxqw/6+Kukd4DOk3cLOJs1w8Dt/q5N6/55N+i74dW57xgGPku4diuzPT48BMDMrk3r//mP9IXeNc8j8/BynZmBmZj3rttwBFCx73bkBYGZmncr+ECtY9rpzA8DMzDp1e+4ACuYGgJmZFeuR3AEULHvduQFgZmad8up/ncted24AmJlZp7I/xAqWve7cADAzs049kzuAgrkBYGZm2SgPobnAkqhAetDi3AG4AWBm1rvuF469LyyK3qSu4ueFgMzMrGPnCMeeHRZFb1pdPH5+SBQiLwVsZlamXYBltH/fXkbaSdM6txHas/MhNQD3AJiZ9a4bgdM6OO6reOMq1TTx+OyDCME9AGZmJZsInEvr9+xzgFWyRNpd9kZ7dl5df8jP5QaAmVnZJgKnMvrrgGXAKfjhH+WNaM/O8+sP+bncADAz6w47AycBN5C6mOcN/v1E/M4/2ifRnp2nqwFMUDMwM7OucRPwr7mD6BE7iMfLmwl5EKCZmVn9dhGPdwPAzMysMOsDO4p53KoG4QaAmZlZvQ5FXwnwb2oQbgCYmZnV62Dx+PtJezFI3AAwMzOrz3jgpWIeF0cE4gaAmZlZfQ4HNhbzmBURSASvA2BmZtaaH6M/N7eqPeoRuAFgZmY2tjVJu/gpz8y7ooLxKwAzM7N6HAesJubRmO5/cA+AmZnZWFYHZqM/M4+oO/DRuAFgZmY2ug+jPy8fIs0iaAw3AMzMzEa2DvAY+vPyhLoDH4sbAGZmZiP7H/Rn5QCwW92Bj8UNADMzs5XbH+hHf1ZeW3fgrXADwMzM7LmmkDbtifj1/9aaY2+JGwBmZmbP9QNiHv53AhNqjr0lbgCYmZn9vaOJefgPAMfUHHvL3AAwMzN71oHAQmIe/vcDk+oNv3VuAJiZmSW7AU8S9+v/PfWG3x43AMzMzGBr4EHiHv7X0tB3/0PcADAzs163M6m7Purh3w/MrLUEHXADwMzMetk+wOPEPfwHgO/UWoIOuQFgZma96h3EDfgbSk8A69VZiE65AWBmZr1mCvAjYh/8Q+mNNZZD4gaAmZn1kv2JW+FvxfTVGsshcwPAzMx6wdrAKcByqnn4XwesWltpArgBYGZm3WwK8GHSu/kqHvwDwNPAtnUVKIobAGZm1o3WBP6T+BH+K6alwMtrKlMoNwDMzKxbjANmAN8A5lHtg3+ANN//HbWUrAJuAJiZWck2AF4PfJPYlfxaSR+roXwr1ReQh/oQj4jBzMxsJFOAqYNpbWArYAdge2AXYCfyPItOBd6X4XOBZqwx7F4AMzPrNacCH8gZwLicH25mZtZjBoBPkn759+cMpAk9AGZmZr1gOfBu0liD7NwAMDMzq95c4M3A73IHMsQNADMzs2pdA/wjcEfuQIbzGAAzM7Pq/JC0rkCjHv7gBoCZmVkV5gCvA94KLMgcy0q5AWBmZhZngPSrf0fgZ5ljGZXHAJiZmcW4njTK/9LcgbTCPQBmZmaaB4DjgOdTyMMf3ANgZmbWqXuBk0kbBy3KHEvb3AAwMzNrz3XAScBPgGWZY+mYGwBmZmZjexj4+WC6JHMsIdwAMDMzW7m7gVnAL4BzSEv5dg03AMzMzJL7SL/uZw2mu/OGUy03AMzMrNs9A8wblp4CngBuA24d/PP2wf9mZmZmZmZmZmZmZmZmZmZmZmZmZmZmZmZmZmZmZmZmZmZmZmZmZmZmZmZmZmZmZmZmZmZmZmZmZmZmZmZmZmZmPez/ATOTWmbmDOyzAAAAAElFTkSuQmCC;" vertex="1" parent="1">
          <mxGeometry x="51" y="128" width="52" height="52" as="geometry" />
        </mxCell>
        <mxCell id="41DwftxlrVXNSMgh1K6p-13" value="" style="shape=image;verticalLabelPosition=bottom;labelBackgroundColor=default;verticalAlign=top;aspect=fixed;imageAspect=0;image=data:image/svg+xml,PHN2ZyB4bWxucz0iaHR0cDovL3d3dy53My5vcmcvMjAwMC9zdmciIHZpZXdCb3g9IjAgMCAxMTguNzkgMTIyLjg4IiBkYXRhLW5hbWU9IkxheWVyIDEiIGlkPSJMYXllcl8xIj48dGl0bGU+YnVzaW5lc3MtbW9kZWw8L3RpdGxlPjxwYXRoIGQ9Ik05Mi40MiwwYTE1LjQ4LDE1LjQ4LDAsMCwxLDExLDI2LjQyaDBhMTUuNTMsMTUuNTMsMCwwLDEtMTUuMTMsNGwtLjksMS43YTM0LjkzLDM0LjkzLDAsMCwxLDQuODIsNCwzNC4yLDM0LjIsMCwwLDEsMCw0OC4zNWwtLjc0LjcxLDYsNy45MmExNS4xOCwxNS4xOCwwLDAsMSw1Ljg1LTEuMTUsMTUuNDQsMTUuNDQsMCwwLDEsMTAuOTQsNC41M2gwYTE1LjQ4LDE1LjQ4LDAsMSwxLTIxLjg4LDIxLjloMGExNS41LDE1LjUsMCwwLDEtLjE2LTIxLjc0bC01Ljc2LTcuNTZBMzQuMTcsMzQuMTcsMCwwLDEsMzkuMjEsNzguNzJMMjksODRhMTUuNDcsMTUuNDcsMCwwLDEtMi41OSwxOC40NGgwYTE1LjQ4LDE1LjQ4LDAsMCwxLTIxLjg4LDBoMGExNS41LDE1LjUsMCwwLDEsMC0yMS45bC4xOC0uMTZhMTUuNDYsMTUuNDYsMCwwLDEsMjAtMS4zQTEuNzUsMS43NSwwLDAsMSwyNSw3OWwxMS4yOS01Ljg3QTM0LjI0LDM0LjI0LDAsMCwxLDM5LDQyLjFMMjYuOSwzMi43OGwtLjA2LDBhMTUuNDUsMTUuNDUsMCwwLDEtMjEuNy0uMTZoMEExNS40OCwxNS40OCwwLDEsMSwyNywxMC43OGgwYTE1LjUsMTUuNSwwLDAsMSwzLjQxLDE2Ljc3LDIuODIsMi44MiwwLDAsMSwuMzEuMjFsMTIuMTIsOS4zMywxLTFhMzQuMjMsMzQuMjMsMCwwLDEsMzgtNy4xbC44MS0xLjUzYy0uNC0uMzItLjc4LS42Ny0xLjE1LTFsLS4xNi0uMThhMTUuNDUsMTUuNDUsMCwwLDEsLjE2LTIxLjdoMEExNS40NSwxNS40NSwwLDAsMSw5Mi40MiwwWk02OS4yNCw2MS40Nkg2Ni43M2EuMTguMTgsMCwwLDAtLjEsMCwuMTMuMTMsMCwwLDAsMCwuMXY1LjI4YS4xOC4xOCwwLDAsMCwwLC4xLjEzLjEzLDAsMCwwLC4xLDBoMi41YS4xNS4xNSwwLDAsMCwuMSwwLC4xNi4xNiwwLDAsMCwwLS4xVjYxLjZhLjE0LjE0LDAsMCwwLDAtLjEuMTEuMTEsMCwwLDAtLjA5LDBaTTUzLDUwLjI2aDguNjdWNDcuNzdBMS4zNywxLjM3LDAsMCwxLDYzLDQ2LjQxSDczYTEuMzcsMS4zNywwLDAsMSwxLjM2LDEuMzZ2Mi40OUg4M2ExLjkzLDEuOTMsMCwwLDEsMS45MiwxLjkzdjQuNjRhNDIuODUsNDIuODUsMCwwLDEtNi43MywzLjhBMzcuMzUsMzcuMzUsMCwwLDEsNzEsNjNWNjEuMThhMS41NCwxLjU0LDAsMCwwLTEuNTUtMS41NWgtMi45QTEuNTQsMS41NCwwLDAsMCw2NSw2MS4xOFY2M2EzNy40LDM3LjQsMCwwLDEtNy0yLjM2LDQzLjc2LDQzLjc2LDAsMCwxLTYuOTEtMy45MlY1Mi4xOUExLjk1LDEuOTUsMCwwLDEsNTMsNTAuMjZabTMxLjkzLDkuMzNWNzIuMmExLjg3LDEuODcsMCwwLDEtLjU2LDEuMzUsMS45MiwxLjkyLDAsMCwxLTEuMzYuNTdINTNhMS45NSwxLjk1LDAsMCwxLTEuOTMtMS45MlY1OS40N2E0NC41Nyw0NC41NywwLDAsMCw1Ljg3LDMuMThBMzkuMzIsMzkuMzIsMCwwLDAsNjUsNjUuM3YyYTEuNTcsMS41NywwLDAsMCwuNDUsMS4xLDEuNTQsMS41NCwwLDAsMCwxLjA5LjQ1aDIuOTFBMS41NCwxLjU0LDAsMCwwLDcxLDY3LjNWNjUuMjFsMCwuMTJhMzkuOTIsMzkuOTIsMCwwLDAsOC4yMi0yLjY4LDQzLjkzLDQzLjkzLDAsMCwwLDUuNjgtMy4wNlptLTEzLTExLjMySDY0LjA2YS4xMy4xMywwLDAsMC0uMTIsMCwuMTcuMTcsMCwwLDAtLjA2LjEydjEuNzdoOC4yVjQ4LjQ0YS4xNy4xNywwLDAsMC0uMTctLjE3Wk04Mi43NywzNS42MWEzLDMsMCwwLDEtLjc0LS4yOCwzLjQ1LDMuNDUsMCwwLDEtLjc1LS41NSwyOC4yMSwyOC4yMSwwLDEsMCwxLjQ5LjgzWm0yNy4zMyw2NWE5LjYyLDkuNjIsMCwwLDAtMTMuNDQtLjEzbC0uMTMuMTRhOS41OCw5LjU4LDAsMCwwLDAsMTMuNTZoMGE5LjU5LDkuNTksMCwxLDAsMTMuNTYtMTMuNTZaTTIyLjI3LDg0Ljc0YTkuNjIsOS42MiwwLDAsMC0xMy40NC0uMTNsLS4xMy4xNGE5LjU4LDkuNTgsMCwwLDAsMCwxMy41NmgwYTkuNTgsOS41OCwwLDAsMCwxMy41NiwwaDBhOS42Miw5LjYyLDAsMCwwLDAtMTMuNTdabS41OS02OS44MUE5LjU5LDkuNTksMCwwLDAsOS4zLDI4LjVoMGE5LjYyLDkuNjIsMCwwLDAsMTMuNDQuMTNsLjEzLS4xNGE5LjYxLDkuNjEsMCwwLDAsMC0xMy41NlpNOTkuMiw4LjdhOS41OCw5LjU4LDAsMCwwLTEzLjU2LDBoMGE5LjYxLDkuNjEsMCwwLDAtLjEyLDEzLjQ0bC4xMy4xMmE5LjU4LDkuNTgsMCwwLDAsMTMuNTYsMGgwYTkuNjEsOS42MSwwLDAsMCwwLTEzLjU3WiIvPjwvc3ZnPg==;" vertex="1" parent="1">
          <mxGeometry x="790" y="74" width="54.18" height="56" as="geometry" />
        </mxCell>
      </root>
    </mxGraphModel>
  </diagram>
</mxfile>
